<ttFont>
    <TTGlyph name="A" xMin="-47" yMin="0" xMax="578" yMax="710">
      <contour>
        <pt x="378" y="710" on="1"/>
        <pt x="455" y="710" on="1"/>
        <pt x="578" y="0" on="1"/>
        <pt x="482" y="0" on="1"/>
        <pt x="448" y="208" on="1"/>
        <pt x="170" y="208" on="1"/>
        <pt x="49" y="0" on="1"/>
        <pt x="-47" y="0" on="1"/>
      </contour>
      <contour>
        <pt x="444" y="278" on="1"/>
        <pt x="395" y="606" on="1"/>
        <pt x="202" y="278" on="1"/>
      </contour>
    </TTGlyph>
    <TTGlyph name="A.sc" xMin="-45" yMin="0" xMax="490" yMax="551">
      <contour>
        <pt x="307" y="551" on="1"/>
        <pt x="373" y="551" on="1"/>
        <pt x="490" y="0" on="1"/>
        <pt x="406" y="0" on="1"/>
        <pt x="373" y="155" on="1"/>
        <pt x="139" y="155" on="1"/>
        <pt x="41" y="0" on="1"/>
        <pt x="-45" y="0" on="1"/>
      </contour>
      <contour>
        <pt x="368" y="225" on="1"/>
        <pt x="319" y="452" on="1"/>
        <pt x="172" y="225" on="1"/>
      </contour>
    </TTGlyph>
    <TTGlyph name="AE" xMin="-80" yMin="0" xMax="966" yMax="710">
      <contour>
        <pt x="500" y="710" on="1"/>
        <pt x="966" y="710" on="1"/>
        <pt x="949" y="630" on="1"/>
        <pt x="596" y="630" on="1"/>
        <pt x="548" y="402" on="1"/>
        <pt x="849" y="402" on="1"/>
        <pt x="832" y="322" on="1"/>
        <pt x="531" y="322" on="1"/>
        <pt x="479" y="80" on="1"/>
        <pt x="840" y="80" on="1"/>
        <pt x="823" y="0" on="1"/>
        <pt x="373" y="0" on="1"/>
        <pt x="418" y="208" on="1"/>
        <pt x="183" y="208" on="1"/>
        <pt x="18" y="0" on="1"/>
        <pt x="-80" y="0" on="1"/>
      </contour>
      <contour>
        <pt x="428" y="288" on="1"/>
        <pt x="496" y="605" on="1"/>
        <pt x="240" y="288" on="1"/>
      </contour>
    </TTGlyph>
    <TTGlyph name="AEacute" xMin="-80" yMin="0" xMax="966" yMax="916">
      <contour>
        <pt x="591" y="795" on="1"/>
        <pt x="537" y="815" on="1"/>
        <pt x="613" y="916" on="1"/>
        <pt x="700" y="916" on="1"/>
      </contour>
      <contour>
        <pt x="500" y="710" on="1"/>
        <pt x="966" y="710" on="1"/>
        <pt x="949" y="630" on="1"/>
        <pt x="596" y="630" on="1"/>
        <pt x="548" y="402" on="1"/>
        <pt x="849" y="402" on="1"/>
        <pt x="832" y="322" on="1"/>
        <pt x="531" y="322" on="1"/>
        <pt x="479" y="80" on="1"/>
        <pt x="840" y="80" on="1"/>
        <pt x="823" y="0" on="1"/>
        <pt x="373" y="0" on="1"/>
        <pt x="418" y="208" on="1"/>
        <pt x="183" y="208" on="1"/>
        <pt x="18" y="0" on="1"/>
        <pt x="-80" y="0" on="1"/>
      </contour>
      <contour>
        <pt x="428" y="288" on="1"/>
        <pt x="496" y="605" on="1"/>
        <pt x="240" y="288" on="1"/>
      </contour>
    </TTGlyph>
    <TTGlyph name="Aacute" xMin="-47" yMin="0" xMax="578" yMax="916">
      <contour>
        <pt x="378" y="710" on="1"/>
        <pt x="455" y="710" on="1"/>
        <pt x="578" y="0" on="1"/>
        <pt x="482" y="0" on="1"/>
        <pt x="448" y="208" on="1"/>
        <pt x="170" y="208" on="1"/>
        <pt x="49" y="0" on="1"/>
        <pt x="-47" y="0" on="1"/>
      </contour>
      <contour>
        <pt x="444" y="278" on="1"/>
        <pt x="395" y="606" on="1"/>
        <pt x="202" y="278" on="1"/>
      </contour>
      <contour>
        <pt x="432" y="795" on="1"/>
        <pt x="378" y="815" on="1"/>
        <pt x="454" y="916" on="1"/>
        <pt x="541" y="916" on="1"/>
      </contour>
    </TTGlyph>
    <TTGlyph name="Abreve" xMin="-47" yMin="0" xMax="578" yMax="916">
      <contour>
        <pt x="378" y="710" on="1"/>
        <pt x="455" y="710" on="1"/>
        <pt x="578" y="0" on="1"/>
        <pt x="482" y="0" on="1"/>
        <pt x="448" y="208" on="1"/>
        <pt x="170" y="208" on="1"/>
        <pt x="49" y="0" on="1"/>
        <pt x="-47" y="0" on="1"/>
      </contour>
      <contour>
        <pt x="444" y="278" on="1"/>
        <pt x="395" y="606" on="1"/>
        <pt x="202" y="278" on="1"/>
      </contour>
      <contour>
        <pt x="438" y="848" on="1"/>
        <pt x="458" y="848" on="0"/>
        <pt x="498" y="887" on="0"/>
        <pt x="507" y="916" on="1"/>
        <pt x="557" y="916" on="1"/>
        <pt x="552" y="892" on="0"/>
        <pt x="527" y="852" on="0"/>
        <pt x="493" y="822" on="0"/>
        <pt x="451" y="805" on="0"/>
        <pt x="429" y="805" on="1"/>
        <pt x="390" y="805" on="0"/>
        <pt x="344" y="852" on="0"/>
        <pt x="344" y="890" on="1"/>
        <pt x="344" y="902" on="0"/>
        <pt x="347" y="916" on="1"/>
        <pt x="398" y="916" on="1"/>
        <pt x="397" y="911" on="0"/>
        <pt x="396" y="904" on="0"/>
        <pt x="396" y="899" on="1"/>
        <pt x="396" y="878" on="0"/>
        <pt x="419" y="848" on="0"/>
      </contour>
    </TTGlyph>
    <TTGlyph name="Acircumflex" xMin="-47" yMin="0" xMax="578" yMax="916">
      <contour>
        <pt x="378" y="710" on="1"/>
        <pt x="455" y="710" on="1"/>
        <pt x="578" y="0" on="1"/>
        <pt x="482" y="0" on="1"/>
        <pt x="448" y="208" on="1"/>
        <pt x="170" y="208" on="1"/>
        <pt x="49" y="0" on="1"/>
        <pt x="-47" y="0" on="1"/>
      </contour>
      <contour>
        <pt x="444" y="278" on="1"/>
        <pt x="395" y="606" on="1"/>
        <pt x="202" y="278" on="1"/>
      </contour>
      <contour>
        <pt x="312" y="826" on="1"/>
        <pt x="428" y="916" on="1"/>
        <pt x="492" y="916" on="1"/>
        <pt x="569" y="826" on="1"/>
        <pt x="516" y="802" on="1"/>
        <pt x="449" y="865" on="1"/>
        <pt x="355" y="802" on="1"/>
      </contour>
    </TTGlyph>
    <TTGlyph name="Adblgrave" xMin="-47" yMin="0" xMax="578" yMax="918">
      <contour>
        <pt x="378" y="710" on="1"/>
        <pt x="455" y="710" on="1"/>
        <pt x="578" y="0" on="1"/>
        <pt x="482" y="0" on="1"/>
        <pt x="448" y="208" on="1"/>
        <pt x="170" y="208" on="1"/>
        <pt x="49" y="0" on="1"/>
        <pt x="-47" y="0" on="1"/>
      </contour>
      <contour>
        <pt x="444" y="278" on="1"/>
        <pt x="395" y="606" on="1"/>
        <pt x="202" y="278" on="1"/>
      </contour>
      <contour>
        <pt x="434" y="918" on="1"/>
        <pt x="508" y="918" on="1"/>
        <pt x="538" y="817" on="1"/>
        <pt x="488" y="797" on="1"/>
      </contour>
      <contour>
        <pt x="302" y="918" on="1"/>
        <pt x="377" y="918" on="1"/>
        <pt x="406" y="817" on="1"/>
        <pt x="356" y="797" on="1"/>
      </contour>
    </TTGlyph>
    <TTGlyph name="Adieresis" xMin="-47" yMin="0" xMax="578" yMax="913">
      <contour>
        <pt x="378" y="710" on="1"/>
        <pt x="455" y="710" on="1"/>
        <pt x="578" y="0" on="1"/>
        <pt x="482" y="0" on="1"/>
        <pt x="448" y="208" on="1"/>
        <pt x="170" y="208" on="1"/>
        <pt x="49" y="0" on="1"/>
        <pt x="-47" y="0" on="1"/>
      </contour>
      <contour>
        <pt x="444" y="278" on="1"/>
        <pt x="395" y="606" on="1"/>
        <pt x="202" y="278" on="1"/>
      </contour>
      <contour>
        <pt x="309" y="811" on="1"/>
        <pt x="331" y="913" on="1"/>
        <pt x="405" y="913" on="1"/>
        <pt x="383" y="811" on="1"/>
      </contour>
      <contour>
        <pt x="466" y="811" on="1"/>
        <pt x="488" y="913" on="1"/>
        <pt x="561" y="913" on="1"/>
        <pt x="540" y="811" on="1"/>
      </contour>
    </TTGlyph>
    <TTGlyph name="Agrave" xMin="-47" yMin="0" xMax="578" yMax="917">
      <contour>
        <pt x="378" y="710" on="1"/>
        <pt x="455" y="710" on="1"/>
        <pt x="578" y="0" on="1"/>
        <pt x="482" y="0" on="1"/>
        <pt x="448" y="208" on="1"/>
        <pt x="170" y="208" on="1"/>
        <pt x="49" y="0" on="1"/>
        <pt x="-47" y="0" on="1"/>
      </contour>
      <contour>
        <pt x="444" y="278" on="1"/>
        <pt x="395" y="606" on="1"/>
        <pt x="202" y="278" on="1"/>
      </contour>
      <contour>
        <pt x="340" y="917" on="1"/>
        <pt x="426" y="917" on="1"/>
        <pt x="460" y="816" on="1"/>
        <pt x="399" y="796" on="1"/>
      </contour>
    </TTGlyph>
    <TTGlyph name="Ainvertedbreve" xMin="-47" yMin="0" xMax="578" yMax="916">
      <contour>
        <pt x="378" y="710" on="1"/>
        <pt x="455" y="710" on="1"/>
        <pt x="578" y="0" on="1"/>
        <pt x="482" y="0" on="1"/>
        <pt x="448" y="208" on="1"/>
        <pt x="170" y="208" on="1"/>
        <pt x="49" y="0" on="1"/>
        <pt x="-47" y="0" on="1"/>
      </contour>
      <contour>
        <pt x="444" y="278" on="1"/>
        <pt x="395" y="606" on="1"/>
        <pt x="202" y="278" on="1"/>
      </contour>
      <contour>
        <pt x="328" y="805" on="1"/>
        <pt x="333" y="829" on="0"/>
        <pt x="357" y="869" on="0"/>
        <pt x="392" y="899" on="0"/>
        <pt x="433" y="916" on="0"/>
        <pt x="455" y="916" on="1"/>
        <pt x="493" y="916" on="0"/>
        <pt x="540" y="865" on="0"/>
        <pt x="540" y="829" on="1"/>
        <pt x="540" y="817" on="0"/>
        <pt x="537" y="805" on="1"/>
        <pt x="488" y="805" on="1"/>
        <pt x="489" y="812" on="0"/>
        <pt x="490" y="824" on="0"/>
        <pt x="490" y="830" on="1"/>
        <pt x="490" y="873" on="0"/>
        <pt x="449" y="873" on="1"/>
        <pt x="417" y="873" on="0"/>
        <pt x="385" y="834" on="0"/>
        <pt x="378" y="805" on="1"/>
      </contour>
    </TTGlyph>
    <TTGlyph name="Amacron" xMin="-47" yMin="0" xMax="591" yMax="896">
      <contour>
        <pt x="378" y="710" on="1"/>
        <pt x="455" y="710" on="1"/>
        <pt x="578" y="0" on="1"/>
        <pt x="482" y="0" on="1"/>
        <pt x="448" y="208" on="1"/>
        <pt x="170" y="208" on="1"/>
        <pt x="49" y="0" on="1"/>
        <pt x="-47" y="0" on="1"/>
      </contour>
      <contour>
        <pt x="444" y="278" on="1"/>
        <pt x="395" y="606" on="1"/>
        <pt x="202" y="278" on="1"/>
      </contour>
      <contour>
        <pt x="300" y="838" on="1"/>
        <pt x="312" y="896" on="1"/>
        <pt x="591" y="896" on="1"/>
        <pt x="578" y="838" on="1"/>
      </contour>
    </TTGlyph>
    <TTGlyph name="Aogonek" xMin="-47" yMin="-181" xMax="578" yMax="710">
      <contour>
        <pt x="494" y="-181" on="1"/>
        <pt x="460" y="-174" on="0"/>
        <pt x="426" y="-139" on="0"/>
        <pt x="426" y="-116" on="1"/>
        <pt x="426" y="-87" on="0"/>
        <pt x="472" y="-30" on="0"/>
        <pt x="523" y="0" on="1"/>
        <pt x="482" y="0" on="1"/>
        <pt x="448" y="208" on="1"/>
        <pt x="170" y="208" on="1"/>
        <pt x="49" y="0" on="1"/>
        <pt x="-47" y="0" on="1"/>
        <pt x="378" y="710" on="1"/>
        <pt x="455" y="710" on="1"/>
        <pt x="578" y="0" on="1"/>
        <pt x="524" y="-31" on="0"/>
        <pt x="480" y="-76" on="0"/>
        <pt x="480" y="-99" on="1"/>
        <pt x="480" y="-131" on="0"/>
        <pt x="525" y="-135" on="1"/>
      </contour>
      <contour>
        <pt x="444" y="278" on="1"/>
        <pt x="395" y="606" on="1"/>
        <pt x="202" y="278" on="1"/>
      </contour>
    </TTGlyph>
    <TTGlyph name="Aring" xMin="-47" yMin="0" xMax="578" yMax="916">
      <contour>
        <pt x="378" y="710" on="1"/>
        <pt x="455" y="710" on="1"/>
        <pt x="578" y="0" on="1"/>
        <pt x="482" y="0" on="1"/>
        <pt x="448" y="208" on="1"/>
        <pt x="170" y="208" on="1"/>
        <pt x="49" y="0" on="1"/>
        <pt x="-47" y="0" on="1"/>
      </contour>
      <contour>
        <pt x="444" y="278" on="1"/>
        <pt x="395" y="606" on="1"/>
        <pt x="202" y="278" on="1"/>
      </contour>
      <contour>
        <pt x="364" y="834" on="1"/>
        <pt x="364" y="871" on="0"/>
        <pt x="420" y="916" on="0"/>
        <pt x="459" y="916" on="1"/>
        <pt x="490" y="916" on="0"/>
        <pt x="524" y="886" on="0"/>
        <pt x="524" y="860" on="1"/>
        <pt x="524" y="824" on="0"/>
        <pt x="470" y="778" on="0"/>
        <pt x="429" y="778" on="1"/>
        <pt x="399" y="778" on="0"/>
        <pt x="364" y="808" on="0"/>
      </contour>
      <contour>
        <pt x="452" y="885" on="1"/>
        <pt x="434" y="885" on="0"/>
        <pt x="405" y="860" on="0"/>
        <pt x="405" y="840" on="1"/>
        <pt x="405" y="827" on="0"/>
        <pt x="422" y="809" on="0"/>
        <pt x="436" y="809" on="1"/>
        <pt x="453" y="809" on="0"/>
        <pt x="484" y="834" on="0"/>
        <pt x="484" y="854" on="1"/>
        <pt x="484" y="868" on="0"/>
        <pt x="466" y="885" on="0"/>
      </contour>
    </TTGlyph>
    <TTGlyph name="Aringacute" xMin="-47" yMin="0" xMax="583" yMax="918">
      <contour>
        <pt x="486" y="802" on="1"/>
        <pt x="504" y="787" on="0"/>
        <pt x="504" y="761" on="1"/>
        <pt x="504" y="737" on="0"/>
        <pt x="479" y="701" on="0"/>
        <pt x="458" y="690" on="1"/>
        <pt x="578" y="0" on="1"/>
        <pt x="482" y="0" on="1"/>
        <pt x="448" y="208" on="1"/>
        <pt x="170" y="208" on="1"/>
        <pt x="49" y="0" on="1"/>
        <pt x="-47" y="0" on="1"/>
        <pt x="366" y="690" on="1"/>
        <pt x="344" y="704" on="0"/>
        <pt x="344" y="735" on="1"/>
        <pt x="344" y="769" on="0"/>
        <pt x="393" y="813" on="0"/>
        <pt x="428" y="816" on="1"/>
        <pt x="496" y="918" on="1"/>
        <pt x="583" y="918" on="1"/>
      </contour>
      <contour>
        <pt x="444" y="278" on="1"/>
        <pt x="395" y="606" on="1"/>
        <pt x="202" y="278" on="1"/>
      </contour>
      <contour>
        <pt x="432" y="786" on="1"/>
        <pt x="414" y="786" on="0"/>
        <pt x="385" y="761" on="0"/>
        <pt x="385" y="741" on="1"/>
        <pt x="385" y="728" on="0"/>
        <pt x="402" y="710" on="0"/>
        <pt x="416" y="710" on="1"/>
        <pt x="433" y="710" on="0"/>
        <pt x="464" y="735" on="0"/>
        <pt x="464" y="755" on="1"/>
        <pt x="464" y="769" on="0"/>
        <pt x="446" y="786" on="0"/>
      </contour>
    </TTGlyph>
    <TTGlyph name="Atilde" xMin="-47" yMin="0" xMax="619" yMax="916">
      <contour>
        <pt x="378" y="710" on="1"/>
        <pt x="455" y="710" on="1"/>
        <pt x="578" y="0" on="1"/>
        <pt x="482" y="0" on="1"/>
        <pt x="448" y="208" on="1"/>
        <pt x="170" y="208" on="1"/>
        <pt x="49" y="0" on="1"/>
        <pt x="-47" y="0" on="1"/>
      </contour>
      <contour>
        <pt x="444" y="278" on="1"/>
        <pt x="395" y="606" on="1"/>
        <pt x="202" y="278" on="1"/>
      </contour>
      <contour>
        <pt x="495" y="813" on="1"/>
        <pt x="474" y="813" on="0"/>
        <pt x="444" y="826" on="0"/>
        <pt x="420" y="842" on="0"/>
        <pt x="396" y="855" on="0"/>
        <pt x="381" y="855" on="1"/>
        <pt x="365" y="855" on="0"/>
        <pt x="344" y="841" on="0"/>
        <pt x="331" y="824" on="0"/>
        <pt x="325" y="808" on="0"/>
        <pt x="325" y="807" on="1"/>
        <pt x="273" y="807" on="1"/>
        <pt x="274" y="813" on="0"/>
        <pt x="290" y="847" on="0"/>
        <pt x="320" y="883" on="0"/>
        <pt x="362" y="910" on="0"/>
        <pt x="391" y="910" on="1"/>
        <pt x="411" y="910" on="0"/>
        <pt x="439" y="897" on="0"/>
        <pt x="462" y="880" on="0"/>
        <pt x="487" y="867" on="0"/>
        <pt x="504" y="867" on="1"/>
        <pt x="522" y="867" on="0"/>
        <pt x="546" y="881" on="0"/>
        <pt x="561" y="899" on="0"/>
        <pt x="568" y="914" on="0"/>
        <pt x="568" y="916" on="1"/>
        <pt x="619" y="916" on="1"/>
        <pt x="618" y="910" on="0"/>
        <pt x="602" y="877" on="0"/>
        <pt x="571" y="841" on="0"/>
        <pt x="526" y="813" on="0"/>
      </contour>
    </TTGlyph>
    <TTGlyph name="B" xMin="20" yMin="0" xMax="629" yMax="710">
      <contour>
        <pt x="171" y="710" on="1"/>
        <pt x="509" y="710" on="1"/>
        <pt x="539" y="710" on="0"/>
        <pt x="584" y="685" on="0"/>
        <pt x="614" y="645" on="0"/>
        <pt x="629" y="593" on="0"/>
        <pt x="629" y="565" on="1"/>
        <pt x="629" y="533" on="0"/>
        <pt x="609" y="473" on="0"/>
        <pt x="573" y="420" on="0"/>
        <pt x="523" y="377" on="0"/>
        <pt x="492" y="364" on="1"/>
        <pt x="537" y="349" on="0"/>
        <pt x="584" y="272" on="0"/>
        <pt x="584" y="221" on="1"/>
        <pt x="584" y="171" on="0"/>
        <pt x="543" y="90" on="0"/>
        <pt x="475" y="32" on="0"/>
        <pt x="387" y="0" on="0"/>
        <pt x="341" y="0" on="1"/>
        <pt x="20" y="0" on="1"/>
      </contour>
      <contour>
        <pt x="357" y="78" on="1"/>
        <pt x="383" y="78" on="0"/>
        <pt x="433" y="102" on="0"/>
        <pt x="472" y="143" on="0"/>
        <pt x="495" y="195" on="0"/>
        <pt x="495" y="224" on="1"/>
        <pt x="495" y="264" on="0"/>
        <pt x="453" y="322" on="0"/>
        <pt x="416" y="322" on="1"/>
        <pt x="178" y="322" on="1"/>
        <pt x="127" y="78" on="1"/>
      </contour>
      <contour>
        <pt x="405" y="395" on="1"/>
        <pt x="430" y="395" on="0"/>
        <pt x="477" y="418" on="0"/>
        <pt x="513" y="458" on="0"/>
        <pt x="535" y="510" on="0"/>
        <pt x="535" y="539" on="1"/>
        <pt x="535" y="579" on="0"/>
        <pt x="496" y="632" on="0"/>
        <pt x="461" y="632" on="1"/>
        <pt x="244" y="632" on="1"/>
        <pt x="194" y="395" on="1"/>
      </contour>
    </TTGlyph>
    <TTGlyph name="B.sc" xMin="14" yMin="0" xMax="523" yMax="551">
      <contour>
        <pt x="131" y="551" on="1"/>
        <pt x="420" y="551" on="1"/>
        <pt x="445" y="551" on="0"/>
        <pt x="484" y="532" on="0"/>
        <pt x="510" y="500" on="0"/>
        <pt x="523" y="458" on="0"/>
        <pt x="523" y="436" on="1"/>
        <pt x="523" y="412" on="0"/>
        <pt x="507" y="365" on="0"/>
        <pt x="477" y="325" on="0"/>
        <pt x="436" y="293" on="0"/>
        <pt x="411" y="283" on="1"/>
        <pt x="449" y="271" on="0"/>
        <pt x="491" y="212" on="0"/>
        <pt x="491" y="170" on="1"/>
        <pt x="491" y="131" on="0"/>
        <pt x="457" y="68" on="0"/>
        <pt x="400" y="24" on="0"/>
        <pt x="326" y="0" on="0"/>
        <pt x="286" y="0" on="1"/>
        <pt x="14" y="0" on="1"/>
      </contour>
      <contour>
        <pt x="300" y="69" on="1"/>
        <pt x="321" y="69" on="0"/>
        <pt x="361" y="86" on="0"/>
        <pt x="392" y="115" on="0"/>
        <pt x="411" y="152" on="0"/>
        <pt x="411" y="173" on="1"/>
        <pt x="411" y="202" on="0"/>
        <pt x="375" y="246" on="0"/>
        <pt x="344" y="246" on="1"/>
        <pt x="146" y="246" on="1"/>
        <pt x="109" y="69" on="1"/>
      </contour>
      <contour>
        <pt x="336" y="311" on="1"/>
        <pt x="356" y="311" on="0"/>
        <pt x="394" y="327" on="0"/>
        <pt x="423" y="354" on="0"/>
        <pt x="440" y="392" on="0"/>
        <pt x="440" y="413" on="1"/>
        <pt x="440" y="443" on="0"/>
        <pt x="405" y="481" on="0"/>
        <pt x="376" y="481" on="1"/>
        <pt x="196" y="481" on="1"/>
        <pt x="160" y="311" on="1"/>
      </contour>
    </TTGlyph>
    <TTGlyph name="C" xMin="45" yMin="-6" xMax="670" yMax="714">
      <contour>
        <pt x="293" y="-6" on="1"/>
        <pt x="234" y="-6" on="0"/>
        <pt x="141" y="45" on="0"/>
        <pt x="78" y="129" on="0"/>
        <pt x="45" y="237" on="0"/>
        <pt x="45" y="294" on="1"/>
        <pt x="45" y="367" on="0"/>
        <pt x="106" y="517" on="0"/>
        <pt x="214" y="638" on="0"/>
        <pt x="363" y="714" on="0"/>
        <pt x="451" y="714" on="1"/>
        <pt x="496" y="714" on="0"/>
        <pt x="569" y="691" on="0"/>
        <pt x="625" y="650" on="0"/>
        <pt x="661" y="593" on="0"/>
        <pt x="670" y="559" on="1"/>
        <pt x="589" y="513" on="1"/>
        <pt x="581" y="547" on="0"/>
        <pt x="549" y="593" on="0"/>
        <pt x="506" y="621" on="0"/>
        <pt x="455" y="633" on="0"/>
        <pt x="430" y="633" on="1"/>
        <pt x="365" y="633" on="0"/>
        <pt x="257" y="571" on="0"/>
        <pt x="179" y="474" on="0"/>
        <pt x="136" y="356" on="0"/>
        <pt x="136" y="299" on="1"/>
        <pt x="136" y="254" on="0"/>
        <pt x="160" y="172" on="0"/>
        <pt x="206" y="111" on="0"/>
        <pt x="272" y="75" on="0"/>
        <pt x="314" y="75" on="1"/>
        <pt x="340" y="75" on="0"/>
        <pt x="399" y="89" on="0"/>
        <pt x="456" y="120" on="0"/>
        <pt x="510" y="167" on="0"/>
        <pt x="531" y="200" on="1"/>
        <pt x="597" y="159" on="1"/>
        <pt x="573" y="119" on="0"/>
        <pt x="501" y="58" on="0"/>
        <pt x="419" y="16" on="0"/>
        <pt x="332" y="-6" on="0"/>
      </contour>
    </TTGlyph>
    <TTGlyph name="C.sc" xMin="30" yMin="-5" xMax="558" yMax="554">
      <contour>
        <pt x="246" y="-5" on="1"/>
        <pt x="195" y="-5" on="0"/>
        <pt x="114" y="35" on="0"/>
        <pt x="59" y="101" on="0"/>
        <pt x="30" y="187" on="0"/>
        <pt x="30" y="232" on="1"/>
        <pt x="30" y="288" on="0"/>
        <pt x="81" y="403" on="0"/>
        <pt x="171" y="496" on="0"/>
        <pt x="295" y="554" on="0"/>
        <pt x="369" y="554" on="1"/>
        <pt x="446" y="554" on="0"/>
        <pt x="543" y="488" on="0"/>
        <pt x="558" y="434" on="1"/>
        <pt x="487" y="392" on="1"/>
        <pt x="480" y="417" on="0"/>
        <pt x="451" y="452" on="0"/>
        <pt x="414" y="473" on="0"/>
        <pt x="372" y="482" on="0"/>
        <pt x="351" y="482" on="1"/>
        <pt x="297" y="482" on="0"/>
        <pt x="209" y="437" on="0"/>
        <pt x="146" y="367" on="0"/>
        <pt x="112" y="280" on="0"/>
        <pt x="112" y="238" on="1"/>
        <pt x="112" y="203" on="0"/>
        <pt x="133" y="141" on="0"/>
        <pt x="172" y="95" on="0"/>
        <pt x="229" y="67" on="0"/>
        <pt x="265" y="67" on="1"/>
        <pt x="309" y="67" on="0"/>
        <pt x="409" y="111" on="0"/>
        <pt x="444" y="161" on="1"/>
        <pt x="502" y="123" on="1"/>
        <pt x="482" y="92" on="0"/>
        <pt x="422" y="45" on="0"/>
        <pt x="353" y="12" on="0"/>
        <pt x="279" y="-5" on="0"/>
      </contour>
    </TTGlyph>
    <TTGlyph name="Cacute" xMin="45" yMin="-6" xMax="670" yMax="916">
      <contour>
        <pt x="471" y="795" on="1"/>
        <pt x="417" y="815" on="1"/>
        <pt x="493" y="916" on="1"/>
        <pt x="580" y="916" on="1"/>
      </contour>
      <contour>
        <pt x="293" y="-6" on="1"/>
        <pt x="234" y="-6" on="0"/>
        <pt x="141" y="45" on="0"/>
        <pt x="78" y="129" on="0"/>
        <pt x="45" y="237" on="0"/>
        <pt x="45" y="294" on="1"/>
        <pt x="45" y="367" on="0"/>
        <pt x="106" y="517" on="0"/>
        <pt x="214" y="638" on="0"/>
        <pt x="363" y="714" on="0"/>
        <pt x="451" y="714" on="1"/>
        <pt x="496" y="714" on="0"/>
        <pt x="569" y="691" on="0"/>
        <pt x="625" y="650" on="0"/>
        <pt x="661" y="593" on="0"/>
        <pt x="670" y="559" on="1"/>
        <pt x="589" y="513" on="1"/>
        <pt x="581" y="547" on="0"/>
        <pt x="549" y="593" on="0"/>
        <pt x="506" y="621" on="0"/>
        <pt x="455" y="633" on="0"/>
        <pt x="430" y="633" on="1"/>
        <pt x="365" y="633" on="0"/>
        <pt x="257" y="571" on="0"/>
        <pt x="179" y="474" on="0"/>
        <pt x="136" y="356" on="0"/>
        <pt x="136" y="299" on="1"/>
        <pt x="136" y="254" on="0"/>
        <pt x="160" y="172" on="0"/>
        <pt x="206" y="111" on="0"/>
        <pt x="272" y="75" on="0"/>
        <pt x="314" y="75" on="1"/>
        <pt x="340" y="75" on="0"/>
        <pt x="399" y="89" on="0"/>
        <pt x="456" y="120" on="0"/>
        <pt x="510" y="167" on="0"/>
        <pt x="531" y="200" on="1"/>
        <pt x="597" y="159" on="1"/>
        <pt x="573" y="119" on="0"/>
        <pt x="501" y="58" on="0"/>
        <pt x="419" y="16" on="0"/>
        <pt x="332" y="-6" on="0"/>
      </contour>
    </TTGlyph>
    <TTGlyph name="Ccaron" xMin="45" yMin="-6" xMax="670" yMax="916">
      <contour>
        <pt x="367" y="892" on="1"/>
        <pt x="420" y="916" on="1"/>
        <pt x="487" y="853" on="1"/>
        <pt x="581" y="916" on="1"/>
        <pt x="624" y="892" on="1"/>
        <pt x="508" y="802" on="1"/>
        <pt x="444" y="802" on="1"/>
      </contour>
      <contour>
        <pt x="293" y="-6" on="1"/>
        <pt x="234" y="-6" on="0"/>
        <pt x="141" y="45" on="0"/>
        <pt x="78" y="129" on="0"/>
        <pt x="45" y="237" on="0"/>
        <pt x="45" y="294" on="1"/>
        <pt x="45" y="367" on="0"/>
        <pt x="106" y="517" on="0"/>
        <pt x="214" y="638" on="0"/>
        <pt x="363" y="714" on="0"/>
        <pt x="451" y="714" on="1"/>
        <pt x="496" y="714" on="0"/>
        <pt x="569" y="691" on="0"/>
        <pt x="625" y="650" on="0"/>
        <pt x="661" y="593" on="0"/>
        <pt x="670" y="559" on="1"/>
        <pt x="589" y="513" on="1"/>
        <pt x="581" y="547" on="0"/>
        <pt x="549" y="593" on="0"/>
        <pt x="506" y="621" on="0"/>
        <pt x="455" y="633" on="0"/>
        <pt x="430" y="633" on="1"/>
        <pt x="365" y="633" on="0"/>
        <pt x="257" y="571" on="0"/>
        <pt x="179" y="474" on="0"/>
        <pt x="136" y="356" on="0"/>
        <pt x="136" y="299" on="1"/>
        <pt x="136" y="254" on="0"/>
        <pt x="160" y="172" on="0"/>
        <pt x="206" y="111" on="0"/>
        <pt x="272" y="75" on="0"/>
        <pt x="314" y="75" on="1"/>
        <pt x="340" y="75" on="0"/>
        <pt x="399" y="89" on="0"/>
        <pt x="456" y="120" on="0"/>
        <pt x="510" y="167" on="0"/>
        <pt x="531" y="200" on="1"/>
        <pt x="597" y="159" on="1"/>
        <pt x="573" y="119" on="0"/>
        <pt x="501" y="58" on="0"/>
        <pt x="419" y="16" on="0"/>
        <pt x="332" y="-6" on="0"/>
      </contour>
    </TTGlyph>
    <TTGlyph name="Ccedilla" xMin="41" yMin="-182" xMax="666" yMax="714">
      <contour>
        <pt x="177" y="-126" on="1"/>
        <pt x="188" y="-133" on="0"/>
        <pt x="231" y="-145" on="0"/>
        <pt x="256" y="-145" on="1"/>
        <pt x="285" y="-145" on="0"/>
        <pt x="319" y="-125" on="0"/>
        <pt x="319" y="-103" on="1"/>
        <pt x="319" y="-87" on="0"/>
        <pt x="296" y="-75" on="0"/>
        <pt x="277" y="-75" on="1"/>
        <pt x="257" y="-75" on="0"/>
        <pt x="211" y="-84" on="0"/>
        <pt x="198" y="-88" on="1"/>
        <pt x="258" y="-4" on="1"/>
        <pt x="206" y="3" on="0"/>
        <pt x="125" y="57" on="0"/>
        <pt x="70" y="139" on="0"/>
        <pt x="41" y="240" on="0"/>
        <pt x="41" y="294" on="1"/>
        <pt x="41" y="367" on="0"/>
        <pt x="102" y="517" on="0"/>
        <pt x="210" y="638" on="0"/>
        <pt x="359" y="714" on="0"/>
        <pt x="447" y="714" on="1"/>
        <pt x="492" y="714" on="0"/>
        <pt x="565" y="691" on="0"/>
        <pt x="621" y="650" on="0"/>
        <pt x="657" y="593" on="0"/>
        <pt x="666" y="559" on="1"/>
        <pt x="585" y="513" on="1"/>
        <pt x="577" y="547" on="0"/>
        <pt x="545" y="593" on="0"/>
        <pt x="502" y="621" on="0"/>
        <pt x="451" y="633" on="0"/>
        <pt x="426" y="633" on="1"/>
        <pt x="361" y="633" on="0"/>
        <pt x="253" y="571" on="0"/>
        <pt x="175" y="474" on="0"/>
        <pt x="132" y="356" on="0"/>
        <pt x="132" y="299" on="1"/>
        <pt x="132" y="254" on="0"/>
        <pt x="156" y="172" on="0"/>
        <pt x="202" y="111" on="0"/>
        <pt x="268" y="75" on="0"/>
        <pt x="310" y="75" on="1"/>
        <pt x="336" y="75" on="0"/>
        <pt x="395" y="89" on="0"/>
        <pt x="452" y="120" on="0"/>
        <pt x="506" y="167" on="0"/>
        <pt x="527" y="200" on="1"/>
        <pt x="593" y="159" on="1"/>
        <pt x="569" y="121" on="0"/>
        <pt x="501" y="61" on="0"/>
        <pt x="423" y="19" on="0"/>
        <pt x="340" y="-4" on="0"/>
        <pt x="301" y="-5" on="1"/>
        <pt x="267" y="-48" on="1"/>
        <pt x="275" y="-45" on="0"/>
        <pt x="294" y="-43" on="0"/>
        <pt x="302" y="-43" on="1"/>
        <pt x="331" y="-43" on="0"/>
        <pt x="365" y="-68" on="0"/>
        <pt x="365" y="-94" on="1"/>
        <pt x="365" y="-133" on="0"/>
        <pt x="302" y="-182" on="0"/>
        <pt x="241" y="-182" on="1"/>
        <pt x="212" y="-182" on="0"/>
        <pt x="166" y="-171" on="0"/>
        <pt x="149" y="-163" on="1"/>
      </contour>
    </TTGlyph>
    <TTGlyph name="Ccircumflex" xMin="45" yMin="-6" xMax="670" yMax="916">
      <contour>
        <pt x="357" y="826" on="1"/>
        <pt x="473" y="916" on="1"/>
        <pt x="537" y="916" on="1"/>
        <pt x="614" y="826" on="1"/>
        <pt x="561" y="802" on="1"/>
        <pt x="494" y="865" on="1"/>
        <pt x="400" y="802" on="1"/>
      </contour>
      <contour>
        <pt x="293" y="-6" on="1"/>
        <pt x="234" y="-6" on="0"/>
        <pt x="141" y="45" on="0"/>
        <pt x="78" y="129" on="0"/>
        <pt x="45" y="237" on="0"/>
        <pt x="45" y="294" on="1"/>
        <pt x="45" y="367" on="0"/>
        <pt x="106" y="517" on="0"/>
        <pt x="214" y="638" on="0"/>
        <pt x="363" y="714" on="0"/>
        <pt x="451" y="714" on="1"/>
        <pt x="496" y="714" on="0"/>
        <pt x="569" y="691" on="0"/>
        <pt x="625" y="650" on="0"/>
        <pt x="661" y="593" on="0"/>
        <pt x="670" y="559" on="1"/>
        <pt x="589" y="513" on="1"/>
        <pt x="581" y="547" on="0"/>
        <pt x="549" y="593" on="0"/>
        <pt x="506" y="621" on="0"/>
        <pt x="455" y="633" on="0"/>
        <pt x="430" y="633" on="1"/>
        <pt x="365" y="633" on="0"/>
        <pt x="257" y="571" on="0"/>
        <pt x="179" y="474" on="0"/>
        <pt x="136" y="356" on="0"/>
        <pt x="136" y="299" on="1"/>
        <pt x="136" y="254" on="0"/>
        <pt x="160" y="172" on="0"/>
        <pt x="206" y="111" on="0"/>
        <pt x="272" y="75" on="0"/>
        <pt x="314" y="75" on="1"/>
        <pt x="340" y="75" on="0"/>
        <pt x="399" y="89" on="0"/>
        <pt x="456" y="120" on="0"/>
        <pt x="510" y="167" on="0"/>
        <pt x="531" y="200" on="1"/>
        <pt x="597" y="159" on="1"/>
        <pt x="573" y="119" on="0"/>
        <pt x="501" y="58" on="0"/>
        <pt x="419" y="16" on="0"/>
        <pt x="332" y="-6" on="0"/>
      </contour>
    </TTGlyph>
    <TTGlyph name="Cdotaccent" xMin="45" yMin="-6" xMax="670" yMax="916">
      <contour>
        <pt x="293" y="-6" on="1"/>
        <pt x="234" y="-6" on="0"/>
        <pt x="141" y="45" on="0"/>
        <pt x="78" y="129" on="0"/>
        <pt x="45" y="237" on="0"/>
        <pt x="45" y="294" on="1"/>
        <pt x="45" y="367" on="0"/>
        <pt x="106" y="517" on="0"/>
        <pt x="214" y="638" on="0"/>
        <pt x="363" y="714" on="0"/>
        <pt x="451" y="714" on="1"/>
        <pt x="496" y="714" on="0"/>
        <pt x="569" y="691" on="0"/>
        <pt x="625" y="650" on="0"/>
        <pt x="661" y="593" on="0"/>
        <pt x="670" y="559" on="1"/>
        <pt x="589" y="513" on="1"/>
        <pt x="581" y="547" on="0"/>
        <pt x="549" y="593" on="0"/>
        <pt x="506" y="621" on="0"/>
        <pt x="455" y="633" on="0"/>
        <pt x="430" y="633" on="1"/>
        <pt x="365" y="633" on="0"/>
        <pt x="257" y="571" on="0"/>
        <pt x="179" y="474" on="0"/>
        <pt x="136" y="356" on="0"/>
        <pt x="136" y="299" on="1"/>
        <pt x="136" y="254" on="0"/>
        <pt x="160" y="172" on="0"/>
        <pt x="206" y="111" on="0"/>
        <pt x="272" y="75" on="0"/>
        <pt x="314" y="75" on="1"/>
        <pt x="340" y="75" on="0"/>
        <pt x="399" y="89" on="0"/>
        <pt x="456" y="120" on="0"/>
        <pt x="510" y="167" on="0"/>
        <pt x="531" y="200" on="1"/>
        <pt x="597" y="159" on="1"/>
        <pt x="573" y="119" on="0"/>
        <pt x="501" y="58" on="0"/>
        <pt x="419" y="16" on="0"/>
        <pt x="332" y="-6" on="0"/>
      </contour>
      <contour>
        <pt x="441" y="810" on="1"/>
        <pt x="464" y="916" on="1"/>
        <pt x="543" y="916" on="1"/>
        <pt x="521" y="810" on="1"/>
      </contour>
    </TTGlyph>
    <TTGlyph name="D" xMin="20" yMin="0" xMax="668" yMax="710">
      <contour>
        <pt x="171" y="710" on="1"/>
        <pt x="406" y="710" on="1"/>
        <pt x="473" y="710" on="0"/>
        <pt x="572" y="668" on="0"/>
        <pt x="636" y="594" on="0"/>
        <pt x="668" y="494" on="0"/>
        <pt x="668" y="437" on="1"/>
        <pt x="668" y="343" on="0"/>
        <pt x="606" y="183" on="0"/>
        <pt x="495" y="66" on="0"/>
        <pt x="344" y="0" on="0"/>
        <pt x="255" y="0" on="1"/>
        <pt x="20" y="0" on="1"/>
      </contour>
      <contour>
        <pt x="272" y="80" on="1"/>
        <pt x="342" y="80" on="0"/>
        <pt x="454" y="136" on="0"/>
        <pt x="533" y="231" on="0"/>
        <pt x="575" y="355" on="0"/>
        <pt x="575" y="423" on="1"/>
        <pt x="575" y="468" on="0"/>
        <pt x="551" y="544" on="0"/>
        <pt x="505" y="599" on="0"/>
        <pt x="435" y="630" on="0"/>
        <pt x="389" y="630" on="1"/>
        <pt x="244" y="630" on="1"/>
        <pt x="127" y="80" on="1"/>
      </contour>
    </TTGlyph>
    <TTGlyph name="D.sc" xMin="14" yMin="0" xMax="562" yMax="551">
      <contour>
        <pt x="131" y="551" on="1"/>
        <pt x="333" y="551" on="1"/>
        <pt x="391" y="551" on="0"/>
        <pt x="478" y="517" on="0"/>
        <pt x="534" y="459" on="0"/>
        <pt x="562" y="380" on="0"/>
        <pt x="562" y="334" on="1"/>
        <pt x="562" y="261" on="0"/>
        <pt x="510" y="139" on="0"/>
        <pt x="417" y="50" on="0"/>
        <pt x="290" y="0" on="0"/>
        <pt x="216" y="0" on="1"/>
        <pt x="14" y="0" on="1"/>
      </contour>
      <contour>
        <pt x="231" y="71" on="1"/>
        <pt x="289" y="71" on="0"/>
        <pt x="381" y="112" on="0"/>
        <pt x="445" y="181" on="0"/>
        <pt x="479" y="272" on="0"/>
        <pt x="479" y="322" on="1"/>
        <pt x="479" y="392" on="0"/>
        <pt x="398" y="480" on="0"/>
        <pt x="318" y="480" on="1"/>
        <pt x="196" y="480" on="1"/>
        <pt x="109" y="71" on="1"/>
      </contour>
    </TTGlyph>
    <TTGlyph name="Dcaron" xMin="20" yMin="0" xMax="668" yMax="916">
      <contour>
        <pt x="310" y="892" on="1"/>
        <pt x="363" y="916" on="1"/>
        <pt x="430" y="853" on="1"/>
        <pt x="524" y="916" on="1"/>
        <pt x="567" y="892" on="1"/>
        <pt x="451" y="802" on="1"/>
        <pt x="387" y="802" on="1"/>
      </contour>
      <contour>
        <pt x="171" y="710" on="1"/>
        <pt x="406" y="710" on="1"/>
        <pt x="473" y="710" on="0"/>
        <pt x="572" y="668" on="0"/>
        <pt x="636" y="594" on="0"/>
        <pt x="668" y="494" on="0"/>
        <pt x="668" y="437" on="1"/>
        <pt x="668" y="343" on="0"/>
        <pt x="606" y="183" on="0"/>
        <pt x="495" y="66" on="0"/>
        <pt x="344" y="0" on="0"/>
        <pt x="255" y="0" on="1"/>
        <pt x="20" y="0" on="1"/>
      </contour>
      <contour>
        <pt x="272" y="80" on="1"/>
        <pt x="342" y="80" on="0"/>
        <pt x="454" y="136" on="0"/>
        <pt x="533" y="231" on="0"/>
        <pt x="575" y="355" on="0"/>
        <pt x="575" y="423" on="1"/>
        <pt x="575" y="468" on="0"/>
        <pt x="551" y="544" on="0"/>
        <pt x="505" y="599" on="0"/>
        <pt x="435" y="630" on="0"/>
        <pt x="389" y="630" on="1"/>
        <pt x="244" y="630" on="1"/>
        <pt x="127" y="80" on="1"/>
      </contour>
    </TTGlyph>
    <TTGlyph name="Dcroat" xMin="27" yMin="0" xMax="675" yMax="710">
      <contour>
        <pt x="57" y="391" on="1"/>
        <pt x="110" y="391" on="1"/>
        <pt x="178" y="710" on="1"/>
        <pt x="413" y="710" on="1"/>
        <pt x="480" y="710" on="0"/>
        <pt x="579" y="668" on="0"/>
        <pt x="643" y="594" on="0"/>
        <pt x="675" y="494" on="0"/>
        <pt x="675" y="437" on="1"/>
        <pt x="675" y="343" on="0"/>
        <pt x="613" y="183" on="0"/>
        <pt x="502" y="66" on="0"/>
        <pt x="351" y="0" on="0"/>
        <pt x="262" y="0" on="1"/>
        <pt x="27" y="0" on="1"/>
        <pt x="95" y="323" on="1"/>
        <pt x="42" y="323" on="1"/>
      </contour>
      <contour>
        <pt x="279" y="80" on="1"/>
        <pt x="349" y="80" on="0"/>
        <pt x="461" y="136" on="0"/>
        <pt x="540" y="231" on="0"/>
        <pt x="582" y="355" on="0"/>
        <pt x="582" y="423" on="1"/>
        <pt x="582" y="468" on="0"/>
        <pt x="558" y="544" on="0"/>
        <pt x="512" y="599" on="0"/>
        <pt x="442" y="630" on="0"/>
        <pt x="396" y="630" on="1"/>
        <pt x="251" y="630" on="1"/>
        <pt x="200" y="391" on="1"/>
        <pt x="351" y="391" on="1"/>
        <pt x="337" y="323" on="1"/>
        <pt x="185" y="323" on="1"/>
        <pt x="134" y="80" on="1"/>
      </contour>
    </TTGlyph>
    <TTGlyph name="Ddotbelow" xMin="20" yMin="-182" xMax="668" yMax="710">
      <contour>
        <pt x="171" y="710" on="1"/>
        <pt x="406" y="710" on="1"/>
        <pt x="473" y="710" on="0"/>
        <pt x="572" y="668" on="0"/>
        <pt x="636" y="594" on="0"/>
        <pt x="668" y="494" on="0"/>
        <pt x="668" y="437" on="1"/>
        <pt x="668" y="343" on="0"/>
        <pt x="606" y="183" on="0"/>
        <pt x="495" y="66" on="0"/>
        <pt x="344" y="0" on="0"/>
        <pt x="255" y="0" on="1"/>
        <pt x="20" y="0" on="1"/>
      </contour>
      <contour>
        <pt x="272" y="80" on="1"/>
        <pt x="342" y="80" on="0"/>
        <pt x="454" y="136" on="0"/>
        <pt x="533" y="231" on="0"/>
        <pt x="575" y="355" on="0"/>
        <pt x="575" y="423" on="1"/>
        <pt x="575" y="468" on="0"/>
        <pt x="551" y="544" on="0"/>
        <pt x="505" y="599" on="0"/>
        <pt x="435" y="630" on="0"/>
        <pt x="389" y="630" on="1"/>
        <pt x="244" y="630" on="1"/>
        <pt x="127" y="80" on="1"/>
      </contour>
      <contour>
        <pt x="184" y="-182" on="1"/>
        <pt x="207" y="-76" on="1"/>
        <pt x="286" y="-76" on="1"/>
        <pt x="264" y="-182" on="1"/>
      </contour>
    </TTGlyph>
    <TTGlyph name="Delta" xMin="-2" yMin="0" xMax="600" yMax="710">
      <contour>
        <pt x="600" y="67" on="1"/>
        <pt x="600" y="0" on="1"/>
        <pt x="-2" y="0" on="1"/>
        <pt x="-2" y="67" on="1"/>
        <pt x="263" y="710" on="1"/>
        <pt x="337" y="710" on="1"/>
      </contour>
      <contour>
        <pt x="501" y="80" on="1"/>
        <pt x="300" y="606" on="1"/>
        <pt x="98" y="80" on="1"/>
      </contour>
    </TTGlyph>
    <TTGlyph name="E" xMin="20" yMin="0" xMax="621" yMax="710">
      <contour>
        <pt x="171" y="710" on="1"/>
        <pt x="621" y="710" on="1"/>
        <pt x="604" y="630" on="1"/>
        <pt x="244" y="630" on="1"/>
        <pt x="195" y="400" on="1"/>
        <pt x="508" y="400" on="1"/>
        <pt x="492" y="325" on="1"/>
        <pt x="179" y="325" on="1"/>
        <pt x="127" y="80" on="1"/>
        <pt x="496" y="80" on="1"/>
        <pt x="479" y="0" on="1"/>
        <pt x="20" y="0" on="1"/>
      </contour>
    </TTGlyph>
    <TTGlyph name="E.sc" xMin="14" yMin="0" xMax="517" yMax="551">
      <contour>
        <pt x="131" y="551" on="1"/>
        <pt x="517" y="551" on="1"/>
        <pt x="502" y="480" on="1"/>
        <pt x="196" y="480" on="1"/>
        <pt x="161" y="314" on="1"/>
        <pt x="427" y="314" on="1"/>
        <pt x="413" y="248" on="1"/>
        <pt x="147" y="248" on="1"/>
        <pt x="109" y="71" on="1"/>
        <pt x="422" y="71" on="1"/>
        <pt x="407" y="0" on="1"/>
        <pt x="14" y="0" on="1"/>
      </contour>
    </TTGlyph>
    <TTGlyph name="Eacute" xMin="20" yMin="0" xMax="621" yMax="916">
      <contour>
        <pt x="432" y="795" on="1"/>
        <pt x="378" y="815" on="1"/>
        <pt x="454" y="916" on="1"/>
        <pt x="541" y="916" on="1"/>
      </contour>
      <contour>
        <pt x="171" y="710" on="1"/>
        <pt x="621" y="710" on="1"/>
        <pt x="604" y="630" on="1"/>
        <pt x="244" y="630" on="1"/>
        <pt x="195" y="400" on="1"/>
        <pt x="508" y="400" on="1"/>
        <pt x="492" y="325" on="1"/>
        <pt x="179" y="325" on="1"/>
        <pt x="127" y="80" on="1"/>
        <pt x="496" y="80" on="1"/>
        <pt x="479" y="0" on="1"/>
        <pt x="20" y="0" on="1"/>
      </contour>
    </TTGlyph>
    <TTGlyph name="Ebreve" xMin="20" yMin="0" xMax="621" yMax="916">
      <contour>
        <pt x="171" y="710" on="1"/>
        <pt x="621" y="710" on="1"/>
        <pt x="604" y="630" on="1"/>
        <pt x="244" y="630" on="1"/>
        <pt x="195" y="400" on="1"/>
        <pt x="508" y="400" on="1"/>
        <pt x="492" y="325" on="1"/>
        <pt x="179" y="325" on="1"/>
        <pt x="127" y="80" on="1"/>
        <pt x="496" y="80" on="1"/>
        <pt x="479" y="0" on="1"/>
        <pt x="20" y="0" on="1"/>
      </contour>
      <contour>
        <pt x="417" y="848" on="1"/>
        <pt x="437" y="848" on="0"/>
        <pt x="477" y="887" on="0"/>
        <pt x="486" y="916" on="1"/>
        <pt x="536" y="916" on="1"/>
        <pt x="531" y="892" on="0"/>
        <pt x="506" y="852" on="0"/>
        <pt x="472" y="822" on="0"/>
        <pt x="430" y="805" on="0"/>
        <pt x="408" y="805" on="1"/>
        <pt x="369" y="805" on="0"/>
        <pt x="323" y="852" on="0"/>
        <pt x="323" y="890" on="1"/>
        <pt x="323" y="902" on="0"/>
        <pt x="326" y="916" on="1"/>
        <pt x="377" y="916" on="1"/>
        <pt x="376" y="911" on="0"/>
        <pt x="375" y="904" on="0"/>
        <pt x="375" y="899" on="1"/>
        <pt x="375" y="878" on="0"/>
        <pt x="398" y="848" on="0"/>
      </contour>
    </TTGlyph>
    <TTGlyph name="Ecaron" xMin="20" yMin="0" xMax="621" yMax="916">
      <contour>
        <pt x="302" y="892" on="1"/>
        <pt x="355" y="916" on="1"/>
        <pt x="422" y="853" on="1"/>
        <pt x="516" y="916" on="1"/>
        <pt x="559" y="892" on="1"/>
        <pt x="443" y="802" on="1"/>
        <pt x="379" y="802" on="1"/>
      </contour>
      <contour>
        <pt x="171" y="710" on="1"/>
        <pt x="621" y="710" on="1"/>
        <pt x="604" y="630" on="1"/>
        <pt x="244" y="630" on="1"/>
        <pt x="195" y="400" on="1"/>
        <pt x="508" y="400" on="1"/>
        <pt x="492" y="325" on="1"/>
        <pt x="179" y="325" on="1"/>
        <pt x="127" y="80" on="1"/>
        <pt x="496" y="80" on="1"/>
        <pt x="479" y="0" on="1"/>
        <pt x="20" y="0" on="1"/>
      </contour>
    </TTGlyph>
    <TTGlyph name="Ecircumflex" xMin="20" yMin="0" xMax="621" yMax="916">
      <contour>
        <pt x="303" y="826" on="1"/>
        <pt x="419" y="916" on="1"/>
        <pt x="483" y="916" on="1"/>
        <pt x="560" y="826" on="1"/>
        <pt x="507" y="802" on="1"/>
        <pt x="440" y="865" on="1"/>
        <pt x="346" y="802" on="1"/>
      </contour>
      <contour>
        <pt x="171" y="710" on="1"/>
        <pt x="621" y="710" on="1"/>
        <pt x="604" y="630" on="1"/>
        <pt x="244" y="630" on="1"/>
        <pt x="195" y="400" on="1"/>
        <pt x="508" y="400" on="1"/>
        <pt x="492" y="325" on="1"/>
        <pt x="179" y="325" on="1"/>
        <pt x="127" y="80" on="1"/>
        <pt x="496" y="80" on="1"/>
        <pt x="479" y="0" on="1"/>
        <pt x="20" y="0" on="1"/>
      </contour>
    </TTGlyph>
    <TTGlyph name="Edblgrave" xMin="20" yMin="0" xMax="621" yMax="918">
      <contour>
        <pt x="171" y="710" on="1"/>
        <pt x="621" y="710" on="1"/>
        <pt x="604" y="630" on="1"/>
        <pt x="244" y="630" on="1"/>
        <pt x="195" y="400" on="1"/>
        <pt x="508" y="400" on="1"/>
        <pt x="492" y="325" on="1"/>
        <pt x="179" y="325" on="1"/>
        <pt x="127" y="80" on="1"/>
        <pt x="496" y="80" on="1"/>
        <pt x="479" y="0" on="1"/>
        <pt x="20" y="0" on="1"/>
      </contour>
      <contour>
        <pt x="432" y="918" on="1"/>
        <pt x="506" y="918" on="1"/>
        <pt x="536" y="817" on="1"/>
        <pt x="486" y="797" on="1"/>
      </contour>
      <contour>
        <pt x="300" y="918" on="1"/>
        <pt x="375" y="918" on="1"/>
        <pt x="404" y="817" on="1"/>
        <pt x="354" y="797" on="1"/>
      </contour>
    </TTGlyph>
    <TTGlyph name="Edieresis" xMin="20" yMin="0" xMax="621" yMax="913">
      <contour>
        <pt x="304" y="811" on="1"/>
        <pt x="326" y="913" on="1"/>
        <pt x="400" y="913" on="1"/>
        <pt x="378" y="811" on="1"/>
      </contour>
      <contour>
        <pt x="461" y="811" on="1"/>
        <pt x="483" y="913" on="1"/>
        <pt x="556" y="913" on="1"/>
        <pt x="535" y="811" on="1"/>
      </contour>
      <contour>
        <pt x="171" y="710" on="1"/>
        <pt x="621" y="710" on="1"/>
        <pt x="604" y="630" on="1"/>
        <pt x="244" y="630" on="1"/>
        <pt x="195" y="400" on="1"/>
        <pt x="508" y="400" on="1"/>
        <pt x="492" y="325" on="1"/>
        <pt x="179" y="325" on="1"/>
        <pt x="127" y="80" on="1"/>
        <pt x="496" y="80" on="1"/>
        <pt x="479" y="0" on="1"/>
        <pt x="20" y="0" on="1"/>
      </contour>
    </TTGlyph>
    <TTGlyph name="Edotaccent" xMin="20" yMin="0" xMax="621" yMax="916">
      <contour>
        <pt x="171" y="710" on="1"/>
        <pt x="621" y="710" on="1"/>
        <pt x="604" y="630" on="1"/>
        <pt x="244" y="630" on="1"/>
        <pt x="195" y="400" on="1"/>
        <pt x="508" y="400" on="1"/>
        <pt x="492" y="325" on="1"/>
        <pt x="179" y="325" on="1"/>
        <pt x="127" y="80" on="1"/>
        <pt x="496" y="80" on="1"/>
        <pt x="479" y="0" on="1"/>
        <pt x="20" y="0" on="1"/>
      </contour>
      <contour>
        <pt x="379" y="810" on="1"/>
        <pt x="402" y="916" on="1"/>
        <pt x="481" y="916" on="1"/>
        <pt x="459" y="810" on="1"/>
      </contour>
    </TTGlyph>
    <TTGlyph name="Edotbelow" xMin="20" yMin="-182" xMax="621" yMax="710">
      <contour>
        <pt x="171" y="710" on="1"/>
        <pt x="621" y="710" on="1"/>
        <pt x="604" y="630" on="1"/>
        <pt x="244" y="630" on="1"/>
        <pt x="195" y="400" on="1"/>
        <pt x="508" y="400" on="1"/>
        <pt x="492" y="325" on="1"/>
        <pt x="179" y="325" on="1"/>
        <pt x="127" y="80" on="1"/>
        <pt x="496" y="80" on="1"/>
        <pt x="479" y="0" on="1"/>
        <pt x="20" y="0" on="1"/>
      </contour>
      <contour>
        <pt x="168" y="-182" on="1"/>
        <pt x="191" y="-76" on="1"/>
        <pt x="270" y="-76" on="1"/>
        <pt x="248" y="-182" on="1"/>
      </contour>
    </TTGlyph>
    <TTGlyph name="Egrave" xMin="20" yMin="0" xMax="621" yMax="917">
      <contour>
        <pt x="171" y="710" on="1"/>
        <pt x="621" y="710" on="1"/>
        <pt x="604" y="630" on="1"/>
        <pt x="244" y="630" on="1"/>
        <pt x="195" y="400" on="1"/>
        <pt x="508" y="400" on="1"/>
        <pt x="492" y="325" on="1"/>
        <pt x="179" y="325" on="1"/>
        <pt x="127" y="80" on="1"/>
        <pt x="496" y="80" on="1"/>
        <pt x="479" y="0" on="1"/>
        <pt x="20" y="0" on="1"/>
      </contour>
      <contour>
        <pt x="351" y="917" on="1"/>
        <pt x="437" y="917" on="1"/>
        <pt x="471" y="816" on="1"/>
        <pt x="410" y="796" on="1"/>
      </contour>
    </TTGlyph>
    <TTGlyph name="Einvertedbreve" xMin="20" yMin="0" xMax="621" yMax="916">
      <contour>
        <pt x="171" y="710" on="1"/>
        <pt x="621" y="710" on="1"/>
        <pt x="604" y="630" on="1"/>
        <pt x="244" y="630" on="1"/>
        <pt x="195" y="400" on="1"/>
        <pt x="508" y="400" on="1"/>
        <pt x="492" y="325" on="1"/>
        <pt x="179" y="325" on="1"/>
        <pt x="127" y="80" on="1"/>
        <pt x="496" y="80" on="1"/>
        <pt x="479" y="0" on="1"/>
        <pt x="20" y="0" on="1"/>
      </contour>
      <contour>
        <pt x="317" y="805" on="1"/>
        <pt x="322" y="829" on="0"/>
        <pt x="346" y="869" on="0"/>
        <pt x="381" y="899" on="0"/>
        <pt x="422" y="916" on="0"/>
        <pt x="444" y="916" on="1"/>
        <pt x="482" y="916" on="0"/>
        <pt x="529" y="865" on="0"/>
        <pt x="529" y="829" on="1"/>
        <pt x="529" y="817" on="0"/>
        <pt x="526" y="805" on="1"/>
        <pt x="477" y="805" on="1"/>
        <pt x="478" y="812" on="0"/>
        <pt x="479" y="824" on="0"/>
        <pt x="479" y="830" on="1"/>
        <pt x="479" y="873" on="0"/>
        <pt x="438" y="873" on="1"/>
        <pt x="406" y="873" on="0"/>
        <pt x="374" y="834" on="0"/>
        <pt x="367" y="805" on="1"/>
      </contour>
    </TTGlyph>
    <TTGlyph name="Emacron" xMin="20" yMin="0" xMax="621" yMax="896">
      <contour>
        <pt x="171" y="710" on="1"/>
        <pt x="621" y="710" on="1"/>
        <pt x="604" y="630" on="1"/>
        <pt x="244" y="630" on="1"/>
        <pt x="195" y="400" on="1"/>
        <pt x="508" y="400" on="1"/>
        <pt x="492" y="325" on="1"/>
        <pt x="179" y="325" on="1"/>
        <pt x="127" y="80" on="1"/>
        <pt x="496" y="80" on="1"/>
        <pt x="479" y="0" on="1"/>
        <pt x="20" y="0" on="1"/>
      </contour>
      <contour>
        <pt x="284" y="838" on="1"/>
        <pt x="296" y="896" on="1"/>
        <pt x="575" y="896" on="1"/>
        <pt x="562" y="838" on="1"/>
      </contour>
    </TTGlyph>
    <TTGlyph name="Eng" xMin="20" yMin="-186" xMax="734" yMax="710">
      <contour>
        <pt x="387" y="-186" on="1"/>
        <pt x="355" y="-186" on="0"/>
        <pt x="300" y="-166" on="0"/>
        <pt x="282" y="-144" on="1"/>
        <pt x="335" y="-85" on="1"/>
        <pt x="345" y="-98" on="0"/>
        <pt x="376" y="-108" on="0"/>
        <pt x="393" y="-108" on="1"/>
        <pt x="408" y="-108" on="0"/>
        <pt x="440" y="-95" on="0"/>
        <pt x="467" y="-73" on="0"/>
        <pt x="486" y="-41" on="0"/>
        <pt x="490" y="-23" on="1"/>
        <pt x="498" y="15" on="1"/>
        <pt x="225" y="540" on="1"/>
        <pt x="110" y="0" on="1"/>
        <pt x="20" y="0" on="1"/>
        <pt x="171" y="710" on="1"/>
        <pt x="240" y="710" on="1"/>
        <pt x="527" y="161" on="1"/>
        <pt x="644" y="709" on="1"/>
        <pt x="734" y="709" on="1"/>
        <pt x="579" y="-20" on="1"/>
        <pt x="571" y="-57" on="0"/>
        <pt x="532" y="-118" on="0"/>
        <pt x="479" y="-162" on="0"/>
        <pt x="417" y="-186" on="0"/>
      </contour>
    </TTGlyph>
    <TTGlyph name="Eogonek" xMin="20" yMin="-181" xMax="621" yMax="710">
      <contour>
        <pt x="171" y="710" on="1"/>
        <pt x="621" y="710" on="1"/>
        <pt x="604" y="630" on="1"/>
        <pt x="244" y="630" on="1"/>
        <pt x="195" y="400" on="1"/>
        <pt x="508" y="400" on="1"/>
        <pt x="492" y="325" on="1"/>
        <pt x="179" y="325" on="1"/>
        <pt x="127" y="80" on="1"/>
        <pt x="496" y="80" on="1"/>
        <pt x="479" y="0" on="1"/>
        <pt x="283" y="0" on="1"/>
        <pt x="229" y="-31" on="0"/>
        <pt x="185" y="-76" on="0"/>
        <pt x="185" y="-99" on="1"/>
        <pt x="185" y="-131" on="0"/>
        <pt x="230" y="-135" on="1"/>
        <pt x="199" y="-181" on="1"/>
        <pt x="165" y="-174" on="0"/>
        <pt x="131" y="-139" on="0"/>
        <pt x="131" y="-116" on="1"/>
        <pt x="131" y="-87" on="0"/>
        <pt x="177" y="-30" on="0"/>
        <pt x="228" y="0" on="1"/>
        <pt x="20" y="0" on="1"/>
      </contour>
    </TTGlyph>
    <TTGlyph name="Eth" xMin="27" yMin="0" xMax="675" yMax="710">
      <contour>
        <pt x="57" y="391" on="1"/>
        <pt x="110" y="391" on="1"/>
        <pt x="178" y="710" on="1"/>
        <pt x="413" y="710" on="1"/>
        <pt x="480" y="710" on="0"/>
        <pt x="579" y="668" on="0"/>
        <pt x="643" y="594" on="0"/>
        <pt x="675" y="494" on="0"/>
        <pt x="675" y="437" on="1"/>
        <pt x="675" y="343" on="0"/>
        <pt x="613" y="183" on="0"/>
        <pt x="502" y="66" on="0"/>
        <pt x="351" y="0" on="0"/>
        <pt x="262" y="0" on="1"/>
        <pt x="27" y="0" on="1"/>
        <pt x="95" y="323" on="1"/>
        <pt x="42" y="323" on="1"/>
      </contour>
      <contour>
        <pt x="279" y="80" on="1"/>
        <pt x="349" y="80" on="0"/>
        <pt x="461" y="136" on="0"/>
        <pt x="540" y="231" on="0"/>
        <pt x="582" y="355" on="0"/>
        <pt x="582" y="423" on="1"/>
        <pt x="582" y="468" on="0"/>
        <pt x="558" y="544" on="0"/>
        <pt x="512" y="599" on="0"/>
        <pt x="442" y="630" on="0"/>
        <pt x="396" y="630" on="1"/>
        <pt x="251" y="630" on="1"/>
        <pt x="200" y="391" on="1"/>
        <pt x="351" y="391" on="1"/>
        <pt x="337" y="323" on="1"/>
        <pt x="185" y="323" on="1"/>
        <pt x="134" y="80" on="1"/>
      </contour>
    </TTGlyph>
    <TTGlyph name="Etilde" xMin="20" yMin="0" xMax="621" yMax="916">
      <contour>
        <pt x="171" y="710" on="1"/>
        <pt x="621" y="710" on="1"/>
        <pt x="604" y="630" on="1"/>
        <pt x="244" y="630" on="1"/>
        <pt x="195" y="400" on="1"/>
        <pt x="508" y="400" on="1"/>
        <pt x="492" y="325" on="1"/>
        <pt x="179" y="325" on="1"/>
        <pt x="127" y="80" on="1"/>
        <pt x="496" y="80" on="1"/>
        <pt x="479" y="0" on="1"/>
        <pt x="20" y="0" on="1"/>
      </contour>
      <contour>
        <pt x="473" y="813" on="1"/>
        <pt x="452" y="813" on="0"/>
        <pt x="422" y="826" on="0"/>
        <pt x="398" y="842" on="0"/>
        <pt x="374" y="855" on="0"/>
        <pt x="359" y="855" on="1"/>
        <pt x="343" y="855" on="0"/>
        <pt x="322" y="841" on="0"/>
        <pt x="309" y="824" on="0"/>
        <pt x="303" y="808" on="0"/>
        <pt x="303" y="807" on="1"/>
        <pt x="251" y="807" on="1"/>
        <pt x="252" y="813" on="0"/>
        <pt x="268" y="847" on="0"/>
        <pt x="298" y="883" on="0"/>
        <pt x="340" y="910" on="0"/>
        <pt x="369" y="910" on="1"/>
        <pt x="389" y="910" on="0"/>
        <pt x="417" y="897" on="0"/>
        <pt x="440" y="880" on="0"/>
        <pt x="465" y="867" on="0"/>
        <pt x="482" y="867" on="1"/>
        <pt x="500" y="867" on="0"/>
        <pt x="524" y="881" on="0"/>
        <pt x="539" y="899" on="0"/>
        <pt x="546" y="914" on="0"/>
        <pt x="546" y="916" on="1"/>
        <pt x="597" y="916" on="1"/>
        <pt x="596" y="910" on="0"/>
        <pt x="580" y="877" on="0"/>
        <pt x="549" y="841" on="0"/>
        <pt x="504" y="813" on="0"/>
      </contour>
    </TTGlyph>
    <TTGlyph name="Euro" xMin="25" yMin="-6" xMax="754" yMax="714">
      <contour>
        <pt x="152" y="422" on="1"/>
        <pt x="172" y="480" on="0"/>
        <pt x="245" y="585" on="0"/>
        <pt x="344" y="666" on="0"/>
        <pt x="466" y="714" on="0"/>
        <pt x="535" y="714" on="1"/>
        <pt x="580" y="714" on="0"/>
        <pt x="653" y="691" on="0"/>
        <pt x="709" y="650" on="0"/>
        <pt x="745" y="593" on="0"/>
        <pt x="754" y="559" on="1"/>
        <pt x="673" y="513" on="1"/>
        <pt x="665" y="547" on="0"/>
        <pt x="633" y="593" on="0"/>
        <pt x="589" y="621" on="0"/>
        <pt x="539" y="633" on="0"/>
        <pt x="514" y="633" on="1"/>
        <pt x="466" y="633" on="0"/>
        <pt x="382" y="599" on="0"/>
        <pt x="313" y="540" on="0"/>
        <pt x="260" y="464" on="0"/>
        <pt x="244" y="422" on="1"/>
        <pt x="542" y="422" on="1"/>
        <pt x="509" y="370" on="1"/>
        <pt x="228" y="370" on="1"/>
        <pt x="225" y="355" on="0"/>
        <pt x="221" y="325" on="0"/>
        <pt x="220" y="311" on="1"/>
        <pt x="485" y="311" on="1"/>
        <pt x="452" y="259" on="1"/>
        <pt x="222" y="259" on="1"/>
        <pt x="227" y="220" on="0"/>
        <pt x="255" y="153" on="0"/>
        <pt x="300" y="104" on="0"/>
        <pt x="361" y="75" on="0"/>
        <pt x="398" y="75" on="1"/>
        <pt x="424" y="75" on="0"/>
        <pt x="482" y="89" on="0"/>
        <pt x="540" y="120" on="0"/>
        <pt x="594" y="167" on="0"/>
        <pt x="615" y="200" on="1"/>
        <pt x="681" y="159" on="1"/>
        <pt x="657" y="119" on="0"/>
        <pt x="585" y="58" on="0"/>
        <pt x="503" y="16" on="0"/>
        <pt x="416" y="-6" on="0"/>
        <pt x="377" y="-6" on="1"/>
        <pt x="322" y="-6" on="0"/>
        <pt x="235" y="37" on="0"/>
        <pt x="172" y="111" on="0"/>
        <pt x="135" y="206" on="0"/>
        <pt x="130" y="259" on="1"/>
        <pt x="25" y="259" on="1"/>
        <pt x="58" y="311" on="1"/>
        <pt x="129" y="311" on="1"/>
        <pt x="130" y="325" on="0"/>
        <pt x="134" y="355" on="0"/>
        <pt x="137" y="370" on="1"/>
        <pt x="70" y="370" on="1"/>
        <pt x="103" y="422" on="1"/>
      </contour>
    </TTGlyph>
    <TTGlyph name="F" xMin="20" yMin="0" xMax="617" yMax="710">
      <contour>
        <pt x="171" y="710" on="1"/>
        <pt x="617" y="710" on="1"/>
        <pt x="600" y="630" on="1"/>
        <pt x="244" y="630" on="1"/>
        <pt x="194" y="393" on="1"/>
        <pt x="493" y="393" on="1"/>
        <pt x="477" y="318" on="1"/>
        <pt x="178" y="318" on="1"/>
        <pt x="110" y="0" on="1"/>
        <pt x="20" y="0" on="1"/>
      </contour>
    </TTGlyph>
    <TTGlyph name="F.sc" xMin="14" yMin="0" xMax="513" yMax="551">
      <contour>
        <pt x="131" y="551" on="1"/>
        <pt x="513" y="551" on="1"/>
        <pt x="498" y="480" on="1"/>
        <pt x="196" y="480" on="1"/>
        <pt x="159" y="308" on="1"/>
        <pt x="414" y="308" on="1"/>
        <pt x="399" y="241" on="1"/>
        <pt x="145" y="241" on="1"/>
        <pt x="94" y="0" on="1"/>
        <pt x="14" y="0" on="1"/>
      </contour>
    </TTGlyph>
    <TTGlyph name="G" xMin="45" yMin="-5" xMax="671" yMax="715">
      <contour>
        <pt x="516" y="95" on="1"/>
        <pt x="461" y="44" on="0"/>
        <pt x="350" y="-5" on="0"/>
        <pt x="292" y="-5" on="1"/>
        <pt x="235" y="-5" on="0"/>
        <pt x="143" y="44" on="0"/>
        <pt x="79" y="127" on="0"/>
        <pt x="45" y="234" on="0"/>
        <pt x="45" y="292" on="1"/>
        <pt x="45" y="373" on="0"/>
        <pt x="112" y="525" on="0"/>
        <pt x="223" y="644" on="0"/>
        <pt x="367" y="715" on="0"/>
        <pt x="445" y="715" on="1"/>
        <pt x="543" y="715" on="0"/>
        <pt x="652" y="629" on="0"/>
        <pt x="671" y="560" on="1"/>
        <pt x="592" y="512" on="1"/>
        <pt x="575" y="574" on="0"/>
        <pt x="488" y="634" on="0"/>
        <pt x="426" y="634" on="1"/>
        <pt x="367" y="634" on="0"/>
        <pt x="261" y="575" on="0"/>
        <pt x="182" y="480" on="0"/>
        <pt x="136" y="359" on="0"/>
        <pt x="136" y="297" on="1"/>
        <pt x="136" y="251" on="0"/>
        <pt x="161" y="171" on="0"/>
        <pt x="208" y="111" on="0"/>
        <pt x="275" y="76" on="0"/>
        <pt x="316" y="76" on="1"/>
        <pt x="370" y="76" on="0"/>
        <pt x="479" y="131" on="0"/>
        <pt x="536" y="189" on="1"/>
        <pt x="557" y="286" on="1"/>
        <pt x="412" y="286" on="1"/>
        <pt x="427" y="354" on="1"/>
        <pt x="647" y="354" on="1"/>
        <pt x="572" y="0" on="1"/>
        <pt x="496" y="0" on="1"/>
      </contour>
    </TTGlyph>
    <TTGlyph name="G.alt" xMin="45" yMin="-5" xMax="685" yMax="715">
      <contour>
        <pt x="301" y="-5" on="1"/>
        <pt x="240" y="-5" on="0"/>
        <pt x="145" y="44" on="0"/>
        <pt x="79" y="125" on="0"/>
        <pt x="45" y="232" on="0"/>
        <pt x="45" y="291" on="1"/>
        <pt x="45" y="370" on="0"/>
        <pt x="111" y="522" on="0"/>
        <pt x="222" y="642" on="0"/>
        <pt x="370" y="715" on="0"/>
        <pt x="452" y="715" on="1"/>
        <pt x="537" y="715" on="0"/>
        <pt x="652" y="632" on="0"/>
        <pt x="677" y="563" on="1"/>
        <pt x="594" y="506" on="1"/>
        <pt x="587" y="528" on="0"/>
        <pt x="561" y="574" on="0"/>
        <pt x="520" y="611" on="0"/>
        <pt x="466" y="634" on="0"/>
        <pt x="430" y="634" on="1"/>
        <pt x="369" y="634" on="0"/>
        <pt x="262" y="573" on="0"/>
        <pt x="182" y="477" on="0"/>
        <pt x="136" y="357" on="0"/>
        <pt x="136" y="297" on="1"/>
        <pt x="136" y="254" on="0"/>
        <pt x="158" y="174" on="0"/>
        <pt x="202" y="113" on="0"/>
        <pt x="267" y="76" on="0"/>
        <pt x="311" y="76" on="1"/>
        <pt x="354" y="76" on="0"/>
        <pt x="434" y="110" on="0"/>
        <pt x="502" y="166" on="0"/>
        <pt x="555" y="238" on="0"/>
        <pt x="570" y="277" on="1"/>
        <pt x="391" y="277" on="1"/>
        <pt x="408" y="357" on="1"/>
        <pt x="685" y="357" on="1"/>
        <pt x="685" y="355" on="0"/>
        <pt x="681" y="341" on="0"/>
        <pt x="677" y="325" on="0"/>
        <pt x="674" y="310" on="0"/>
        <pt x="673" y="308" on="1"/>
        <pt x="655" y="245" on="0"/>
        <pt x="583" y="132" on="0"/>
        <pt x="485" y="46" on="0"/>
        <pt x="366" y="-5" on="0"/>
      </contour>
    </TTGlyph>
    <TTGlyph name="G.sc" xMin="31" yMin="-4" xMax="556" yMax="555">
      <contour>
        <pt x="429" y="71" on="1"/>
        <pt x="339" y="-4" on="0"/>
        <pt x="244" y="-4" on="1"/>
        <pt x="195" y="-4" on="0"/>
        <pt x="116" y="35" on="0"/>
        <pt x="61" y="100" on="0"/>
        <pt x="31" y="185" on="0"/>
        <pt x="31" y="231" on="1"/>
        <pt x="31" y="294" on="0"/>
        <pt x="86" y="411" on="0"/>
        <pt x="178" y="501" on="0"/>
        <pt x="298" y="555" on="0"/>
        <pt x="364" y="555" on="1"/>
        <pt x="445" y="555" on="0"/>
        <pt x="539" y="489" on="0"/>
        <pt x="556" y="435" on="1"/>
        <pt x="485" y="391" on="1"/>
        <pt x="471" y="438" on="0"/>
        <pt x="397" y="483" on="0"/>
        <pt x="346" y="483" on="1"/>
        <pt x="298" y="483" on="0"/>
        <pt x="212" y="440" on="0"/>
        <pt x="149" y="370" on="0"/>
        <pt x="112" y="282" on="0"/>
        <pt x="112" y="236" on="1"/>
        <pt x="112" y="201" on="0"/>
        <pt x="134" y="140" on="0"/>
        <pt x="174" y="94" on="0"/>
        <pt x="230" y="68" on="0"/>
        <pt x="265" y="68" on="1"/>
        <pt x="354" y="68" on="0"/>
        <pt x="446" y="152" on="1"/>
        <pt x="460" y="217" on="1"/>
        <pt x="338" y="217" on="1"/>
        <pt x="350" y="277" on="1"/>
        <pt x="540" y="277" on="1"/>
        <pt x="481" y="0" on="1"/>
        <pt x="414" y="0" on="1"/>
      </contour>
    </TTGlyph>
    <TTGlyph name="Gacute" xMin="45" yMin="-5" xMax="671" yMax="916">
      <contour>
        <pt x="516" y="95" on="1"/>
        <pt x="461" y="44" on="0"/>
        <pt x="350" y="-5" on="0"/>
        <pt x="292" y="-5" on="1"/>
        <pt x="235" y="-5" on="0"/>
        <pt x="143" y="44" on="0"/>
        <pt x="79" y="127" on="0"/>
        <pt x="45" y="234" on="0"/>
        <pt x="45" y="292" on="1"/>
        <pt x="45" y="373" on="0"/>
        <pt x="112" y="525" on="0"/>
        <pt x="223" y="644" on="0"/>
        <pt x="367" y="715" on="0"/>
        <pt x="445" y="715" on="1"/>
        <pt x="543" y="715" on="0"/>
        <pt x="652" y="629" on="0"/>
        <pt x="671" y="560" on="1"/>
        <pt x="592" y="512" on="1"/>
        <pt x="575" y="574" on="0"/>
        <pt x="488" y="634" on="0"/>
        <pt x="426" y="634" on="1"/>
        <pt x="367" y="634" on="0"/>
        <pt x="261" y="575" on="0"/>
        <pt x="182" y="480" on="0"/>
        <pt x="136" y="359" on="0"/>
        <pt x="136" y="297" on="1"/>
        <pt x="136" y="251" on="0"/>
        <pt x="161" y="171" on="0"/>
        <pt x="208" y="111" on="0"/>
        <pt x="275" y="76" on="0"/>
        <pt x="316" y="76" on="1"/>
        <pt x="370" y="76" on="0"/>
        <pt x="479" y="131" on="0"/>
        <pt x="536" y="189" on="1"/>
        <pt x="557" y="286" on="1"/>
        <pt x="412" y="286" on="1"/>
        <pt x="427" y="354" on="1"/>
        <pt x="647" y="354" on="1"/>
        <pt x="572" y="0" on="1"/>
        <pt x="496" y="0" on="1"/>
      </contour>
      <contour>
        <pt x="454" y="795" on="1"/>
        <pt x="400" y="815" on="1"/>
        <pt x="476" y="916" on="1"/>
        <pt x="563" y="916" on="1"/>
      </contour>
    </TTGlyph>
    <TTGlyph name="Gbreve" xMin="45" yMin="-5" xMax="671" yMax="916">
      <contour>
        <pt x="516" y="95" on="1"/>
        <pt x="461" y="44" on="0"/>
        <pt x="350" y="-5" on="0"/>
        <pt x="292" y="-5" on="1"/>
        <pt x="235" y="-5" on="0"/>
        <pt x="143" y="44" on="0"/>
        <pt x="79" y="127" on="0"/>
        <pt x="45" y="234" on="0"/>
        <pt x="45" y="292" on="1"/>
        <pt x="45" y="373" on="0"/>
        <pt x="112" y="525" on="0"/>
        <pt x="223" y="644" on="0"/>
        <pt x="367" y="715" on="0"/>
        <pt x="445" y="715" on="1"/>
        <pt x="543" y="715" on="0"/>
        <pt x="652" y="629" on="0"/>
        <pt x="671" y="560" on="1"/>
        <pt x="592" y="512" on="1"/>
        <pt x="575" y="574" on="0"/>
        <pt x="488" y="634" on="0"/>
        <pt x="426" y="634" on="1"/>
        <pt x="367" y="634" on="0"/>
        <pt x="261" y="575" on="0"/>
        <pt x="182" y="480" on="0"/>
        <pt x="136" y="359" on="0"/>
        <pt x="136" y="297" on="1"/>
        <pt x="136" y="251" on="0"/>
        <pt x="161" y="171" on="0"/>
        <pt x="208" y="111" on="0"/>
        <pt x="275" y="76" on="0"/>
        <pt x="316" y="76" on="1"/>
        <pt x="370" y="76" on="0"/>
        <pt x="479" y="131" on="0"/>
        <pt x="536" y="189" on="1"/>
        <pt x="557" y="286" on="1"/>
        <pt x="412" y="286" on="1"/>
        <pt x="427" y="354" on="1"/>
        <pt x="647" y="354" on="1"/>
        <pt x="572" y="0" on="1"/>
        <pt x="496" y="0" on="1"/>
      </contour>
      <contour>
        <pt x="467" y="848" on="1"/>
        <pt x="487" y="848" on="0"/>
        <pt x="527" y="887" on="0"/>
        <pt x="536" y="916" on="1"/>
        <pt x="586" y="916" on="1"/>
        <pt x="581" y="892" on="0"/>
        <pt x="556" y="852" on="0"/>
        <pt x="522" y="822" on="0"/>
        <pt x="480" y="805" on="0"/>
        <pt x="458" y="805" on="1"/>
        <pt x="419" y="805" on="0"/>
        <pt x="373" y="852" on="0"/>
        <pt x="373" y="890" on="1"/>
        <pt x="373" y="902" on="0"/>
        <pt x="376" y="916" on="1"/>
        <pt x="427" y="916" on="1"/>
        <pt x="426" y="911" on="0"/>
        <pt x="425" y="904" on="0"/>
        <pt x="425" y="899" on="1"/>
        <pt x="425" y="878" on="0"/>
        <pt x="448" y="848" on="0"/>
      </contour>
    </TTGlyph>
    <TTGlyph name="Gcircumflex" xMin="45" yMin="-5" xMax="671" yMax="916">
      <contour>
        <pt x="341" y="826" on="1"/>
        <pt x="457" y="916" on="1"/>
        <pt x="521" y="916" on="1"/>
        <pt x="598" y="826" on="1"/>
        <pt x="545" y="802" on="1"/>
        <pt x="478" y="865" on="1"/>
        <pt x="384" y="802" on="1"/>
      </contour>
      <contour>
        <pt x="516" y="95" on="1"/>
        <pt x="461" y="44" on="0"/>
        <pt x="350" y="-5" on="0"/>
        <pt x="292" y="-5" on="1"/>
        <pt x="235" y="-5" on="0"/>
        <pt x="143" y="44" on="0"/>
        <pt x="79" y="127" on="0"/>
        <pt x="45" y="234" on="0"/>
        <pt x="45" y="292" on="1"/>
        <pt x="45" y="373" on="0"/>
        <pt x="112" y="525" on="0"/>
        <pt x="223" y="644" on="0"/>
        <pt x="367" y="715" on="0"/>
        <pt x="445" y="715" on="1"/>
        <pt x="543" y="715" on="0"/>
        <pt x="652" y="629" on="0"/>
        <pt x="671" y="560" on="1"/>
        <pt x="592" y="512" on="1"/>
        <pt x="575" y="574" on="0"/>
        <pt x="488" y="634" on="0"/>
        <pt x="426" y="634" on="1"/>
        <pt x="367" y="634" on="0"/>
        <pt x="261" y="575" on="0"/>
        <pt x="182" y="480" on="0"/>
        <pt x="136" y="359" on="0"/>
        <pt x="136" y="297" on="1"/>
        <pt x="136" y="251" on="0"/>
        <pt x="161" y="171" on="0"/>
        <pt x="208" y="111" on="0"/>
        <pt x="275" y="76" on="0"/>
        <pt x="316" y="76" on="1"/>
        <pt x="370" y="76" on="0"/>
        <pt x="479" y="131" on="0"/>
        <pt x="536" y="189" on="1"/>
        <pt x="557" y="286" on="1"/>
        <pt x="412" y="286" on="1"/>
        <pt x="427" y="354" on="1"/>
        <pt x="647" y="354" on="1"/>
        <pt x="572" y="0" on="1"/>
        <pt x="496" y="0" on="1"/>
      </contour>
    </TTGlyph>
    <TTGlyph name="Gcommaaccent" xMin="45" yMin="-213" xMax="671" yMax="715">
      <contour>
        <pt x="217" y="-213" on="1"/>
        <pt x="254" y="-132" on="1"/>
        <pt x="229" y="-132" on="1"/>
        <pt x="247" y="-48" on="1"/>
        <pt x="324" y="-48" on="1"/>
        <pt x="306" y="-132" on="1"/>
        <pt x="260" y="-213" on="1"/>
      </contour>
      <contour>
        <pt x="516" y="95" on="1"/>
        <pt x="461" y="44" on="0"/>
        <pt x="350" y="-5" on="0"/>
        <pt x="292" y="-5" on="1"/>
        <pt x="235" y="-5" on="0"/>
        <pt x="143" y="44" on="0"/>
        <pt x="79" y="127" on="0"/>
        <pt x="45" y="234" on="0"/>
        <pt x="45" y="292" on="1"/>
        <pt x="45" y="373" on="0"/>
        <pt x="112" y="525" on="0"/>
        <pt x="223" y="644" on="0"/>
        <pt x="367" y="715" on="0"/>
        <pt x="445" y="715" on="1"/>
        <pt x="543" y="715" on="0"/>
        <pt x="652" y="629" on="0"/>
        <pt x="671" y="560" on="1"/>
        <pt x="592" y="512" on="1"/>
        <pt x="575" y="574" on="0"/>
        <pt x="488" y="634" on="0"/>
        <pt x="426" y="634" on="1"/>
        <pt x="367" y="634" on="0"/>
        <pt x="261" y="575" on="0"/>
        <pt x="182" y="480" on="0"/>
        <pt x="136" y="359" on="0"/>
        <pt x="136" y="297" on="1"/>
        <pt x="136" y="251" on="0"/>
        <pt x="161" y="171" on="0"/>
        <pt x="208" y="111" on="0"/>
        <pt x="275" y="76" on="0"/>
        <pt x="316" y="76" on="1"/>
        <pt x="370" y="76" on="0"/>
        <pt x="479" y="131" on="0"/>
        <pt x="536" y="189" on="1"/>
        <pt x="557" y="286" on="1"/>
        <pt x="412" y="286" on="1"/>
        <pt x="427" y="354" on="1"/>
        <pt x="647" y="354" on="1"/>
        <pt x="572" y="0" on="1"/>
        <pt x="496" y="0" on="1"/>
      </contour>
    </TTGlyph>
    <TTGlyph name="Gdotaccent" xMin="45" yMin="-5" xMax="671" yMax="916">
      <contour>
        <pt x="516" y="95" on="1"/>
        <pt x="461" y="44" on="0"/>
        <pt x="350" y="-5" on="0"/>
        <pt x="292" y="-5" on="1"/>
        <pt x="235" y="-5" on="0"/>
        <pt x="143" y="44" on="0"/>
        <pt x="79" y="127" on="0"/>
        <pt x="45" y="234" on="0"/>
        <pt x="45" y="292" on="1"/>
        <pt x="45" y="373" on="0"/>
        <pt x="112" y="525" on="0"/>
        <pt x="223" y="644" on="0"/>
        <pt x="367" y="715" on="0"/>
        <pt x="445" y="715" on="1"/>
        <pt x="543" y="715" on="0"/>
        <pt x="652" y="629" on="0"/>
        <pt x="671" y="560" on="1"/>
        <pt x="592" y="512" on="1"/>
        <pt x="575" y="574" on="0"/>
        <pt x="488" y="634" on="0"/>
        <pt x="426" y="634" on="1"/>
        <pt x="367" y="634" on="0"/>
        <pt x="261" y="575" on="0"/>
        <pt x="182" y="480" on="0"/>
        <pt x="136" y="359" on="0"/>
        <pt x="136" y="297" on="1"/>
        <pt x="136" y="251" on="0"/>
        <pt x="161" y="171" on="0"/>
        <pt x="208" y="111" on="0"/>
        <pt x="275" y="76" on="0"/>
        <pt x="316" y="76" on="1"/>
        <pt x="370" y="76" on="0"/>
        <pt x="479" y="131" on="0"/>
        <pt x="536" y="189" on="1"/>
        <pt x="557" y="286" on="1"/>
        <pt x="412" y="286" on="1"/>
        <pt x="427" y="354" on="1"/>
        <pt x="647" y="354" on="1"/>
        <pt x="572" y="0" on="1"/>
        <pt x="496" y="0" on="1"/>
      </contour>
      <contour>
        <pt x="431" y="810" on="1"/>
        <pt x="454" y="916" on="1"/>
        <pt x="533" y="916" on="1"/>
        <pt x="511" y="810" on="1"/>
      </contour>
    </TTGlyph>
    <TTGlyph name="H" xMin="20" yMin="0" xMax="716" yMax="710">
      <contour>
        <pt x="171" y="710" on="1"/>
        <pt x="261" y="710" on="1"/>
        <pt x="196" y="403" on="1"/>
        <pt x="561" y="403" on="1"/>
        <pt x="626" y="710" on="1"/>
        <pt x="716" y="710" on="1"/>
        <pt x="565" y="0" on="1"/>
        <pt x="475" y="0" on="1"/>
        <pt x="544" y="323" on="1"/>
        <pt x="179" y="323" on="1"/>
        <pt x="110" y="0" on="1"/>
        <pt x="20" y="0" on="1"/>
      </contour>
    </TTGlyph>
    <TTGlyph name="H.sc" xMin="14" yMin="0" xMax="598" yMax="551">
      <contour>
        <pt x="131" y="551" on="1"/>
        <pt x="211" y="551" on="1"/>
        <pt x="161" y="318" on="1"/>
        <pt x="469" y="318" on="1"/>
        <pt x="518" y="551" on="1"/>
        <pt x="598" y="551" on="1"/>
        <pt x="481" y="0" on="1"/>
        <pt x="401" y="0" on="1"/>
        <pt x="453" y="246" on="1"/>
        <pt x="146" y="246" on="1"/>
        <pt x="94" y="0" on="1"/>
        <pt x="14" y="0" on="1"/>
      </contour>
    </TTGlyph>
    <TTGlyph name="Hbar" xMin="26" yMin="0" xMax="745" yMax="710">
      <contour>
        <pt x="105" y="595" on="1"/>
        <pt x="152" y="595" on="1"/>
        <pt x="177" y="710" on="1"/>
        <pt x="267" y="710" on="1"/>
        <pt x="242" y="595" on="1"/>
        <pt x="607" y="595" on="1"/>
        <pt x="632" y="710" on="1"/>
        <pt x="722" y="710" on="1"/>
        <pt x="697" y="595" on="1"/>
        <pt x="745" y="595" on="1"/>
        <pt x="735" y="548" on="1"/>
        <pt x="687" y="548" on="1"/>
        <pt x="571" y="0" on="1"/>
        <pt x="481" y="0" on="1"/>
        <pt x="550" y="323" on="1"/>
        <pt x="185" y="323" on="1"/>
        <pt x="116" y="0" on="1"/>
        <pt x="26" y="0" on="1"/>
        <pt x="142" y="548" on="1"/>
        <pt x="95" y="548" on="1"/>
      </contour>
      <contour>
        <pt x="567" y="403" on="1"/>
        <pt x="597" y="548" on="1"/>
        <pt x="232" y="548" on="1"/>
        <pt x="202" y="403" on="1"/>
      </contour>
    </TTGlyph>
    <TTGlyph name="Hcircumflex" xMin="20" yMin="0" xMax="716" yMax="916">
      <contour>
        <pt x="336" y="826" on="1"/>
        <pt x="452" y="916" on="1"/>
        <pt x="516" y="916" on="1"/>
        <pt x="593" y="826" on="1"/>
        <pt x="540" y="802" on="1"/>
        <pt x="473" y="865" on="1"/>
        <pt x="379" y="802" on="1"/>
      </contour>
      <contour>
        <pt x="171" y="710" on="1"/>
        <pt x="261" y="710" on="1"/>
        <pt x="196" y="403" on="1"/>
        <pt x="561" y="403" on="1"/>
        <pt x="626" y="710" on="1"/>
        <pt x="716" y="710" on="1"/>
        <pt x="565" y="0" on="1"/>
        <pt x="475" y="0" on="1"/>
        <pt x="544" y="323" on="1"/>
        <pt x="179" y="323" on="1"/>
        <pt x="110" y="0" on="1"/>
        <pt x="20" y="0" on="1"/>
      </contour>
    </TTGlyph>
    <TTGlyph name="Hdotbelow" xMin="20" yMin="-182" xMax="716" yMax="710">
      <contour>
        <pt x="171" y="710" on="1"/>
        <pt x="261" y="710" on="1"/>
        <pt x="196" y="403" on="1"/>
        <pt x="561" y="403" on="1"/>
        <pt x="626" y="710" on="1"/>
        <pt x="716" y="710" on="1"/>
        <pt x="565" y="0" on="1"/>
        <pt x="475" y="0" on="1"/>
        <pt x="544" y="323" on="1"/>
        <pt x="179" y="323" on="1"/>
        <pt x="110" y="0" on="1"/>
        <pt x="20" y="0" on="1"/>
      </contour>
      <contour>
        <pt x="215" y="-182" on="1"/>
        <pt x="238" y="-76" on="1"/>
        <pt x="317" y="-76" on="1"/>
        <pt x="295" y="-182" on="1"/>
      </contour>
    </TTGlyph>
    <TTGlyph name="I" xMin="20" yMin="0" xMax="261" yMax="709">
      <contour>
        <pt x="171" y="709" on="1"/>
        <pt x="261" y="709" on="1"/>
        <pt x="110" y="0" on="1"/>
        <pt x="20" y="0" on="1"/>
      </contour>
    </TTGlyph>
    <TTGlyph name="I.sc" xMin="14" yMin="0" xMax="211" yMax="551">
      <contour>
        <pt x="131" y="551" on="1"/>
        <pt x="211" y="551" on="1"/>
        <pt x="94" y="0" on="1"/>
        <pt x="14" y="0" on="1"/>
      </contour>
    </TTGlyph>
    <TTGlyph name="IJ" xMin="20" yMin="-11" xMax="741" yMax="709">
      <contour>
        <pt x="171" y="709" on="1"/>
        <pt x="261" y="709" on="1"/>
        <pt x="110" y="0" on="1"/>
        <pt x="20" y="0" on="1"/>
      </contour>
      <contour>
        <pt x="356" y="-11" on="1"/>
        <pt x="271" y="-11" on="0"/>
        <pt x="219" y="33" on="1"/>
        <pt x="257" y="106" on="1"/>
        <pt x="272" y="92" on="0"/>
        <pt x="332" y="70" on="0"/>
        <pt x="373" y="70" on="1"/>
        <pt x="420" y="70" on="0"/>
        <pt x="484" y="106" on="0"/>
        <pt x="528" y="177" on="0"/>
        <pt x="559" y="281" on="0"/>
        <pt x="574" y="349" on="1"/>
        <pt x="651" y="709" on="1"/>
        <pt x="741" y="709" on="1"/>
        <pt x="664" y="349" on="1"/>
        <pt x="647" y="268" on="0"/>
        <pt x="604" y="135" on="0"/>
        <pt x="536" y="41" on="0"/>
        <pt x="433" y="-11" on="0"/>
      </contour>
    </TTGlyph>
    <TTGlyph name="Iacute" xMin="20" yMin="0" xMax="338" yMax="916">
      <contour>
        <pt x="171" y="709" on="1"/>
        <pt x="261" y="709" on="1"/>
        <pt x="110" y="0" on="1"/>
        <pt x="20" y="0" on="1"/>
      </contour>
      <contour>
        <pt x="229" y="795" on="1"/>
        <pt x="175" y="815" on="1"/>
        <pt x="251" y="916" on="1"/>
        <pt x="338" y="916" on="1"/>
      </contour>
    </TTGlyph>
    <TTGlyph name="Ibreve" xMin="20" yMin="0" xMax="351" yMax="916">
      <contour>
        <pt x="171" y="709" on="1"/>
        <pt x="261" y="709" on="1"/>
        <pt x="110" y="0" on="1"/>
        <pt x="20" y="0" on="1"/>
      </contour>
      <contour>
        <pt x="232" y="848" on="1"/>
        <pt x="252" y="848" on="0"/>
        <pt x="292" y="887" on="0"/>
        <pt x="301" y="916" on="1"/>
        <pt x="351" y="916" on="1"/>
        <pt x="346" y="892" on="0"/>
        <pt x="321" y="852" on="0"/>
        <pt x="287" y="822" on="0"/>
        <pt x="245" y="805" on="0"/>
        <pt x="223" y="805" on="1"/>
        <pt x="184" y="805" on="0"/>
        <pt x="138" y="852" on="0"/>
        <pt x="138" y="890" on="1"/>
        <pt x="138" y="902" on="0"/>
        <pt x="141" y="916" on="1"/>
        <pt x="192" y="916" on="1"/>
        <pt x="191" y="911" on="0"/>
        <pt x="190" y="904" on="0"/>
        <pt x="190" y="899" on="1"/>
        <pt x="190" y="878" on="0"/>
        <pt x="213" y="848" on="0"/>
      </contour>
    </TTGlyph>
    <TTGlyph name="Icircumflex" xMin="20" yMin="0" xMax="367" yMax="916">
      <contour>
        <pt x="171" y="709" on="1"/>
        <pt x="261" y="709" on="1"/>
        <pt x="110" y="0" on="1"/>
        <pt x="20" y="0" on="1"/>
      </contour>
      <contour>
        <pt x="110" y="826" on="1"/>
        <pt x="226" y="916" on="1"/>
        <pt x="290" y="916" on="1"/>
        <pt x="367" y="826" on="1"/>
        <pt x="314" y="802" on="1"/>
        <pt x="247" y="865" on="1"/>
        <pt x="153" y="802" on="1"/>
      </contour>
    </TTGlyph>
    <TTGlyph name="Idblgrave" xMin="20" yMin="0" xMax="342" yMax="918">
      <contour>
        <pt x="171" y="709" on="1"/>
        <pt x="261" y="709" on="1"/>
        <pt x="110" y="0" on="1"/>
        <pt x="20" y="0" on="1"/>
      </contour>
      <contour>
        <pt x="238" y="918" on="1"/>
        <pt x="312" y="918" on="1"/>
        <pt x="342" y="817" on="1"/>
        <pt x="292" y="797" on="1"/>
      </contour>
      <contour>
        <pt x="106" y="918" on="1"/>
        <pt x="181" y="918" on="1"/>
        <pt x="210" y="817" on="1"/>
        <pt x="160" y="797" on="1"/>
      </contour>
    </TTGlyph>
    <TTGlyph name="Idieresis" xMin="20" yMin="0" xMax="373" yMax="913">
      <contour>
        <pt x="171" y="709" on="1"/>
        <pt x="261" y="709" on="1"/>
        <pt x="110" y="0" on="1"/>
        <pt x="20" y="0" on="1"/>
      </contour>
      <contour>
        <pt x="121" y="811" on="1"/>
        <pt x="143" y="913" on="1"/>
        <pt x="217" y="913" on="1"/>
        <pt x="195" y="811" on="1"/>
      </contour>
      <contour>
        <pt x="278" y="811" on="1"/>
        <pt x="300" y="913" on="1"/>
        <pt x="373" y="913" on="1"/>
        <pt x="352" y="811" on="1"/>
      </contour>
    </TTGlyph>
    <TTGlyph name="Idotaccent" xMin="20" yMin="0" xMax="298" yMax="916">
      <contour>
        <pt x="171" y="709" on="1"/>
        <pt x="261" y="709" on="1"/>
        <pt x="110" y="0" on="1"/>
        <pt x="20" y="0" on="1"/>
      </contour>
      <contour>
        <pt x="196" y="810" on="1"/>
        <pt x="219" y="916" on="1"/>
        <pt x="298" y="916" on="1"/>
        <pt x="276" y="810" on="1"/>
      </contour>
    </TTGlyph>
    <TTGlyph name="Idotbelow" xMin="-16" yMin="-182" xMax="261" yMax="709">
      <contour>
        <pt x="171" y="709" on="1"/>
        <pt x="261" y="709" on="1"/>
        <pt x="110" y="0" on="1"/>
        <pt x="20" y="0" on="1"/>
      </contour>
      <contour>
        <pt x="-16" y="-182" on="1"/>
        <pt x="7" y="-76" on="1"/>
        <pt x="86" y="-76" on="1"/>
        <pt x="64" y="-182" on="1"/>
      </contour>
    </TTGlyph>
    <TTGlyph name="Igrave" xMin="20" yMin="0" xMax="284" yMax="917">
      <contour>
        <pt x="171" y="709" on="1"/>
        <pt x="261" y="709" on="1"/>
        <pt x="110" y="0" on="1"/>
        <pt x="20" y="0" on="1"/>
      </contour>
      <contour>
        <pt x="164" y="917" on="1"/>
        <pt x="250" y="917" on="1"/>
        <pt x="284" y="816" on="1"/>
        <pt x="223" y="796" on="1"/>
      </contour>
    </TTGlyph>
    <TTGlyph name="Iinvertedbreve" xMin="20" yMin="0" xMax="344" yMax="916">
      <contour>
        <pt x="171" y="709" on="1"/>
        <pt x="261" y="709" on="1"/>
        <pt x="110" y="0" on="1"/>
        <pt x="20" y="0" on="1"/>
      </contour>
      <contour>
        <pt x="132" y="805" on="1"/>
        <pt x="137" y="829" on="0"/>
        <pt x="161" y="869" on="0"/>
        <pt x="196" y="899" on="0"/>
        <pt x="237" y="916" on="0"/>
        <pt x="259" y="916" on="1"/>
        <pt x="297" y="916" on="0"/>
        <pt x="344" y="865" on="0"/>
        <pt x="344" y="829" on="1"/>
        <pt x="344" y="817" on="0"/>
        <pt x="341" y="805" on="1"/>
        <pt x="292" y="805" on="1"/>
        <pt x="293" y="812" on="0"/>
        <pt x="294" y="824" on="0"/>
        <pt x="294" y="830" on="1"/>
        <pt x="294" y="873" on="0"/>
        <pt x="253" y="873" on="1"/>
        <pt x="221" y="873" on="0"/>
        <pt x="189" y="834" on="0"/>
        <pt x="182" y="805" on="1"/>
      </contour>
    </TTGlyph>
    <TTGlyph name="Imacron" xMin="20" yMin="0" xMax="395" yMax="896">
      <contour>
        <pt x="171" y="709" on="1"/>
        <pt x="261" y="709" on="1"/>
        <pt x="110" y="0" on="1"/>
        <pt x="20" y="0" on="1"/>
      </contour>
      <contour>
        <pt x="104" y="838" on="1"/>
        <pt x="116" y="896" on="1"/>
        <pt x="395" y="896" on="1"/>
        <pt x="382" y="838" on="1"/>
      </contour>
    </TTGlyph>
    <TTGlyph name="Iogonek" xMin="-42" yMin="-181" xMax="261" yMax="709">
      <contour>
        <pt x="171" y="709" on="1"/>
        <pt x="261" y="709" on="1"/>
        <pt x="110" y="0" on="1"/>
        <pt x="56" y="-31" on="0"/>
        <pt x="12" y="-76" on="0"/>
        <pt x="12" y="-99" on="1"/>
        <pt x="12" y="-131" on="0"/>
        <pt x="57" y="-135" on="1"/>
        <pt x="26" y="-181" on="1"/>
        <pt x="-8" y="-174" on="0"/>
        <pt x="-42" y="-139" on="0"/>
        <pt x="-42" y="-116" on="1"/>
        <pt x="-42" y="-87" on="0"/>
        <pt x="4" y="-30" on="0"/>
        <pt x="55" y="0" on="1"/>
        <pt x="20" y="0" on="1"/>
      </contour>
    </TTGlyph>
    <TTGlyph name="Itilde" xMin="20" yMin="0" xMax="423" yMax="916">
      <contour>
        <pt x="171" y="709" on="1"/>
        <pt x="261" y="709" on="1"/>
        <pt x="110" y="0" on="1"/>
        <pt x="20" y="0" on="1"/>
      </contour>
      <contour>
        <pt x="299" y="813" on="1"/>
        <pt x="278" y="813" on="0"/>
        <pt x="248" y="826" on="0"/>
        <pt x="224" y="842" on="0"/>
        <pt x="200" y="855" on="0"/>
        <pt x="185" y="855" on="1"/>
        <pt x="169" y="855" on="0"/>
        <pt x="148" y="841" on="0"/>
        <pt x="135" y="824" on="0"/>
        <pt x="129" y="808" on="0"/>
        <pt x="129" y="807" on="1"/>
        <pt x="77" y="807" on="1"/>
        <pt x="78" y="813" on="0"/>
        <pt x="94" y="847" on="0"/>
        <pt x="124" y="883" on="0"/>
        <pt x="166" y="910" on="0"/>
        <pt x="195" y="910" on="1"/>
        <pt x="215" y="910" on="0"/>
        <pt x="243" y="897" on="0"/>
        <pt x="266" y="880" on="0"/>
        <pt x="291" y="867" on="0"/>
        <pt x="308" y="867" on="1"/>
        <pt x="326" y="867" on="0"/>
        <pt x="350" y="881" on="0"/>
        <pt x="365" y="899" on="0"/>
        <pt x="372" y="914" on="0"/>
        <pt x="372" y="916" on="1"/>
        <pt x="423" y="916" on="1"/>
        <pt x="422" y="910" on="0"/>
        <pt x="406" y="877" on="0"/>
        <pt x="375" y="841" on="0"/>
        <pt x="330" y="813" on="0"/>
      </contour>
    </TTGlyph>
    <TTGlyph name="J" xMin="-39" yMin="-11" xMax="483" yMax="709">
      <contour>
        <pt x="98" y="-11" on="1"/>
        <pt x="13" y="-11" on="0"/>
        <pt x="-39" y="33" on="1"/>
        <pt x="-1" y="106" on="1"/>
        <pt x="14" y="92" on="0"/>
        <pt x="74" y="70" on="0"/>
        <pt x="115" y="70" on="1"/>
        <pt x="162" y="70" on="0"/>
        <pt x="226" y="106" on="0"/>
        <pt x="270" y="177" on="0"/>
        <pt x="301" y="281" on="0"/>
        <pt x="316" y="349" on="1"/>
        <pt x="393" y="709" on="1"/>
        <pt x="483" y="709" on="1"/>
        <pt x="406" y="349" on="1"/>
        <pt x="389" y="268" on="0"/>
        <pt x="346" y="135" on="0"/>
        <pt x="278" y="41" on="0"/>
        <pt x="175" y="-11" on="0"/>
      </contour>
    </TTGlyph>
    <TTGlyph name="J.sc" xMin="-37" yMin="-8" xMax="400" yMax="551">
      <contour>
        <pt x="82" y="-8" on="1"/>
        <pt x="8" y="-8" on="0"/>
        <pt x="-37" y="25" on="1"/>
        <pt x="-2" y="91" on="1"/>
        <pt x="10" y="81" on="0"/>
        <pt x="62" y="63" on="0"/>
        <pt x="97" y="63" on="1"/>
        <pt x="137" y="63" on="0"/>
        <pt x="189" y="90" on="0"/>
        <pt x="225" y="142" on="0"/>
        <pt x="249" y="220" on="0"/>
        <pt x="260" y="271" on="1"/>
        <pt x="320" y="551" on="1"/>
        <pt x="400" y="551" on="1"/>
        <pt x="340" y="271" on="1"/>
        <pt x="326" y="208" on="0"/>
        <pt x="292" y="105" on="0"/>
        <pt x="235" y="32" on="0"/>
        <pt x="148" y="-8" on="0"/>
      </contour>
    </TTGlyph>
    <TTGlyph name="Jcircumflex" xMin="-39" yMin="-11" xMax="590" yMax="916">
      <contour>
        <pt x="333" y="826" on="1"/>
        <pt x="449" y="916" on="1"/>
        <pt x="513" y="916" on="1"/>
        <pt x="590" y="826" on="1"/>
        <pt x="537" y="802" on="1"/>
        <pt x="470" y="865" on="1"/>
        <pt x="376" y="802" on="1"/>
      </contour>
      <contour>
        <pt x="98" y="-11" on="1"/>
        <pt x="13" y="-11" on="0"/>
        <pt x="-39" y="33" on="1"/>
        <pt x="-1" y="106" on="1"/>
        <pt x="14" y="92" on="0"/>
        <pt x="74" y="70" on="0"/>
        <pt x="115" y="70" on="1"/>
        <pt x="162" y="70" on="0"/>
        <pt x="226" y="106" on="0"/>
        <pt x="270" y="177" on="0"/>
        <pt x="301" y="281" on="0"/>
        <pt x="316" y="349" on="1"/>
        <pt x="393" y="709" on="1"/>
        <pt x="483" y="709" on="1"/>
        <pt x="406" y="349" on="1"/>
        <pt x="389" y="268" on="0"/>
        <pt x="346" y="135" on="0"/>
        <pt x="278" y="41" on="0"/>
        <pt x="175" y="-11" on="0"/>
      </contour>
    </TTGlyph>
    <TTGlyph name="K" xMin="20" yMin="0" xMax="700" yMax="710">
      <contour>
        <pt x="171" y="709" on="1"/>
        <pt x="261" y="709" on="1"/>
        <pt x="177" y="317" on="1"/>
        <pt x="602" y="710" on="1"/>
        <pt x="700" y="710" on="1"/>
        <pt x="364" y="397" on="1"/>
        <pt x="564" y="0" on="1"/>
        <pt x="465" y="0" on="1"/>
        <pt x="297" y="345" on="1"/>
        <pt x="156" y="217" on="1"/>
        <pt x="110" y="0" on="1"/>
        <pt x="20" y="0" on="1"/>
      </contour>
    </TTGlyph>
    <TTGlyph name="K.sc" xMin="14" yMin="0" xMax="585" yMax="551">
      <contour>
        <pt x="131" y="551" on="1"/>
        <pt x="211" y="551" on="1"/>
        <pt x="148" y="256" on="1"/>
        <pt x="499" y="551" on="1"/>
        <pt x="585" y="551" on="1"/>
        <pt x="304" y="308" on="1"/>
        <pt x="481" y="0" on="1"/>
        <pt x="395" y="0" on="1"/>
        <pt x="245" y="261" on="1"/>
        <pt x="130" y="168" on="1"/>
        <pt x="94" y="0" on="1"/>
        <pt x="14" y="0" on="1"/>
      </contour>
    </TTGlyph>
    <TTGlyph name="Kcommaaccent" xMin="20" yMin="-213" xMax="700" yMax="710">
      <contour>
        <pt x="198" y="-213" on="1"/>
        <pt x="235" y="-132" on="1"/>
        <pt x="210" y="-132" on="1"/>
        <pt x="228" y="-48" on="1"/>
        <pt x="305" y="-48" on="1"/>
        <pt x="287" y="-132" on="1"/>
        <pt x="241" y="-213" on="1"/>
      </contour>
      <contour>
        <pt x="171" y="709" on="1"/>
        <pt x="261" y="709" on="1"/>
        <pt x="177" y="317" on="1"/>
        <pt x="602" y="710" on="1"/>
        <pt x="700" y="710" on="1"/>
        <pt x="364" y="397" on="1"/>
        <pt x="564" y="0" on="1"/>
        <pt x="465" y="0" on="1"/>
        <pt x="297" y="345" on="1"/>
        <pt x="156" y="217" on="1"/>
        <pt x="110" y="0" on="1"/>
        <pt x="20" y="0" on="1"/>
      </contour>
    </TTGlyph>
    <TTGlyph name="L" xMin="20" yMin="0" xMax="500" yMax="710">
      <contour>
        <pt x="171" y="710" on="1"/>
        <pt x="261" y="710" on="1"/>
        <pt x="127" y="80" on="1"/>
        <pt x="500" y="80" on="1"/>
        <pt x="483" y="0" on="1"/>
        <pt x="20" y="0" on="1"/>
      </contour>
    </TTGlyph>
    <TTGlyph name="L.sc" xMin="14" yMin="0" xMax="407" yMax="551">
      <contour>
        <pt x="131" y="551" on="1"/>
        <pt x="211" y="551" on="1"/>
        <pt x="109" y="71" on="1"/>
        <pt x="407" y="71" on="1"/>
        <pt x="392" y="0" on="1"/>
        <pt x="14" y="0" on="1"/>
      </contour>
    </TTGlyph>
    <TTGlyph name="Lacute" xMin="20" yMin="0" xMax="500" yMax="916">
      <contour>
        <pt x="244" y="795" on="1"/>
        <pt x="190" y="815" on="1"/>
        <pt x="266" y="916" on="1"/>
        <pt x="353" y="916" on="1"/>
      </contour>
      <contour>
        <pt x="171" y="710" on="1"/>
        <pt x="261" y="710" on="1"/>
        <pt x="127" y="80" on="1"/>
        <pt x="500" y="80" on="1"/>
        <pt x="483" y="0" on="1"/>
        <pt x="20" y="0" on="1"/>
      </contour>
    </TTGlyph>
    <TTGlyph name="Lcaron" xMin="20" yMin="0" xMax="500" yMax="730">
      <contour>
        <pt x="317" y="629" on="1"/>
        <pt x="393" y="730" on="1"/>
        <pt x="480" y="730" on="1"/>
        <pt x="371" y="609" on="1"/>
      </contour>
      <contour>
        <pt x="171" y="710" on="1"/>
        <pt x="261" y="710" on="1"/>
        <pt x="127" y="80" on="1"/>
        <pt x="500" y="80" on="1"/>
        <pt x="483" y="0" on="1"/>
        <pt x="20" y="0" on="1"/>
      </contour>
    </TTGlyph>
    <TTGlyph name="Lcommaaccent" xMin="20" yMin="-213" xMax="500" yMax="710">
      <contour>
        <pt x="178" y="-213" on="1"/>
        <pt x="215" y="-132" on="1"/>
        <pt x="190" y="-132" on="1"/>
        <pt x="208" y="-48" on="1"/>
        <pt x="285" y="-48" on="1"/>
        <pt x="267" y="-132" on="1"/>
        <pt x="221" y="-213" on="1"/>
      </contour>
      <contour>
        <pt x="171" y="710" on="1"/>
        <pt x="261" y="710" on="1"/>
        <pt x="127" y="80" on="1"/>
        <pt x="500" y="80" on="1"/>
        <pt x="483" y="0" on="1"/>
        <pt x="20" y="0" on="1"/>
      </contour>
    </TTGlyph>
    <TTGlyph name="Ldot" xMin="20" yMin="0" xMax="500" yMax="710">
      <contour>
        <pt x="171" y="710" on="1"/>
        <pt x="261" y="710" on="1"/>
        <pt x="127" y="80" on="1"/>
        <pt x="500" y="80" on="1"/>
        <pt x="483" y="0" on="1"/>
        <pt x="20" y="0" on="1"/>
      </contour>
      <contour>
        <pt x="327" y="343" on="1"/>
        <pt x="353" y="467" on="1"/>
        <pt x="427" y="467" on="1"/>
        <pt x="401" y="343" on="1"/>
      </contour>
    </TTGlyph>
    <TTGlyph name="Lslash" xMin="9" yMin="0" xMax="507" yMax="710">
      <contour>
        <pt x="9" y="283" on="1"/>
        <pt x="100" y="345" on="1"/>
        <pt x="178" y="710" on="1"/>
        <pt x="268" y="710" on="1"/>
        <pt x="206" y="417" on="1"/>
        <pt x="360" y="523" on="1"/>
        <pt x="374" y="474" on="1"/>
        <pt x="191" y="348" on="1"/>
        <pt x="134" y="80" on="1"/>
        <pt x="507" y="80" on="1"/>
        <pt x="490" y="0" on="1"/>
        <pt x="27" y="0" on="1"/>
        <pt x="85" y="275" on="1"/>
        <pt x="24" y="233" on="1"/>
      </contour>
    </TTGlyph>
    <TTGlyph name="M" xMin="20" yMin="0" xMax="841" yMax="710">
      <contour>
        <pt x="171" y="710" on="1"/>
        <pt x="266" y="710" on="1"/>
        <pt x="408" y="249" on="1"/>
        <pt x="747" y="710" on="1"/>
        <pt x="841" y="710" on="1"/>
        <pt x="690" y="0" on="1"/>
        <pt x="600" y="0" on="1"/>
        <pt x="717" y="549" on="1"/>
        <pt x="408" y="128" on="1"/>
        <pt x="357" y="128" on="1"/>
        <pt x="227" y="549" on="1"/>
        <pt x="110" y="0" on="1"/>
        <pt x="20" y="0" on="1"/>
      </contour>
    </TTGlyph>
    <TTGlyph name="M.sc" xMin="14" yMin="0" xMax="704" yMax="551">
      <contour>
        <pt x="131" y="551" on="1"/>
        <pt x="216" y="551" on="1"/>
        <pt x="345" y="206" on="1"/>
        <pt x="620" y="551" on="1"/>
        <pt x="704" y="551" on="1"/>
        <pt x="587" y="0" on="1"/>
        <pt x="507" y="0" on="1"/>
        <pt x="594" y="409" on="1"/>
        <pt x="344" y="98" on="1"/>
        <pt x="299" y="98" on="1"/>
        <pt x="181" y="409" on="1"/>
        <pt x="94" y="0" on="1"/>
        <pt x="14" y="0" on="1"/>
      </contour>
    </TTGlyph>
    <TTGlyph name="N" xMin="20" yMin="0" xMax="742" yMax="710">
      <contour>
        <pt x="171" y="710" on="1"/>
        <pt x="241" y="710" on="1"/>
        <pt x="535" y="157" on="1"/>
        <pt x="652" y="709" on="1"/>
        <pt x="742" y="709" on="1"/>
        <pt x="591" y="0" on="1"/>
        <pt x="516" y="0" on="1"/>
        <pt x="225" y="542" on="1"/>
        <pt x="110" y="0" on="1"/>
        <pt x="20" y="0" on="1"/>
      </contour>
    </TTGlyph>
    <TTGlyph name="N.sc" xMin="14" yMin="0" xMax="620" yMax="551">
      <contour>
        <pt x="131" y="551" on="1"/>
        <pt x="193" y="551" on="1"/>
        <pt x="453" y="141" on="1"/>
        <pt x="540" y="551" on="1"/>
        <pt x="620" y="551" on="1"/>
        <pt x="503" y="0" on="1"/>
        <pt x="436" y="0" on="1"/>
        <pt x="179" y="402" on="1"/>
        <pt x="94" y="0" on="1"/>
        <pt x="14" y="0" on="1"/>
      </contour>
    </TTGlyph>
    <TTGlyph name="Nacute" xMin="20" yMin="0" xMax="742" yMax="916">
      <contour>
        <pt x="481" y="795" on="1"/>
        <pt x="427" y="815" on="1"/>
        <pt x="503" y="916" on="1"/>
        <pt x="590" y="916" on="1"/>
      </contour>
      <contour>
        <pt x="171" y="710" on="1"/>
        <pt x="241" y="710" on="1"/>
        <pt x="535" y="157" on="1"/>
        <pt x="652" y="709" on="1"/>
        <pt x="742" y="709" on="1"/>
        <pt x="591" y="0" on="1"/>
        <pt x="516" y="0" on="1"/>
        <pt x="225" y="542" on="1"/>
        <pt x="110" y="0" on="1"/>
        <pt x="20" y="0" on="1"/>
      </contour>
    </TTGlyph>
    <TTGlyph name="Ncaron" xMin="20" yMin="0" xMax="742" yMax="916">
      <contour>
        <pt x="358" y="892" on="1"/>
        <pt x="411" y="916" on="1"/>
        <pt x="478" y="853" on="1"/>
        <pt x="572" y="916" on="1"/>
        <pt x="615" y="892" on="1"/>
        <pt x="499" y="802" on="1"/>
        <pt x="435" y="802" on="1"/>
      </contour>
      <contour>
        <pt x="171" y="710" on="1"/>
        <pt x="241" y="710" on="1"/>
        <pt x="535" y="157" on="1"/>
        <pt x="652" y="709" on="1"/>
        <pt x="742" y="709" on="1"/>
        <pt x="591" y="0" on="1"/>
        <pt x="516" y="0" on="1"/>
        <pt x="225" y="542" on="1"/>
        <pt x="110" y="0" on="1"/>
        <pt x="20" y="0" on="1"/>
      </contour>
    </TTGlyph>
    <TTGlyph name="Ncommaaccent" xMin="20" yMin="-213" xMax="742" yMax="710">
      <contour>
        <pt x="228" y="-213" on="1"/>
        <pt x="265" y="-132" on="1"/>
        <pt x="240" y="-132" on="1"/>
        <pt x="258" y="-48" on="1"/>
        <pt x="335" y="-48" on="1"/>
        <pt x="317" y="-132" on="1"/>
        <pt x="271" y="-213" on="1"/>
      </contour>
      <contour>
        <pt x="171" y="710" on="1"/>
        <pt x="241" y="710" on="1"/>
        <pt x="535" y="157" on="1"/>
        <pt x="652" y="709" on="1"/>
        <pt x="742" y="709" on="1"/>
        <pt x="591" y="0" on="1"/>
        <pt x="516" y="0" on="1"/>
        <pt x="225" y="542" on="1"/>
        <pt x="110" y="0" on="1"/>
        <pt x="20" y="0" on="1"/>
      </contour>
    </TTGlyph>
    <TTGlyph name="Ndotaccent" xMin="20" yMin="0" xMax="742" yMax="916">
      <contour>
        <pt x="434" y="810" on="1"/>
        <pt x="457" y="916" on="1"/>
        <pt x="536" y="916" on="1"/>
        <pt x="514" y="810" on="1"/>
      </contour>
      <contour>
        <pt x="171" y="710" on="1"/>
        <pt x="241" y="710" on="1"/>
        <pt x="535" y="157" on="1"/>
        <pt x="652" y="709" on="1"/>
        <pt x="742" y="709" on="1"/>
        <pt x="591" y="0" on="1"/>
        <pt x="516" y="0" on="1"/>
        <pt x="225" y="542" on="1"/>
        <pt x="110" y="0" on="1"/>
        <pt x="20" y="0" on="1"/>
      </contour>
    </TTGlyph>
    <TTGlyph name="Ntilde" xMin="20" yMin="0" xMax="742" yMax="916">
      <contour>
        <pt x="171" y="710" on="1"/>
        <pt x="241" y="710" on="1"/>
        <pt x="535" y="157" on="1"/>
        <pt x="652" y="709" on="1"/>
        <pt x="742" y="709" on="1"/>
        <pt x="591" y="0" on="1"/>
        <pt x="516" y="0" on="1"/>
        <pt x="225" y="542" on="1"/>
        <pt x="110" y="0" on="1"/>
        <pt x="20" y="0" on="1"/>
      </contour>
      <contour>
        <pt x="538" y="813" on="1"/>
        <pt x="517" y="813" on="0"/>
        <pt x="487" y="826" on="0"/>
        <pt x="463" y="842" on="0"/>
        <pt x="439" y="855" on="0"/>
        <pt x="424" y="855" on="1"/>
        <pt x="408" y="855" on="0"/>
        <pt x="387" y="841" on="0"/>
        <pt x="374" y="824" on="0"/>
        <pt x="368" y="808" on="0"/>
        <pt x="368" y="807" on="1"/>
        <pt x="316" y="807" on="1"/>
        <pt x="317" y="813" on="0"/>
        <pt x="333" y="847" on="0"/>
        <pt x="363" y="883" on="0"/>
        <pt x="405" y="910" on="0"/>
        <pt x="434" y="910" on="1"/>
        <pt x="454" y="910" on="0"/>
        <pt x="482" y="897" on="0"/>
        <pt x="505" y="880" on="0"/>
        <pt x="530" y="867" on="0"/>
        <pt x="547" y="867" on="1"/>
        <pt x="565" y="867" on="0"/>
        <pt x="589" y="881" on="0"/>
        <pt x="604" y="899" on="0"/>
        <pt x="611" y="914" on="0"/>
        <pt x="611" y="916" on="1"/>
        <pt x="662" y="916" on="1"/>
        <pt x="661" y="910" on="0"/>
        <pt x="645" y="877" on="0"/>
        <pt x="614" y="841" on="0"/>
        <pt x="569" y="813" on="0"/>
      </contour>
    </TTGlyph>
    <TTGlyph name="O" xMin="44" yMin="-5" xMax="699" yMax="715">
      <contour>
        <pt x="295" y="-5" on="1"/>
        <pt x="235" y="-5" on="0"/>
        <pt x="141" y="44" on="0"/>
        <pt x="77" y="125" on="0"/>
        <pt x="44" y="231" on="0"/>
        <pt x="44" y="288" on="1"/>
        <pt x="44" y="369" on="0"/>
        <pt x="112" y="523" on="0"/>
        <pt x="225" y="643" on="0"/>
        <pt x="372" y="715" on="0"/>
        <pt x="450" y="715" on="1"/>
        <pt x="510" y="715" on="0"/>
        <pt x="603" y="665" on="0"/>
        <pt x="666" y="583" on="0"/>
        <pt x="699" y="477" on="0"/>
        <pt x="699" y="420" on="1"/>
        <pt x="699" y="339" on="0"/>
        <pt x="632" y="186" on="0"/>
        <pt x="519" y="67" on="0"/>
        <pt x="373" y="-5" on="0"/>
      </contour>
      <contour>
        <pt x="313" y="76" on="1"/>
        <pt x="374" y="76" on="0"/>
        <pt x="482" y="137" on="0"/>
        <pt x="561" y="234" on="0"/>
        <pt x="607" y="354" on="0"/>
        <pt x="607" y="413" on="1"/>
        <pt x="607" y="457" on="0"/>
        <pt x="584" y="537" on="0"/>
        <pt x="539" y="597" on="0"/>
        <pt x="473" y="633" on="0"/>
        <pt x="431" y="633" on="1"/>
        <pt x="369" y="633" on="0"/>
        <pt x="262" y="573" on="0"/>
        <pt x="182" y="476" on="0"/>
        <pt x="136" y="356" on="0"/>
        <pt x="136" y="296" on="1"/>
        <pt x="136" y="252" on="0"/>
        <pt x="159" y="172" on="0"/>
        <pt x="204" y="112" on="0"/>
        <pt x="270" y="76" on="0"/>
      </contour>
    </TTGlyph>
    <TTGlyph name="O.sc" xMin="29" yMin="-4" xMax="584" yMax="554">
      <contour>
        <pt x="247" y="-4" on="1"/>
        <pt x="195" y="-4" on="0"/>
        <pt x="114" y="34" on="0"/>
        <pt x="58" y="99" on="0"/>
        <pt x="29" y="183" on="0"/>
        <pt x="29" y="228" on="1"/>
        <pt x="29" y="290" on="0"/>
        <pt x="85" y="408" on="0"/>
        <pt x="178" y="499" on="0"/>
        <pt x="301" y="554" on="0"/>
        <pt x="367" y="554" on="1"/>
        <pt x="419" y="554" on="0"/>
        <pt x="500" y="515" on="0"/>
        <pt x="556" y="450" on="0"/>
        <pt x="584" y="366" on="0"/>
        <pt x="584" y="321" on="1"/>
        <pt x="584" y="259" on="0"/>
        <pt x="528" y="142" on="0"/>
        <pt x="435" y="51" on="0"/>
        <pt x="313" y="-4" on="0"/>
      </contour>
      <contour>
        <pt x="264" y="68" on="1"/>
        <pt x="315" y="68" on="0"/>
        <pt x="402" y="113" on="0"/>
        <pt x="466" y="183" on="0"/>
        <pt x="502" y="271" on="0"/>
        <pt x="502" y="314" on="1"/>
        <pt x="502" y="348" on="0"/>
        <pt x="482" y="409" on="0"/>
        <pt x="443" y="455" on="0"/>
        <pt x="387" y="482" on="0"/>
        <pt x="351" y="482" on="1"/>
        <pt x="300" y="482" on="0"/>
        <pt x="213" y="438" on="0"/>
        <pt x="148" y="368" on="0"/>
        <pt x="111" y="280" on="0"/>
        <pt x="111" y="236" on="1"/>
        <pt x="111" y="203" on="0"/>
        <pt x="131" y="142" on="0"/>
        <pt x="170" y="95" on="0"/>
        <pt x="227" y="68" on="0"/>
      </contour>
    </TTGlyph>
    <TTGlyph name="OE" xMin="44" yMin="-5" xMax="1119" yMax="715">
      <contour>
        <pt x="295" y="-5" on="1"/>
        <pt x="235" y="-5" on="0"/>
        <pt x="141" y="44" on="0"/>
        <pt x="77" y="125" on="0"/>
        <pt x="44" y="231" on="0"/>
        <pt x="44" y="288" on="1"/>
        <pt x="44" y="369" on="0"/>
        <pt x="112" y="523" on="0"/>
        <pt x="224" y="643" on="0"/>
        <pt x="371" y="715" on="0"/>
        <pt x="449" y="715" on="1"/>
        <pt x="488" y="715" on="0"/>
        <pt x="552" y="690" on="0"/>
        <pt x="601" y="646" on="0"/>
        <pt x="634" y="587" on="0"/>
        <pt x="643" y="553" on="1"/>
        <pt x="676" y="710" on="1"/>
        <pt x="1119" y="710" on="1"/>
        <pt x="1102" y="630" on="1"/>
        <pt x="749" y="630" on="1"/>
        <pt x="701" y="402" on="1"/>
        <pt x="1002" y="402" on="1"/>
        <pt x="985" y="322" on="1"/>
        <pt x="684" y="322" on="1"/>
        <pt x="632" y="80" on="1"/>
        <pt x="993" y="80" on="1"/>
        <pt x="976" y="0" on="1"/>
        <pt x="525" y="0" on="1"/>
        <pt x="559" y="157" on="1"/>
        <pt x="535" y="122" on="0"/>
        <pt x="475" y="63" on="0"/>
        <pt x="407" y="20" on="0"/>
        <pt x="333" y="-5" on="0"/>
      </contour>
      <contour>
        <pt x="312" y="76" on="1"/>
        <pt x="373" y="76" on="0"/>
        <pt x="481" y="137" on="0"/>
        <pt x="560" y="234" on="0"/>
        <pt x="606" y="354" on="0"/>
        <pt x="606" y="414" on="1"/>
        <pt x="606" y="458" on="0"/>
        <pt x="583" y="538" on="0"/>
        <pt x="538" y="598" on="0"/>
        <pt x="473" y="634" on="0"/>
        <pt x="431" y="634" on="1"/>
        <pt x="369" y="634" on="0"/>
        <pt x="262" y="573" on="0"/>
        <pt x="182" y="477" on="0"/>
        <pt x="136" y="356" on="0"/>
        <pt x="136" y="296" on="1"/>
        <pt x="136" y="252" on="0"/>
        <pt x="159" y="172" on="0"/>
        <pt x="204" y="112" on="0"/>
        <pt x="269" y="76" on="0"/>
      </contour>
    </TTGlyph>
    <TTGlyph name="Oacute" xMin="44" yMin="-5" xMax="699" yMax="916">
      <contour>
        <pt x="474" y="795" on="1"/>
        <pt x="420" y="815" on="1"/>
        <pt x="496" y="916" on="1"/>
        <pt x="583" y="916" on="1"/>
      </contour>
      <contour>
        <pt x="295" y="-5" on="1"/>
        <pt x="235" y="-5" on="0"/>
        <pt x="141" y="44" on="0"/>
        <pt x="77" y="125" on="0"/>
        <pt x="44" y="231" on="0"/>
        <pt x="44" y="288" on="1"/>
        <pt x="44" y="369" on="0"/>
        <pt x="112" y="523" on="0"/>
        <pt x="225" y="643" on="0"/>
        <pt x="372" y="715" on="0"/>
        <pt x="450" y="715" on="1"/>
        <pt x="510" y="715" on="0"/>
        <pt x="603" y="665" on="0"/>
        <pt x="666" y="583" on="0"/>
        <pt x="699" y="477" on="0"/>
        <pt x="699" y="420" on="1"/>
        <pt x="699" y="339" on="0"/>
        <pt x="632" y="186" on="0"/>
        <pt x="519" y="67" on="0"/>
        <pt x="373" y="-5" on="0"/>
      </contour>
      <contour>
        <pt x="313" y="76" on="1"/>
        <pt x="374" y="76" on="0"/>
        <pt x="482" y="137" on="0"/>
        <pt x="561" y="234" on="0"/>
        <pt x="607" y="354" on="0"/>
        <pt x="607" y="413" on="1"/>
        <pt x="607" y="457" on="0"/>
        <pt x="584" y="537" on="0"/>
        <pt x="539" y="597" on="0"/>
        <pt x="473" y="633" on="0"/>
        <pt x="431" y="633" on="1"/>
        <pt x="369" y="633" on="0"/>
        <pt x="262" y="573" on="0"/>
        <pt x="182" y="476" on="0"/>
        <pt x="136" y="356" on="0"/>
        <pt x="136" y="296" on="1"/>
        <pt x="136" y="252" on="0"/>
        <pt x="159" y="172" on="0"/>
        <pt x="204" y="112" on="0"/>
        <pt x="270" y="76" on="0"/>
      </contour>
    </TTGlyph>
    <TTGlyph name="Obreve" xMin="44" yMin="-5" xMax="699" yMax="916">
      <contour>
        <pt x="295" y="-5" on="1"/>
        <pt x="235" y="-5" on="0"/>
        <pt x="141" y="44" on="0"/>
        <pt x="77" y="125" on="0"/>
        <pt x="44" y="231" on="0"/>
        <pt x="44" y="288" on="1"/>
        <pt x="44" y="369" on="0"/>
        <pt x="112" y="523" on="0"/>
        <pt x="225" y="643" on="0"/>
        <pt x="372" y="715" on="0"/>
        <pt x="450" y="715" on="1"/>
        <pt x="510" y="715" on="0"/>
        <pt x="603" y="665" on="0"/>
        <pt x="666" y="583" on="0"/>
        <pt x="699" y="477" on="0"/>
        <pt x="699" y="420" on="1"/>
        <pt x="699" y="339" on="0"/>
        <pt x="632" y="186" on="0"/>
        <pt x="519" y="67" on="0"/>
        <pt x="373" y="-5" on="0"/>
      </contour>
      <contour>
        <pt x="313" y="76" on="1"/>
        <pt x="374" y="76" on="0"/>
        <pt x="482" y="137" on="0"/>
        <pt x="561" y="234" on="0"/>
        <pt x="607" y="354" on="0"/>
        <pt x="607" y="413" on="1"/>
        <pt x="607" y="457" on="0"/>
        <pt x="584" y="537" on="0"/>
        <pt x="539" y="597" on="0"/>
        <pt x="473" y="633" on="0"/>
        <pt x="431" y="633" on="1"/>
        <pt x="369" y="633" on="0"/>
        <pt x="262" y="573" on="0"/>
        <pt x="182" y="476" on="0"/>
        <pt x="136" y="356" on="0"/>
        <pt x="136" y="296" on="1"/>
        <pt x="136" y="252" on="0"/>
        <pt x="159" y="172" on="0"/>
        <pt x="204" y="112" on="0"/>
        <pt x="270" y="76" on="0"/>
      </contour>
      <contour>
        <pt x="472" y="848" on="1"/>
        <pt x="492" y="848" on="0"/>
        <pt x="532" y="887" on="0"/>
        <pt x="541" y="916" on="1"/>
        <pt x="591" y="916" on="1"/>
        <pt x="586" y="892" on="0"/>
        <pt x="561" y="852" on="0"/>
        <pt x="527" y="822" on="0"/>
        <pt x="485" y="805" on="0"/>
        <pt x="463" y="805" on="1"/>
        <pt x="424" y="805" on="0"/>
        <pt x="378" y="852" on="0"/>
        <pt x="378" y="890" on="1"/>
        <pt x="378" y="902" on="0"/>
        <pt x="381" y="916" on="1"/>
        <pt x="432" y="916" on="1"/>
        <pt x="431" y="911" on="0"/>
        <pt x="430" y="904" on="0"/>
        <pt x="430" y="899" on="1"/>
        <pt x="430" y="878" on="0"/>
        <pt x="453" y="848" on="0"/>
      </contour>
    </TTGlyph>
    <TTGlyph name="Ocircumflex" xMin="44" yMin="-5" xMax="699" yMax="916">
      <contour>
        <pt x="352" y="826" on="1"/>
        <pt x="468" y="916" on="1"/>
        <pt x="532" y="916" on="1"/>
        <pt x="609" y="826" on="1"/>
        <pt x="556" y="802" on="1"/>
        <pt x="489" y="865" on="1"/>
        <pt x="395" y="802" on="1"/>
      </contour>
      <contour>
        <pt x="295" y="-5" on="1"/>
        <pt x="235" y="-5" on="0"/>
        <pt x="141" y="44" on="0"/>
        <pt x="77" y="125" on="0"/>
        <pt x="44" y="231" on="0"/>
        <pt x="44" y="288" on="1"/>
        <pt x="44" y="369" on="0"/>
        <pt x="112" y="523" on="0"/>
        <pt x="225" y="643" on="0"/>
        <pt x="372" y="715" on="0"/>
        <pt x="450" y="715" on="1"/>
        <pt x="510" y="715" on="0"/>
        <pt x="603" y="665" on="0"/>
        <pt x="666" y="583" on="0"/>
        <pt x="699" y="477" on="0"/>
        <pt x="699" y="420" on="1"/>
        <pt x="699" y="339" on="0"/>
        <pt x="632" y="186" on="0"/>
        <pt x="519" y="67" on="0"/>
        <pt x="373" y="-5" on="0"/>
      </contour>
      <contour>
        <pt x="313" y="76" on="1"/>
        <pt x="374" y="76" on="0"/>
        <pt x="482" y="137" on="0"/>
        <pt x="561" y="234" on="0"/>
        <pt x="607" y="354" on="0"/>
        <pt x="607" y="413" on="1"/>
        <pt x="607" y="457" on="0"/>
        <pt x="584" y="537" on="0"/>
        <pt x="539" y="597" on="0"/>
        <pt x="473" y="633" on="0"/>
        <pt x="431" y="633" on="1"/>
        <pt x="369" y="633" on="0"/>
        <pt x="262" y="573" on="0"/>
        <pt x="182" y="476" on="0"/>
        <pt x="136" y="356" on="0"/>
        <pt x="136" y="296" on="1"/>
        <pt x="136" y="252" on="0"/>
        <pt x="159" y="172" on="0"/>
        <pt x="204" y="112" on="0"/>
        <pt x="270" y="76" on="0"/>
      </contour>
    </TTGlyph>
    <TTGlyph name="Odblgrave" xMin="44" yMin="-5" xMax="699" yMax="918">
      <contour>
        <pt x="295" y="-5" on="1"/>
        <pt x="235" y="-5" on="0"/>
        <pt x="141" y="44" on="0"/>
        <pt x="77" y="125" on="0"/>
        <pt x="44" y="231" on="0"/>
        <pt x="44" y="288" on="1"/>
        <pt x="44" y="369" on="0"/>
        <pt x="112" y="523" on="0"/>
        <pt x="225" y="643" on="0"/>
        <pt x="372" y="715" on="0"/>
        <pt x="450" y="715" on="1"/>
        <pt x="510" y="715" on="0"/>
        <pt x="603" y="665" on="0"/>
        <pt x="666" y="583" on="0"/>
        <pt x="699" y="477" on="0"/>
        <pt x="699" y="420" on="1"/>
        <pt x="699" y="339" on="0"/>
        <pt x="632" y="186" on="0"/>
        <pt x="519" y="67" on="0"/>
        <pt x="373" y="-5" on="0"/>
      </contour>
      <contour>
        <pt x="313" y="76" on="1"/>
        <pt x="374" y="76" on="0"/>
        <pt x="482" y="137" on="0"/>
        <pt x="561" y="234" on="0"/>
        <pt x="607" y="354" on="0"/>
        <pt x="607" y="413" on="1"/>
        <pt x="607" y="457" on="0"/>
        <pt x="584" y="537" on="0"/>
        <pt x="539" y="597" on="0"/>
        <pt x="473" y="633" on="0"/>
        <pt x="431" y="633" on="1"/>
        <pt x="369" y="633" on="0"/>
        <pt x="262" y="573" on="0"/>
        <pt x="182" y="476" on="0"/>
        <pt x="136" y="356" on="0"/>
        <pt x="136" y="296" on="1"/>
        <pt x="136" y="252" on="0"/>
        <pt x="159" y="172" on="0"/>
        <pt x="204" y="112" on="0"/>
        <pt x="270" y="76" on="0"/>
      </contour>
      <contour>
        <pt x="494" y="918" on="1"/>
        <pt x="568" y="918" on="1"/>
        <pt x="598" y="817" on="1"/>
        <pt x="548" y="797" on="1"/>
      </contour>
      <contour>
        <pt x="362" y="918" on="1"/>
        <pt x="437" y="918" on="1"/>
        <pt x="466" y="817" on="1"/>
        <pt x="416" y="797" on="1"/>
      </contour>
    </TTGlyph>
    <TTGlyph name="Odieresis" xMin="44" yMin="-5" xMax="699" yMax="913">
      <contour>
        <pt x="356" y="811" on="1"/>
        <pt x="378" y="913" on="1"/>
        <pt x="452" y="913" on="1"/>
        <pt x="430" y="811" on="1"/>
      </contour>
      <contour>
        <pt x="513" y="811" on="1"/>
        <pt x="535" y="913" on="1"/>
        <pt x="608" y="913" on="1"/>
        <pt x="587" y="811" on="1"/>
      </contour>
      <contour>
        <pt x="295" y="-5" on="1"/>
        <pt x="235" y="-5" on="0"/>
        <pt x="141" y="44" on="0"/>
        <pt x="77" y="125" on="0"/>
        <pt x="44" y="231" on="0"/>
        <pt x="44" y="288" on="1"/>
        <pt x="44" y="369" on="0"/>
        <pt x="112" y="523" on="0"/>
        <pt x="225" y="643" on="0"/>
        <pt x="372" y="715" on="0"/>
        <pt x="450" y="715" on="1"/>
        <pt x="510" y="715" on="0"/>
        <pt x="603" y="665" on="0"/>
        <pt x="666" y="583" on="0"/>
        <pt x="699" y="477" on="0"/>
        <pt x="699" y="420" on="1"/>
        <pt x="699" y="339" on="0"/>
        <pt x="632" y="186" on="0"/>
        <pt x="519" y="67" on="0"/>
        <pt x="373" y="-5" on="0"/>
      </contour>
      <contour>
        <pt x="313" y="76" on="1"/>
        <pt x="374" y="76" on="0"/>
        <pt x="482" y="137" on="0"/>
        <pt x="561" y="234" on="0"/>
        <pt x="607" y="354" on="0"/>
        <pt x="607" y="413" on="1"/>
        <pt x="607" y="457" on="0"/>
        <pt x="584" y="537" on="0"/>
        <pt x="539" y="597" on="0"/>
        <pt x="473" y="633" on="0"/>
        <pt x="431" y="633" on="1"/>
        <pt x="369" y="633" on="0"/>
        <pt x="262" y="573" on="0"/>
        <pt x="182" y="476" on="0"/>
        <pt x="136" y="356" on="0"/>
        <pt x="136" y="296" on="1"/>
        <pt x="136" y="252" on="0"/>
        <pt x="159" y="172" on="0"/>
        <pt x="204" y="112" on="0"/>
        <pt x="270" y="76" on="0"/>
      </contour>
    </TTGlyph>
    <TTGlyph name="Odotbelow" xMin="44" yMin="-182" xMax="699" yMax="715">
      <contour>
        <pt x="295" y="-5" on="1"/>
        <pt x="235" y="-5" on="0"/>
        <pt x="141" y="44" on="0"/>
        <pt x="77" y="125" on="0"/>
        <pt x="44" y="231" on="0"/>
        <pt x="44" y="288" on="1"/>
        <pt x="44" y="369" on="0"/>
        <pt x="112" y="523" on="0"/>
        <pt x="225" y="643" on="0"/>
        <pt x="372" y="715" on="0"/>
        <pt x="450" y="715" on="1"/>
        <pt x="510" y="715" on="0"/>
        <pt x="603" y="665" on="0"/>
        <pt x="666" y="583" on="0"/>
        <pt x="699" y="477" on="0"/>
        <pt x="699" y="420" on="1"/>
        <pt x="699" y="339" on="0"/>
        <pt x="632" y="186" on="0"/>
        <pt x="519" y="67" on="0"/>
        <pt x="373" y="-5" on="0"/>
      </contour>
      <contour>
        <pt x="313" y="76" on="1"/>
        <pt x="374" y="76" on="0"/>
        <pt x="482" y="137" on="0"/>
        <pt x="561" y="234" on="0"/>
        <pt x="607" y="354" on="0"/>
        <pt x="607" y="413" on="1"/>
        <pt x="607" y="457" on="0"/>
        <pt x="584" y="537" on="0"/>
        <pt x="539" y="597" on="0"/>
        <pt x="473" y="633" on="0"/>
        <pt x="431" y="633" on="1"/>
        <pt x="369" y="633" on="0"/>
        <pt x="262" y="573" on="0"/>
        <pt x="182" y="476" on="0"/>
        <pt x="136" y="356" on="0"/>
        <pt x="136" y="296" on="1"/>
        <pt x="136" y="252" on="0"/>
        <pt x="159" y="172" on="0"/>
        <pt x="204" y="112" on="0"/>
        <pt x="270" y="76" on="0"/>
      </contour>
      <contour>
        <pt x="225" y="-182" on="1"/>
        <pt x="248" y="-76" on="1"/>
        <pt x="327" y="-76" on="1"/>
        <pt x="305" y="-182" on="1"/>
      </contour>
    </TTGlyph>
    <TTGlyph name="Ograve" xMin="44" yMin="-5" xMax="699" yMax="917">
      <contour>
        <pt x="295" y="-5" on="1"/>
        <pt x="235" y="-5" on="0"/>
        <pt x="141" y="44" on="0"/>
        <pt x="77" y="125" on="0"/>
        <pt x="44" y="231" on="0"/>
        <pt x="44" y="288" on="1"/>
        <pt x="44" y="369" on="0"/>
        <pt x="112" y="523" on="0"/>
        <pt x="225" y="643" on="0"/>
        <pt x="372" y="715" on="0"/>
        <pt x="450" y="715" on="1"/>
        <pt x="510" y="715" on="0"/>
        <pt x="603" y="665" on="0"/>
        <pt x="666" y="583" on="0"/>
        <pt x="699" y="477" on="0"/>
        <pt x="699" y="420" on="1"/>
        <pt x="699" y="339" on="0"/>
        <pt x="632" y="186" on="0"/>
        <pt x="519" y="67" on="0"/>
        <pt x="373" y="-5" on="0"/>
      </contour>
      <contour>
        <pt x="313" y="76" on="1"/>
        <pt x="374" y="76" on="0"/>
        <pt x="482" y="137" on="0"/>
        <pt x="561" y="234" on="0"/>
        <pt x="607" y="354" on="0"/>
        <pt x="607" y="413" on="1"/>
        <pt x="607" y="457" on="0"/>
        <pt x="584" y="537" on="0"/>
        <pt x="539" y="597" on="0"/>
        <pt x="473" y="633" on="0"/>
        <pt x="431" y="633" on="1"/>
        <pt x="369" y="633" on="0"/>
        <pt x="262" y="573" on="0"/>
        <pt x="182" y="476" on="0"/>
        <pt x="136" y="356" on="0"/>
        <pt x="136" y="296" on="1"/>
        <pt x="136" y="252" on="0"/>
        <pt x="159" y="172" on="0"/>
        <pt x="204" y="112" on="0"/>
        <pt x="270" y="76" on="0"/>
      </contour>
      <contour>
        <pt x="421" y="917" on="1"/>
        <pt x="507" y="917" on="1"/>
        <pt x="541" y="816" on="1"/>
        <pt x="480" y="796" on="1"/>
      </contour>
    </TTGlyph>
    <TTGlyph name="Ohungarumlaut" xMin="44" yMin="-5" xMax="699" yMax="917">
      <contour>
        <pt x="408" y="796" on="1"/>
        <pt x="367" y="816" on="1"/>
        <pt x="439" y="917" on="1"/>
        <pt x="514" y="917" on="1"/>
      </contour>
      <contour>
        <pt x="540" y="796" on="1"/>
        <pt x="499" y="816" on="1"/>
        <pt x="571" y="917" on="1"/>
        <pt x="646" y="917" on="1"/>
      </contour>
      <contour>
        <pt x="295" y="-5" on="1"/>
        <pt x="235" y="-5" on="0"/>
        <pt x="141" y="44" on="0"/>
        <pt x="77" y="125" on="0"/>
        <pt x="44" y="231" on="0"/>
        <pt x="44" y="288" on="1"/>
        <pt x="44" y="369" on="0"/>
        <pt x="112" y="523" on="0"/>
        <pt x="225" y="643" on="0"/>
        <pt x="372" y="715" on="0"/>
        <pt x="450" y="715" on="1"/>
        <pt x="510" y="715" on="0"/>
        <pt x="603" y="665" on="0"/>
        <pt x="666" y="583" on="0"/>
        <pt x="699" y="477" on="0"/>
        <pt x="699" y="420" on="1"/>
        <pt x="699" y="339" on="0"/>
        <pt x="632" y="186" on="0"/>
        <pt x="519" y="67" on="0"/>
        <pt x="373" y="-5" on="0"/>
      </contour>
      <contour>
        <pt x="313" y="76" on="1"/>
        <pt x="374" y="76" on="0"/>
        <pt x="482" y="137" on="0"/>
        <pt x="561" y="234" on="0"/>
        <pt x="607" y="354" on="0"/>
        <pt x="607" y="413" on="1"/>
        <pt x="607" y="457" on="0"/>
        <pt x="584" y="537" on="0"/>
        <pt x="539" y="597" on="0"/>
        <pt x="473" y="633" on="0"/>
        <pt x="431" y="633" on="1"/>
        <pt x="369" y="633" on="0"/>
        <pt x="262" y="573" on="0"/>
        <pt x="182" y="476" on="0"/>
        <pt x="136" y="356" on="0"/>
        <pt x="136" y="296" on="1"/>
        <pt x="136" y="252" on="0"/>
        <pt x="159" y="172" on="0"/>
        <pt x="204" y="112" on="0"/>
        <pt x="270" y="76" on="0"/>
      </contour>
    </TTGlyph>
    <TTGlyph name="Oinvertedbreve" xMin="44" yMin="-5" xMax="699" yMax="916">
      <contour>
        <pt x="295" y="-5" on="1"/>
        <pt x="235" y="-5" on="0"/>
        <pt x="141" y="44" on="0"/>
        <pt x="77" y="125" on="0"/>
        <pt x="44" y="231" on="0"/>
        <pt x="44" y="288" on="1"/>
        <pt x="44" y="369" on="0"/>
        <pt x="112" y="523" on="0"/>
        <pt x="225" y="643" on="0"/>
        <pt x="372" y="715" on="0"/>
        <pt x="450" y="715" on="1"/>
        <pt x="510" y="715" on="0"/>
        <pt x="603" y="665" on="0"/>
        <pt x="666" y="583" on="0"/>
        <pt x="699" y="477" on="0"/>
        <pt x="699" y="420" on="1"/>
        <pt x="699" y="339" on="0"/>
        <pt x="632" y="186" on="0"/>
        <pt x="519" y="67" on="0"/>
        <pt x="373" y="-5" on="0"/>
      </contour>
      <contour>
        <pt x="313" y="76" on="1"/>
        <pt x="374" y="76" on="0"/>
        <pt x="482" y="137" on="0"/>
        <pt x="561" y="234" on="0"/>
        <pt x="607" y="354" on="0"/>
        <pt x="607" y="413" on="1"/>
        <pt x="607" y="457" on="0"/>
        <pt x="584" y="537" on="0"/>
        <pt x="539" y="597" on="0"/>
        <pt x="473" y="633" on="0"/>
        <pt x="431" y="633" on="1"/>
        <pt x="369" y="633" on="0"/>
        <pt x="262" y="573" on="0"/>
        <pt x="182" y="476" on="0"/>
        <pt x="136" y="356" on="0"/>
        <pt x="136" y="296" on="1"/>
        <pt x="136" y="252" on="0"/>
        <pt x="159" y="172" on="0"/>
        <pt x="204" y="112" on="0"/>
        <pt x="270" y="76" on="0"/>
      </contour>
      <contour>
        <pt x="377" y="805" on="1"/>
        <pt x="382" y="829" on="0"/>
        <pt x="406" y="869" on="0"/>
        <pt x="441" y="899" on="0"/>
        <pt x="482" y="916" on="0"/>
        <pt x="504" y="916" on="1"/>
        <pt x="542" y="916" on="0"/>
        <pt x="589" y="865" on="0"/>
        <pt x="589" y="829" on="1"/>
        <pt x="589" y="817" on="0"/>
        <pt x="586" y="805" on="1"/>
        <pt x="537" y="805" on="1"/>
        <pt x="538" y="812" on="0"/>
        <pt x="539" y="824" on="0"/>
        <pt x="539" y="830" on="1"/>
        <pt x="539" y="873" on="0"/>
        <pt x="498" y="873" on="1"/>
        <pt x="466" y="873" on="0"/>
        <pt x="434" y="834" on="0"/>
        <pt x="427" y="805" on="1"/>
      </contour>
    </TTGlyph>
    <TTGlyph name="Omacron" xMin="44" yMin="-5" xMax="699" yMax="896">
      <contour>
        <pt x="340" y="838" on="1"/>
        <pt x="352" y="896" on="1"/>
        <pt x="631" y="896" on="1"/>
        <pt x="618" y="838" on="1"/>
      </contour>
      <contour>
        <pt x="295" y="-5" on="1"/>
        <pt x="235" y="-5" on="0"/>
        <pt x="141" y="44" on="0"/>
        <pt x="77" y="125" on="0"/>
        <pt x="44" y="231" on="0"/>
        <pt x="44" y="288" on="1"/>
        <pt x="44" y="369" on="0"/>
        <pt x="112" y="523" on="0"/>
        <pt x="225" y="643" on="0"/>
        <pt x="372" y="715" on="0"/>
        <pt x="450" y="715" on="1"/>
        <pt x="510" y="715" on="0"/>
        <pt x="603" y="665" on="0"/>
        <pt x="666" y="583" on="0"/>
        <pt x="699" y="477" on="0"/>
        <pt x="699" y="420" on="1"/>
        <pt x="699" y="339" on="0"/>
        <pt x="632" y="186" on="0"/>
        <pt x="519" y="67" on="0"/>
        <pt x="373" y="-5" on="0"/>
      </contour>
      <contour>
        <pt x="313" y="76" on="1"/>
        <pt x="374" y="76" on="0"/>
        <pt x="482" y="137" on="0"/>
        <pt x="561" y="234" on="0"/>
        <pt x="607" y="354" on="0"/>
        <pt x="607" y="413" on="1"/>
        <pt x="607" y="457" on="0"/>
        <pt x="584" y="537" on="0"/>
        <pt x="539" y="597" on="0"/>
        <pt x="473" y="633" on="0"/>
        <pt x="431" y="633" on="1"/>
        <pt x="369" y="633" on="0"/>
        <pt x="262" y="573" on="0"/>
        <pt x="182" y="476" on="0"/>
        <pt x="136" y="356" on="0"/>
        <pt x="136" y="296" on="1"/>
        <pt x="136" y="252" on="0"/>
        <pt x="159" y="172" on="0"/>
        <pt x="204" y="112" on="0"/>
        <pt x="270" y="76" on="0"/>
      </contour>
    </TTGlyph>
    <TTGlyph name="Omega" xMin="51" yMin="0" xMax="723" yMax="715">
      <contour>
        <pt x="51" y="79" on="1"/>
        <pt x="230" y="79" on="1"/>
        <pt x="152" y="123" on="0"/>
        <pt x="61" y="272" on="0"/>
        <pt x="61" y="365" on="1"/>
        <pt x="61" y="434" on="0"/>
        <pt x="111" y="561" on="0"/>
        <pt x="198" y="657" on="0"/>
        <pt x="317" y="715" on="0"/>
        <pt x="387" y="715" on="1"/>
        <pt x="457" y="715" on="0"/>
        <pt x="576" y="657" on="0"/>
        <pt x="663" y="561" on="0"/>
        <pt x="713" y="434" on="0"/>
        <pt x="713" y="365" on="1"/>
        <pt x="713" y="272" on="0"/>
        <pt x="622" y="123" on="0"/>
        <pt x="544" y="79" on="1"/>
        <pt x="723" y="79" on="1"/>
        <pt x="723" y="0" on="1"/>
        <pt x="434" y="0" on="1"/>
        <pt x="434" y="79" on="1"/>
        <pt x="477" y="93" on="0"/>
        <pt x="547" y="152" on="0"/>
        <pt x="596" y="230" on="0"/>
        <pt x="622" y="320" on="0"/>
        <pt x="622" y="365" on="1"/>
        <pt x="622" y="415" on="0"/>
        <pt x="589" y="511" on="0"/>
        <pt x="528" y="587" on="0"/>
        <pt x="441" y="633" on="0"/>
        <pt x="387" y="633" on="1"/>
        <pt x="333" y="633" on="0"/>
        <pt x="246" y="587" on="0"/>
        <pt x="185" y="511" on="0"/>
        <pt x="152" y="415" on="0"/>
        <pt x="152" y="365" on="1"/>
        <pt x="152" y="320" on="0"/>
        <pt x="178" y="230" on="0"/>
        <pt x="227" y="152" on="0"/>
        <pt x="297" y="93" on="0"/>
        <pt x="340" y="79" on="1"/>
        <pt x="340" y="0" on="1"/>
        <pt x="51" y="0" on="1"/>
      </contour>
    </TTGlyph>
    <TTGlyph name="Oogonek" xMin="44" yMin="-181" xMax="699" yMax="715">
      <contour>
        <pt x="237" y="-181" on="1"/>
        <pt x="203" y="-174" on="0"/>
        <pt x="169" y="-139" on="0"/>
        <pt x="169" y="-116" on="1"/>
        <pt x="169" y="-87" on="0"/>
        <pt x="214" y="-32" on="0"/>
        <pt x="262" y="-3" on="1"/>
        <pt x="209" y="3" on="0"/>
        <pt x="128" y="56" on="0"/>
        <pt x="73" y="135" on="0"/>
        <pt x="44" y="234" on="0"/>
        <pt x="44" y="288" on="1"/>
        <pt x="44" y="369" on="0"/>
        <pt x="112" y="523" on="0"/>
        <pt x="225" y="643" on="0"/>
        <pt x="372" y="715" on="0"/>
        <pt x="450" y="715" on="1"/>
        <pt x="510" y="715" on="0"/>
        <pt x="603" y="665" on="0"/>
        <pt x="666" y="583" on="0"/>
        <pt x="699" y="477" on="0"/>
        <pt x="699" y="420" on="1"/>
        <pt x="699" y="342" on="0"/>
        <pt x="635" y="193" on="0"/>
        <pt x="528" y="75" on="0"/>
        <pt x="389" y="0" on="0"/>
        <pt x="313" y="-4" on="1"/>
        <pt x="264" y="-33" on="0"/>
        <pt x="223" y="-77" on="0"/>
        <pt x="223" y="-99" on="1"/>
        <pt x="223" y="-131" on="0"/>
        <pt x="268" y="-135" on="1"/>
      </contour>
      <contour>
        <pt x="313" y="76" on="1"/>
        <pt x="374" y="76" on="0"/>
        <pt x="482" y="137" on="0"/>
        <pt x="561" y="234" on="0"/>
        <pt x="607" y="354" on="0"/>
        <pt x="607" y="413" on="1"/>
        <pt x="607" y="457" on="0"/>
        <pt x="584" y="537" on="0"/>
        <pt x="539" y="597" on="0"/>
        <pt x="473" y="633" on="0"/>
        <pt x="431" y="633" on="1"/>
        <pt x="369" y="633" on="0"/>
        <pt x="262" y="573" on="0"/>
        <pt x="182" y="476" on="0"/>
        <pt x="136" y="356" on="0"/>
        <pt x="136" y="296" on="1"/>
        <pt x="136" y="252" on="0"/>
        <pt x="159" y="172" on="0"/>
        <pt x="204" y="112" on="0"/>
        <pt x="270" y="76" on="0"/>
      </contour>
    </TTGlyph>
    <TTGlyph name="Oslash" xMin="22" yMin="-5" xMax="728" yMax="715">
      <contour>
        <pt x="728" y="710" on="1"/>
        <pt x="644" y="611" on="1"/>
        <pt x="671" y="571" on="0"/>
        <pt x="699" y="473" on="0"/>
        <pt x="699" y="420" on="1"/>
        <pt x="699" y="339" on="0"/>
        <pt x="632" y="186" on="0"/>
        <pt x="519" y="67" on="0"/>
        <pt x="373" y="-5" on="0"/>
        <pt x="295" y="-5" on="1"/>
        <pt x="253" y="-5" on="0"/>
        <pt x="183" y="19" on="0"/>
        <pt x="154" y="40" on="1"/>
        <pt x="120" y="0" on="1"/>
        <pt x="22" y="0" on="1"/>
        <pt x="102" y="93" on="1"/>
        <pt x="73" y="133" on="0"/>
        <pt x="44" y="234" on="0"/>
        <pt x="44" y="288" on="1"/>
        <pt x="44" y="369" on="0"/>
        <pt x="112" y="523" on="0"/>
        <pt x="225" y="643" on="0"/>
        <pt x="372" y="715" on="0"/>
        <pt x="450" y="715" on="1"/>
        <pt x="493" y="715" on="0"/>
        <pt x="564" y="689" on="0"/>
        <pt x="593" y="666" on="1"/>
        <pt x="630" y="710" on="1"/>
      </contour>
      <contour>
        <pt x="136" y="296" on="1"/>
        <pt x="136" y="260" on="0"/>
        <pt x="150" y="194" on="0"/>
        <pt x="165" y="167" on="1"/>
        <pt x="533" y="597" on="1"/>
        <pt x="513" y="614" on="0"/>
        <pt x="462" y="633" on="0"/>
        <pt x="431" y="633" on="1"/>
        <pt x="369" y="633" on="0"/>
        <pt x="262" y="573" on="0"/>
        <pt x="182" y="476" on="0"/>
        <pt x="136" y="356" on="0"/>
      </contour>
      <contour>
        <pt x="313" y="76" on="1"/>
        <pt x="374" y="76" on="0"/>
        <pt x="482" y="137" on="0"/>
        <pt x="561" y="234" on="0"/>
        <pt x="607" y="354" on="0"/>
        <pt x="607" y="413" on="1"/>
        <pt x="607" y="483" on="0"/>
        <pt x="580" y="537" on="1"/>
        <pt x="213" y="109" on="1"/>
        <pt x="255" y="76" on="0"/>
      </contour>
    </TTGlyph>
    <TTGlyph name="Oslashacute" xMin="22" yMin="-5" xMax="728" yMax="916">
      <contour>
        <pt x="728" y="710" on="1"/>
        <pt x="644" y="611" on="1"/>
        <pt x="671" y="571" on="0"/>
        <pt x="699" y="473" on="0"/>
        <pt x="699" y="420" on="1"/>
        <pt x="699" y="339" on="0"/>
        <pt x="632" y="186" on="0"/>
        <pt x="519" y="67" on="0"/>
        <pt x="373" y="-5" on="0"/>
        <pt x="295" y="-5" on="1"/>
        <pt x="253" y="-5" on="0"/>
        <pt x="183" y="19" on="0"/>
        <pt x="154" y="40" on="1"/>
        <pt x="120" y="0" on="1"/>
        <pt x="22" y="0" on="1"/>
        <pt x="102" y="93" on="1"/>
        <pt x="73" y="133" on="0"/>
        <pt x="44" y="234" on="0"/>
        <pt x="44" y="288" on="1"/>
        <pt x="44" y="369" on="0"/>
        <pt x="112" y="523" on="0"/>
        <pt x="225" y="643" on="0"/>
        <pt x="372" y="715" on="0"/>
        <pt x="450" y="715" on="1"/>
        <pt x="493" y="715" on="0"/>
        <pt x="564" y="689" on="0"/>
        <pt x="593" y="666" on="1"/>
        <pt x="630" y="710" on="1"/>
      </contour>
      <contour>
        <pt x="136" y="296" on="1"/>
        <pt x="136" y="260" on="0"/>
        <pt x="150" y="194" on="0"/>
        <pt x="165" y="167" on="1"/>
        <pt x="533" y="597" on="1"/>
        <pt x="513" y="614" on="0"/>
        <pt x="462" y="633" on="0"/>
        <pt x="431" y="633" on="1"/>
        <pt x="369" y="633" on="0"/>
        <pt x="262" y="573" on="0"/>
        <pt x="182" y="476" on="0"/>
        <pt x="136" y="356" on="0"/>
      </contour>
      <contour>
        <pt x="313" y="76" on="1"/>
        <pt x="374" y="76" on="0"/>
        <pt x="482" y="137" on="0"/>
        <pt x="561" y="234" on="0"/>
        <pt x="607" y="354" on="0"/>
        <pt x="607" y="413" on="1"/>
        <pt x="607" y="483" on="0"/>
        <pt x="580" y="537" on="1"/>
        <pt x="213" y="109" on="1"/>
        <pt x="255" y="76" on="0"/>
      </contour>
      <contour>
        <pt x="480" y="795" on="1"/>
        <pt x="426" y="815" on="1"/>
        <pt x="502" y="916" on="1"/>
        <pt x="589" y="916" on="1"/>
      </contour>
    </TTGlyph>
    <TTGlyph name="Otilde" xMin="44" yMin="-5" xMax="699" yMax="916">
      <contour>
        <pt x="295" y="-5" on="1"/>
        <pt x="235" y="-5" on="0"/>
        <pt x="141" y="44" on="0"/>
        <pt x="77" y="125" on="0"/>
        <pt x="44" y="231" on="0"/>
        <pt x="44" y="288" on="1"/>
        <pt x="44" y="369" on="0"/>
        <pt x="112" y="523" on="0"/>
        <pt x="225" y="643" on="0"/>
        <pt x="372" y="715" on="0"/>
        <pt x="450" y="715" on="1"/>
        <pt x="510" y="715" on="0"/>
        <pt x="603" y="665" on="0"/>
        <pt x="666" y="583" on="0"/>
        <pt x="699" y="477" on="0"/>
        <pt x="699" y="420" on="1"/>
        <pt x="699" y="339" on="0"/>
        <pt x="632" y="186" on="0"/>
        <pt x="519" y="67" on="0"/>
        <pt x="373" y="-5" on="0"/>
      </contour>
      <contour>
        <pt x="313" y="76" on="1"/>
        <pt x="374" y="76" on="0"/>
        <pt x="482" y="137" on="0"/>
        <pt x="561" y="234" on="0"/>
        <pt x="607" y="354" on="0"/>
        <pt x="607" y="413" on="1"/>
        <pt x="607" y="457" on="0"/>
        <pt x="584" y="537" on="0"/>
        <pt x="539" y="597" on="0"/>
        <pt x="473" y="633" on="0"/>
        <pt x="431" y="633" on="1"/>
        <pt x="369" y="633" on="0"/>
        <pt x="262" y="573" on="0"/>
        <pt x="182" y="476" on="0"/>
        <pt x="136" y="356" on="0"/>
        <pt x="136" y="296" on="1"/>
        <pt x="136" y="252" on="0"/>
        <pt x="159" y="172" on="0"/>
        <pt x="204" y="112" on="0"/>
        <pt x="270" y="76" on="0"/>
      </contour>
      <contour>
        <pt x="532" y="813" on="1"/>
        <pt x="511" y="813" on="0"/>
        <pt x="481" y="826" on="0"/>
        <pt x="457" y="842" on="0"/>
        <pt x="433" y="855" on="0"/>
        <pt x="418" y="855" on="1"/>
        <pt x="402" y="855" on="0"/>
        <pt x="381" y="841" on="0"/>
        <pt x="368" y="824" on="0"/>
        <pt x="362" y="808" on="0"/>
        <pt x="362" y="807" on="1"/>
        <pt x="310" y="807" on="1"/>
        <pt x="311" y="813" on="0"/>
        <pt x="327" y="847" on="0"/>
        <pt x="357" y="883" on="0"/>
        <pt x="399" y="910" on="0"/>
        <pt x="428" y="910" on="1"/>
        <pt x="448" y="910" on="0"/>
        <pt x="476" y="897" on="0"/>
        <pt x="499" y="880" on="0"/>
        <pt x="524" y="867" on="0"/>
        <pt x="541" y="867" on="1"/>
        <pt x="559" y="867" on="0"/>
        <pt x="583" y="881" on="0"/>
        <pt x="598" y="899" on="0"/>
        <pt x="605" y="914" on="0"/>
        <pt x="605" y="916" on="1"/>
        <pt x="656" y="916" on="1"/>
        <pt x="655" y="910" on="0"/>
        <pt x="639" y="877" on="0"/>
        <pt x="608" y="841" on="0"/>
        <pt x="563" y="813" on="0"/>
      </contour>
    </TTGlyph>
    <TTGlyph name="P" xMin="20" yMin="0" xMax="615" yMax="710">
      <contour>
        <pt x="171" y="710" on="1"/>
        <pt x="453" y="710" on="1"/>
        <pt x="491" y="710" on="0"/>
        <pt x="551" y="678" on="0"/>
        <pt x="593" y="626" on="0"/>
        <pt x="615" y="558" on="0"/>
        <pt x="615" y="522" on="1"/>
        <pt x="615" y="474" on="0"/>
        <pt x="574" y="378" on="0"/>
        <pt x="505" y="302" on="0"/>
        <pt x="413" y="255" on="0"/>
        <pt x="361" y="255" on="1"/>
        <pt x="164" y="255" on="1"/>
        <pt x="110" y="0" on="1"/>
        <pt x="20" y="0" on="1"/>
      </contour>
      <contour>
        <pt x="373" y="335" on="1"/>
        <pt x="403" y="335" on="0"/>
        <pt x="458" y="365" on="0"/>
        <pt x="499" y="415" on="0"/>
        <pt x="523" y="480" on="0"/>
        <pt x="523" y="514" on="1"/>
        <pt x="523" y="565" on="0"/>
        <pt x="471" y="630" on="0"/>
        <pt x="430" y="630" on="1"/>
        <pt x="244" y="630" on="1"/>
        <pt x="181" y="335" on="1"/>
      </contour>
    </TTGlyph>
    <TTGlyph name="P.sc" xMin="14" yMin="0" xMax="514" yMax="551">
      <contour>
        <pt x="131" y="551" on="1"/>
        <pt x="372" y="551" on="1"/>
        <pt x="405" y="551" on="0"/>
        <pt x="458" y="525" on="0"/>
        <pt x="495" y="483" on="0"/>
        <pt x="514" y="429" on="0"/>
        <pt x="514" y="401" on="1"/>
        <pt x="514" y="363" on="0"/>
        <pt x="480" y="289" on="0"/>
        <pt x="422" y="230" on="0"/>
        <pt x="345" y="194" on="0"/>
        <pt x="301" y="194" on="1"/>
        <pt x="135" y="194" on="1"/>
        <pt x="94" y="0" on="1"/>
        <pt x="14" y="0" on="1"/>
      </contour>
      <contour>
        <pt x="311" y="265" on="1"/>
        <pt x="336" y="265" on="0"/>
        <pt x="380" y="286" on="0"/>
        <pt x="413" y="321" on="0"/>
        <pt x="432" y="367" on="0"/>
        <pt x="432" y="393" on="1"/>
        <pt x="432" y="431" on="0"/>
        <pt x="387" y="480" on="0"/>
        <pt x="352" y="480" on="1"/>
        <pt x="196" y="480" on="1"/>
        <pt x="150" y="265" on="1"/>
      </contour>
    </TTGlyph>
    <TTGlyph name="Q" xMin="44" yMin="-5" xMax="699" yMax="715">
      <contour>
        <pt x="488" y="54" on="1"/>
        <pt x="443" y="26" on="0"/>
        <pt x="346" y="-5" on="0"/>
        <pt x="295" y="-5" on="1"/>
        <pt x="235" y="-5" on="0"/>
        <pt x="141" y="44" on="0"/>
        <pt x="77" y="125" on="0"/>
        <pt x="44" y="231" on="0"/>
        <pt x="44" y="288" on="1"/>
        <pt x="44" y="369" on="0"/>
        <pt x="112" y="523" on="0"/>
        <pt x="225" y="643" on="0"/>
        <pt x="372" y="715" on="0"/>
        <pt x="450" y="715" on="1"/>
        <pt x="510" y="715" on="0"/>
        <pt x="603" y="665" on="0"/>
        <pt x="666" y="583" on="0"/>
        <pt x="699" y="477" on="0"/>
        <pt x="699" y="420" on="1"/>
        <pt x="699" y="329" on="0"/>
        <pt x="616" y="161" on="0"/>
        <pt x="548" y="100" on="1"/>
        <pt x="610" y="0" on="1"/>
        <pt x="522" y="0" on="1"/>
      </contour>
      <contour>
        <pt x="313" y="76" on="1"/>
        <pt x="350" y="76" on="0"/>
        <pt x="418" y="99" on="0"/>
        <pt x="448" y="119" on="1"/>
        <pt x="379" y="232" on="1"/>
        <pt x="466" y="232" on="1"/>
        <pt x="506" y="167" on="1"/>
        <pt x="553" y="218" on="0"/>
        <pt x="607" y="347" on="0"/>
        <pt x="607" y="413" on="1"/>
        <pt x="607" y="457" on="0"/>
        <pt x="584" y="537" on="0"/>
        <pt x="539" y="598" on="0"/>
        <pt x="473" y="634" on="0"/>
        <pt x="431" y="634" on="1"/>
        <pt x="369" y="634" on="0"/>
        <pt x="262" y="573" on="0"/>
        <pt x="182" y="477" on="0"/>
        <pt x="136" y="356" on="0"/>
        <pt x="136" y="296" on="1"/>
        <pt x="136" y="252" on="0"/>
        <pt x="159" y="172" on="0"/>
        <pt x="204" y="112" on="0"/>
        <pt x="270" y="76" on="0"/>
      </contour>
    </TTGlyph>
    <TTGlyph name="Q.sc" xMin="29" yMin="-4" xMax="584" yMax="555">
      <contour>
        <pt x="411" y="42" on="1"/>
        <pt x="373" y="20" on="0"/>
        <pt x="291" y="-4" on="0"/>
        <pt x="247" y="-4" on="1"/>
        <pt x="195" y="-4" on="0"/>
        <pt x="114" y="34" on="0"/>
        <pt x="58" y="99" on="0"/>
        <pt x="29" y="183" on="0"/>
        <pt x="29" y="228" on="1"/>
        <pt x="29" y="290" on="0"/>
        <pt x="85" y="408" on="0"/>
        <pt x="179" y="499" on="0"/>
        <pt x="301" y="555" on="0"/>
        <pt x="367" y="555" on="1"/>
        <pt x="419" y="555" on="0"/>
        <pt x="500" y="516" on="0"/>
        <pt x="556" y="450" on="0"/>
        <pt x="584" y="366" on="0"/>
        <pt x="584" y="321" on="1"/>
        <pt x="584" y="252" on="0"/>
        <pt x="518" y="127" on="0"/>
        <pt x="463" y="80" on="1"/>
        <pt x="518" y="0" on="1"/>
        <pt x="440" y="0" on="1"/>
      </contour>
      <contour>
        <pt x="264" y="68" on="1"/>
        <pt x="293" y="68" on="0"/>
        <pt x="348" y="84" on="0"/>
        <pt x="373" y="98" on="1"/>
        <pt x="312" y="187" on="1"/>
        <pt x="391" y="187" on="1"/>
        <pt x="424" y="138" on="1"/>
        <pt x="460" y="174" on="0"/>
        <pt x="502" y="268" on="0"/>
        <pt x="502" y="315" on="1"/>
        <pt x="502" y="348" on="0"/>
        <pt x="482" y="409" on="0"/>
        <pt x="444" y="456" on="0"/>
        <pt x="387" y="483" on="0"/>
        <pt x="351" y="483" on="1"/>
        <pt x="300" y="483" on="0"/>
        <pt x="213" y="439" on="0"/>
        <pt x="148" y="368" on="0"/>
        <pt x="111" y="280" on="0"/>
        <pt x="111" y="236" on="1"/>
        <pt x="111" y="203" on="0"/>
        <pt x="131" y="142" on="0"/>
        <pt x="170" y="95" on="0"/>
        <pt x="227" y="68" on="0"/>
      </contour>
    </TTGlyph>
    <TTGlyph name="R" xMin="20" yMin="0" xMax="623" yMax="710">
      <contour>
        <pt x="20" y="0" on="1"/>
        <pt x="171" y="710" on="1"/>
        <pt x="461" y="710" on="1"/>
        <pt x="499" y="710" on="0"/>
        <pt x="559" y="678" on="0"/>
        <pt x="601" y="626" on="0"/>
        <pt x="623" y="558" on="0"/>
        <pt x="623" y="522" on="1"/>
        <pt x="623" y="480" on="0"/>
        <pt x="593" y="399" on="0"/>
        <pt x="542" y="332" on="0"/>
        <pt x="473" y="282" on="0"/>
        <pt x="433" y="272" on="1"/>
        <pt x="538" y="0" on="1"/>
        <pt x="436" y="0" on="1"/>
        <pt x="338" y="255" on="1"/>
        <pt x="164" y="255" on="1"/>
        <pt x="110" y="0" on="1"/>
      </contour>
      <contour>
        <pt x="382" y="335" on="1"/>
        <pt x="412" y="335" on="0"/>
        <pt x="466" y="366" on="0"/>
        <pt x="506" y="416" on="0"/>
        <pt x="530" y="479" on="0"/>
        <pt x="530" y="512" on="1"/>
        <pt x="530" y="536" on="0"/>
        <pt x="516" y="579" on="0"/>
        <pt x="492" y="611" on="0"/>
        <pt x="459" y="630" on="0"/>
        <pt x="439" y="630" on="1"/>
        <pt x="244" y="630" on="1"/>
        <pt x="181" y="335" on="1"/>
      </contour>
    </TTGlyph>
    <TTGlyph name="R.sc" xMin="14" yMin="0" xMax="521" yMax="551">
      <contour>
        <pt x="131" y="551" on="1"/>
        <pt x="379" y="551" on="1"/>
        <pt x="413" y="551" on="0"/>
        <pt x="466" y="525" on="0"/>
        <pt x="502" y="483" on="0"/>
        <pt x="521" y="429" on="0"/>
        <pt x="521" y="401" on="1"/>
        <pt x="521" y="369" on="0"/>
        <pt x="497" y="308" on="0"/>
        <pt x="455" y="257" on="0"/>
        <pt x="399" y="219" on="0"/>
        <pt x="366" y="210" on="1"/>
        <pt x="460" y="0" on="1"/>
        <pt x="368" y="0" on="1"/>
        <pt x="281" y="194" on="1"/>
        <pt x="135" y="194" on="1"/>
        <pt x="94" y="0" on="1"/>
        <pt x="14" y="0" on="1"/>
      </contour>
      <contour>
        <pt x="318" y="265" on="1"/>
        <pt x="342" y="265" on="0"/>
        <pt x="386" y="287" on="0"/>
        <pt x="419" y="322" on="0"/>
        <pt x="439" y="368" on="0"/>
        <pt x="439" y="392" on="1"/>
        <pt x="439" y="429" on="0"/>
        <pt x="395" y="480" on="0"/>
        <pt x="359" y="480" on="1"/>
        <pt x="196" y="480" on="1"/>
        <pt x="150" y="265" on="1"/>
      </contour>
    </TTGlyph>
    <TTGlyph name="Racute" xMin="20" yMin="0" xMax="623" yMax="918">
      <contour>
        <pt x="409" y="797" on="1"/>
        <pt x="355" y="817" on="1"/>
        <pt x="431" y="918" on="1"/>
        <pt x="518" y="918" on="1"/>
      </contour>
      <contour>
        <pt x="20" y="0" on="1"/>
        <pt x="171" y="710" on="1"/>
        <pt x="461" y="710" on="1"/>
        <pt x="499" y="710" on="0"/>
        <pt x="559" y="678" on="0"/>
        <pt x="601" y="626" on="0"/>
        <pt x="623" y="558" on="0"/>
        <pt x="623" y="522" on="1"/>
        <pt x="623" y="480" on="0"/>
        <pt x="593" y="399" on="0"/>
        <pt x="542" y="332" on="0"/>
        <pt x="473" y="282" on="0"/>
        <pt x="433" y="272" on="1"/>
        <pt x="538" y="0" on="1"/>
        <pt x="436" y="0" on="1"/>
        <pt x="338" y="255" on="1"/>
        <pt x="164" y="255" on="1"/>
        <pt x="110" y="0" on="1"/>
      </contour>
      <contour>
        <pt x="382" y="335" on="1"/>
        <pt x="412" y="335" on="0"/>
        <pt x="466" y="366" on="0"/>
        <pt x="506" y="416" on="0"/>
        <pt x="530" y="479" on="0"/>
        <pt x="530" y="512" on="1"/>
        <pt x="530" y="536" on="0"/>
        <pt x="516" y="579" on="0"/>
        <pt x="492" y="611" on="0"/>
        <pt x="459" y="630" on="0"/>
        <pt x="439" y="630" on="1"/>
        <pt x="244" y="630" on="1"/>
        <pt x="181" y="335" on="1"/>
      </contour>
    </TTGlyph>
    <TTGlyph name="Rcaron" xMin="20" yMin="0" xMax="623" yMax="918">
      <contour>
        <pt x="308" y="894" on="1"/>
        <pt x="361" y="918" on="1"/>
        <pt x="428" y="855" on="1"/>
        <pt x="522" y="918" on="1"/>
        <pt x="565" y="894" on="1"/>
        <pt x="449" y="804" on="1"/>
        <pt x="385" y="804" on="1"/>
      </contour>
      <contour>
        <pt x="20" y="0" on="1"/>
        <pt x="171" y="710" on="1"/>
        <pt x="461" y="710" on="1"/>
        <pt x="499" y="710" on="0"/>
        <pt x="559" y="678" on="0"/>
        <pt x="601" y="626" on="0"/>
        <pt x="623" y="558" on="0"/>
        <pt x="623" y="522" on="1"/>
        <pt x="623" y="480" on="0"/>
        <pt x="593" y="399" on="0"/>
        <pt x="542" y="332" on="0"/>
        <pt x="473" y="282" on="0"/>
        <pt x="433" y="272" on="1"/>
        <pt x="538" y="0" on="1"/>
        <pt x="436" y="0" on="1"/>
        <pt x="338" y="255" on="1"/>
        <pt x="164" y="255" on="1"/>
        <pt x="110" y="0" on="1"/>
      </contour>
      <contour>
        <pt x="382" y="335" on="1"/>
        <pt x="412" y="335" on="0"/>
        <pt x="466" y="366" on="0"/>
        <pt x="506" y="416" on="0"/>
        <pt x="530" y="479" on="0"/>
        <pt x="530" y="512" on="1"/>
        <pt x="530" y="536" on="0"/>
        <pt x="516" y="579" on="0"/>
        <pt x="492" y="611" on="0"/>
        <pt x="459" y="630" on="0"/>
        <pt x="439" y="630" on="1"/>
        <pt x="244" y="630" on="1"/>
        <pt x="181" y="335" on="1"/>
      </contour>
    </TTGlyph>
    <TTGlyph name="Rcommaaccent" xMin="20" yMin="-213" xMax="623" yMax="710">
      <contour>
        <pt x="176" y="-213" on="1"/>
        <pt x="213" y="-132" on="1"/>
        <pt x="188" y="-132" on="1"/>
        <pt x="206" y="-48" on="1"/>
        <pt x="283" y="-48" on="1"/>
        <pt x="265" y="-132" on="1"/>
        <pt x="219" y="-213" on="1"/>
      </contour>
      <contour>
        <pt x="20" y="0" on="1"/>
        <pt x="171" y="710" on="1"/>
        <pt x="461" y="710" on="1"/>
        <pt x="499" y="710" on="0"/>
        <pt x="559" y="678" on="0"/>
        <pt x="601" y="626" on="0"/>
        <pt x="623" y="558" on="0"/>
        <pt x="623" y="522" on="1"/>
        <pt x="623" y="480" on="0"/>
        <pt x="593" y="399" on="0"/>
        <pt x="542" y="332" on="0"/>
        <pt x="473" y="282" on="0"/>
        <pt x="433" y="272" on="1"/>
        <pt x="538" y="0" on="1"/>
        <pt x="436" y="0" on="1"/>
        <pt x="338" y="255" on="1"/>
        <pt x="164" y="255" on="1"/>
        <pt x="110" y="0" on="1"/>
      </contour>
      <contour>
        <pt x="382" y="335" on="1"/>
        <pt x="412" y="335" on="0"/>
        <pt x="466" y="366" on="0"/>
        <pt x="506" y="416" on="0"/>
        <pt x="530" y="479" on="0"/>
        <pt x="530" y="512" on="1"/>
        <pt x="530" y="536" on="0"/>
        <pt x="516" y="579" on="0"/>
        <pt x="492" y="611" on="0"/>
        <pt x="459" y="630" on="0"/>
        <pt x="439" y="630" on="1"/>
        <pt x="244" y="630" on="1"/>
        <pt x="181" y="335" on="1"/>
      </contour>
    </TTGlyph>
    <TTGlyph name="Rdblgrave" xMin="20" yMin="0" xMax="623" yMax="918">
      <contour>
        <pt x="20" y="0" on="1"/>
        <pt x="171" y="710" on="1"/>
        <pt x="461" y="710" on="1"/>
        <pt x="499" y="710" on="0"/>
        <pt x="559" y="678" on="0"/>
        <pt x="601" y="626" on="0"/>
        <pt x="623" y="558" on="0"/>
        <pt x="623" y="522" on="1"/>
        <pt x="623" y="480" on="0"/>
        <pt x="593" y="399" on="0"/>
        <pt x="542" y="332" on="0"/>
        <pt x="473" y="282" on="0"/>
        <pt x="433" y="272" on="1"/>
        <pt x="538" y="0" on="1"/>
        <pt x="436" y="0" on="1"/>
        <pt x="338" y="255" on="1"/>
        <pt x="164" y="255" on="1"/>
        <pt x="110" y="0" on="1"/>
      </contour>
      <contour>
        <pt x="382" y="335" on="1"/>
        <pt x="412" y="335" on="0"/>
        <pt x="466" y="366" on="0"/>
        <pt x="506" y="416" on="0"/>
        <pt x="530" y="479" on="0"/>
        <pt x="530" y="512" on="1"/>
        <pt x="530" y="536" on="0"/>
        <pt x="516" y="579" on="0"/>
        <pt x="492" y="611" on="0"/>
        <pt x="459" y="630" on="0"/>
        <pt x="439" y="630" on="1"/>
        <pt x="244" y="630" on="1"/>
        <pt x="181" y="335" on="1"/>
      </contour>
      <contour>
        <pt x="416" y="918" on="1"/>
        <pt x="490" y="918" on="1"/>
        <pt x="520" y="817" on="1"/>
        <pt x="470" y="797" on="1"/>
      </contour>
      <contour>
        <pt x="284" y="918" on="1"/>
        <pt x="359" y="918" on="1"/>
        <pt x="388" y="817" on="1"/>
        <pt x="338" y="797" on="1"/>
      </contour>
    </TTGlyph>
    <TTGlyph name="Rdotbelow" xMin="20" yMin="-182" xMax="623" yMax="710">
      <contour>
        <pt x="20" y="0" on="1"/>
        <pt x="171" y="710" on="1"/>
        <pt x="461" y="710" on="1"/>
        <pt x="499" y="710" on="0"/>
        <pt x="559" y="678" on="0"/>
        <pt x="601" y="626" on="0"/>
        <pt x="623" y="558" on="0"/>
        <pt x="623" y="522" on="1"/>
        <pt x="623" y="480" on="0"/>
        <pt x="593" y="399" on="0"/>
        <pt x="542" y="332" on="0"/>
        <pt x="473" y="282" on="0"/>
        <pt x="433" y="272" on="1"/>
        <pt x="538" y="0" on="1"/>
        <pt x="436" y="0" on="1"/>
        <pt x="338" y="255" on="1"/>
        <pt x="164" y="255" on="1"/>
        <pt x="110" y="0" on="1"/>
      </contour>
      <contour>
        <pt x="382" y="335" on="1"/>
        <pt x="412" y="335" on="0"/>
        <pt x="466" y="366" on="0"/>
        <pt x="506" y="416" on="0"/>
        <pt x="530" y="479" on="0"/>
        <pt x="530" y="512" on="1"/>
        <pt x="530" y="536" on="0"/>
        <pt x="516" y="579" on="0"/>
        <pt x="492" y="611" on="0"/>
        <pt x="459" y="630" on="0"/>
        <pt x="439" y="630" on="1"/>
        <pt x="244" y="630" on="1"/>
        <pt x="181" y="335" on="1"/>
      </contour>
      <contour>
        <pt x="175" y="-182" on="1"/>
        <pt x="198" y="-76" on="1"/>
        <pt x="277" y="-76" on="1"/>
        <pt x="255" y="-182" on="1"/>
      </contour>
    </TTGlyph>
    <TTGlyph name="Rinvertedbreve" xMin="20" yMin="0" xMax="623" yMax="916">
      <contour>
        <pt x="20" y="0" on="1"/>
        <pt x="171" y="710" on="1"/>
        <pt x="461" y="710" on="1"/>
        <pt x="499" y="710" on="0"/>
        <pt x="559" y="678" on="0"/>
        <pt x="601" y="626" on="0"/>
        <pt x="623" y="558" on="0"/>
        <pt x="623" y="522" on="1"/>
        <pt x="623" y="480" on="0"/>
        <pt x="593" y="399" on="0"/>
        <pt x="542" y="332" on="0"/>
        <pt x="473" y="282" on="0"/>
        <pt x="433" y="272" on="1"/>
        <pt x="538" y="0" on="1"/>
        <pt x="436" y="0" on="1"/>
        <pt x="338" y="255" on="1"/>
        <pt x="164" y="255" on="1"/>
        <pt x="110" y="0" on="1"/>
      </contour>
      <contour>
        <pt x="382" y="335" on="1"/>
        <pt x="412" y="335" on="0"/>
        <pt x="466" y="366" on="0"/>
        <pt x="506" y="416" on="0"/>
        <pt x="530" y="479" on="0"/>
        <pt x="530" y="512" on="1"/>
        <pt x="530" y="536" on="0"/>
        <pt x="516" y="579" on="0"/>
        <pt x="492" y="611" on="0"/>
        <pt x="459" y="630" on="0"/>
        <pt x="439" y="630" on="1"/>
        <pt x="244" y="630" on="1"/>
        <pt x="181" y="335" on="1"/>
      </contour>
      <contour>
        <pt x="310" y="805" on="1"/>
        <pt x="315" y="829" on="0"/>
        <pt x="339" y="869" on="0"/>
        <pt x="374" y="899" on="0"/>
        <pt x="415" y="916" on="0"/>
        <pt x="437" y="916" on="1"/>
        <pt x="475" y="916" on="0"/>
        <pt x="522" y="865" on="0"/>
        <pt x="522" y="829" on="1"/>
        <pt x="522" y="817" on="0"/>
        <pt x="519" y="805" on="1"/>
        <pt x="470" y="805" on="1"/>
        <pt x="471" y="812" on="0"/>
        <pt x="472" y="824" on="0"/>
        <pt x="472" y="830" on="1"/>
        <pt x="472" y="873" on="0"/>
        <pt x="431" y="873" on="1"/>
        <pt x="399" y="873" on="0"/>
        <pt x="367" y="834" on="0"/>
        <pt x="360" y="805" on="1"/>
      </contour>
    </TTGlyph>
    <TTGlyph name="S" xMin="-12" yMin="-7" xMax="594" yMax="715">
      <contour>
        <pt x="242" y="-7" on="1"/>
        <pt x="164" y="-7" on="0"/>
        <pt x="35" y="44" on="0"/>
        <pt x="-12" y="93" on="1"/>
        <pt x="47" y="169" on="1"/>
        <pt x="58" y="152" on="0"/>
        <pt x="98" y="118" on="0"/>
        <pt x="154" y="91" on="0"/>
        <pt x="222" y="74" on="0"/>
        <pt x="261" y="74" on="1"/>
        <pt x="342" y="74" on="0"/>
        <pt x="435" y="141" on="0"/>
        <pt x="435" y="201" on="1"/>
        <pt x="435" y="225" on="0"/>
        <pt x="412" y="260" on="0"/>
        <pt x="369" y="287" on="0"/>
        <pt x="307" y="307" on="0"/>
        <pt x="268" y="318" on="1"/>
        <pt x="227" y="329" on="0"/>
        <pt x="163" y="355" on="0"/>
        <pt x="119" y="390" on="0"/>
        <pt x="96" y="437" on="0"/>
        <pt x="96" y="469" on="1"/>
        <pt x="96" y="527" on="0"/>
        <pt x="142" y="618" on="0"/>
        <pt x="222" y="681" on="0"/>
        <pt x="329" y="715" on="0"/>
        <pt x="389" y="715" on="1"/>
        <pt x="457" y="715" on="0"/>
        <pt x="559" y="671" on="0"/>
        <pt x="594" y="634" on="1"/>
        <pt x="537" y="561" on="1"/>
        <pt x="529" y="575" on="0"/>
        <pt x="497" y="601" on="0"/>
        <pt x="453" y="622" on="0"/>
        <pt x="400" y="635" on="0"/>
        <pt x="370" y="635" on="1"/>
        <pt x="279" y="635" on="0"/>
        <pt x="195" y="557" on="0"/>
        <pt x="195" y="498" on="1"/>
        <pt x="195" y="476" on="0"/>
        <pt x="214" y="445" on="0"/>
        <pt x="252" y="422" on="0"/>
        <pt x="308" y="403" on="0"/>
        <pt x="346" y="394" on="1"/>
        <pt x="389" y="383" on="0"/>
        <pt x="459" y="356" on="0"/>
        <pt x="508" y="318" on="0"/>
        <pt x="535" y="266" on="0"/>
        <pt x="535" y="229" on="1"/>
        <pt x="535" y="169" on="0"/>
        <pt x="488" y="80" on="0"/>
        <pt x="408" y="22" on="0"/>
        <pt x="302" y="-7" on="0"/>
      </contour>
    </TTGlyph>
    <TTGlyph name="S.sc" xMin="-15" yMin="-6" xMax="488" yMax="555">
      <contour>
        <pt x="201" y="-6" on="1"/>
        <pt x="136" y="-6" on="0"/>
        <pt x="25" y="33" on="0"/>
        <pt x="-15" y="70" on="1"/>
        <pt x="37" y="138" on="1"/>
        <pt x="58" y="110" on="0"/>
        <pt x="152" y="66" on="0"/>
        <pt x="218" y="66" on="1"/>
        <pt x="281" y="66" on="0"/>
        <pt x="355" y="112" on="0"/>
        <pt x="355" y="156" on="1"/>
        <pt x="355" y="174" on="0"/>
        <pt x="336" y="199" on="0"/>
        <pt x="300" y="219" on="0"/>
        <pt x="248" y="235" on="0"/>
        <pt x="215" y="243" on="1"/>
        <pt x="145" y="260" on="0"/>
        <pt x="72" y="313" on="0"/>
        <pt x="72" y="364" on="1"/>
        <pt x="72" y="409" on="0"/>
        <pt x="110" y="480" on="0"/>
        <pt x="176" y="529" on="0"/>
        <pt x="264" y="555" on="0"/>
        <pt x="314" y="555" on="1"/>
        <pt x="371" y="555" on="0"/>
        <pt x="459" y="521" on="0"/>
        <pt x="488" y="492" on="1"/>
        <pt x="439" y="427" on="1"/>
        <pt x="422" y="450" on="0"/>
        <pt x="349" y="484" on="0"/>
        <pt x="298" y="484" on="1"/>
        <pt x="225" y="484" on="0"/>
        <pt x="158" y="430" on="0"/>
        <pt x="158" y="388" on="1"/>
        <pt x="158" y="356" on="0"/>
        <pt x="222" y="325" on="0"/>
        <pt x="285" y="309" on="1"/>
        <pt x="321" y="300" on="0"/>
        <pt x="380" y="279" on="0"/>
        <pt x="422" y="249" on="0"/>
        <pt x="445" y="208" on="0"/>
        <pt x="445" y="179" on="1"/>
        <pt x="445" y="131" on="0"/>
        <pt x="406" y="62" on="0"/>
        <pt x="339" y="16" on="0"/>
        <pt x="250" y="-6" on="0"/>
      </contour>
    </TTGlyph>
    <TTGlyph name="Sacute" xMin="-12" yMin="-7" xMax="594" yMax="930">
      <contour>
        <pt x="413" y="809" on="1"/>
        <pt x="359" y="829" on="1"/>
        <pt x="435" y="930" on="1"/>
        <pt x="522" y="930" on="1"/>
      </contour>
      <contour>
        <pt x="242" y="-7" on="1"/>
        <pt x="164" y="-7" on="0"/>
        <pt x="35" y="44" on="0"/>
        <pt x="-12" y="93" on="1"/>
        <pt x="47" y="169" on="1"/>
        <pt x="58" y="152" on="0"/>
        <pt x="98" y="118" on="0"/>
        <pt x="154" y="91" on="0"/>
        <pt x="222" y="74" on="0"/>
        <pt x="261" y="74" on="1"/>
        <pt x="342" y="74" on="0"/>
        <pt x="435" y="141" on="0"/>
        <pt x="435" y="201" on="1"/>
        <pt x="435" y="225" on="0"/>
        <pt x="412" y="260" on="0"/>
        <pt x="369" y="287" on="0"/>
        <pt x="307" y="307" on="0"/>
        <pt x="268" y="318" on="1"/>
        <pt x="227" y="329" on="0"/>
        <pt x="163" y="355" on="0"/>
        <pt x="119" y="390" on="0"/>
        <pt x="96" y="437" on="0"/>
        <pt x="96" y="469" on="1"/>
        <pt x="96" y="527" on="0"/>
        <pt x="142" y="618" on="0"/>
        <pt x="222" y="681" on="0"/>
        <pt x="329" y="715" on="0"/>
        <pt x="389" y="715" on="1"/>
        <pt x="457" y="715" on="0"/>
        <pt x="559" y="671" on="0"/>
        <pt x="594" y="634" on="1"/>
        <pt x="537" y="561" on="1"/>
        <pt x="529" y="575" on="0"/>
        <pt x="497" y="601" on="0"/>
        <pt x="453" y="622" on="0"/>
        <pt x="400" y="635" on="0"/>
        <pt x="370" y="635" on="1"/>
        <pt x="279" y="635" on="0"/>
        <pt x="195" y="557" on="0"/>
        <pt x="195" y="498" on="1"/>
        <pt x="195" y="476" on="0"/>
        <pt x="214" y="445" on="0"/>
        <pt x="252" y="422" on="0"/>
        <pt x="308" y="403" on="0"/>
        <pt x="346" y="394" on="1"/>
        <pt x="389" y="383" on="0"/>
        <pt x="459" y="356" on="0"/>
        <pt x="508" y="318" on="0"/>
        <pt x="535" y="266" on="0"/>
        <pt x="535" y="229" on="1"/>
        <pt x="535" y="169" on="0"/>
        <pt x="488" y="80" on="0"/>
        <pt x="408" y="22" on="0"/>
        <pt x="302" y="-7" on="0"/>
      </contour>
    </TTGlyph>
    <TTGlyph name="Scaron" xMin="-12" yMin="-7" xMax="594" yMax="930">
      <contour>
        <pt x="292" y="906" on="1"/>
        <pt x="345" y="930" on="1"/>
        <pt x="412" y="867" on="1"/>
        <pt x="506" y="930" on="1"/>
        <pt x="549" y="906" on="1"/>
        <pt x="433" y="816" on="1"/>
        <pt x="369" y="816" on="1"/>
      </contour>
      <contour>
        <pt x="242" y="-7" on="1"/>
        <pt x="164" y="-7" on="0"/>
        <pt x="35" y="44" on="0"/>
        <pt x="-12" y="93" on="1"/>
        <pt x="47" y="169" on="1"/>
        <pt x="58" y="152" on="0"/>
        <pt x="98" y="118" on="0"/>
        <pt x="154" y="91" on="0"/>
        <pt x="222" y="74" on="0"/>
        <pt x="261" y="74" on="1"/>
        <pt x="342" y="74" on="0"/>
        <pt x="435" y="141" on="0"/>
        <pt x="435" y="201" on="1"/>
        <pt x="435" y="225" on="0"/>
        <pt x="412" y="260" on="0"/>
        <pt x="369" y="287" on="0"/>
        <pt x="307" y="307" on="0"/>
        <pt x="268" y="318" on="1"/>
        <pt x="227" y="329" on="0"/>
        <pt x="163" y="355" on="0"/>
        <pt x="119" y="390" on="0"/>
        <pt x="96" y="437" on="0"/>
        <pt x="96" y="469" on="1"/>
        <pt x="96" y="527" on="0"/>
        <pt x="142" y="618" on="0"/>
        <pt x="222" y="681" on="0"/>
        <pt x="329" y="715" on="0"/>
        <pt x="389" y="715" on="1"/>
        <pt x="457" y="715" on="0"/>
        <pt x="559" y="671" on="0"/>
        <pt x="594" y="634" on="1"/>
        <pt x="537" y="561" on="1"/>
        <pt x="529" y="575" on="0"/>
        <pt x="497" y="601" on="0"/>
        <pt x="453" y="622" on="0"/>
        <pt x="400" y="635" on="0"/>
        <pt x="370" y="635" on="1"/>
        <pt x="279" y="635" on="0"/>
        <pt x="195" y="557" on="0"/>
        <pt x="195" y="498" on="1"/>
        <pt x="195" y="476" on="0"/>
        <pt x="214" y="445" on="0"/>
        <pt x="252" y="422" on="0"/>
        <pt x="308" y="403" on="0"/>
        <pt x="346" y="394" on="1"/>
        <pt x="389" y="383" on="0"/>
        <pt x="459" y="356" on="0"/>
        <pt x="508" y="318" on="0"/>
        <pt x="535" y="266" on="0"/>
        <pt x="535" y="229" on="1"/>
        <pt x="535" y="169" on="0"/>
        <pt x="488" y="80" on="0"/>
        <pt x="408" y="22" on="0"/>
        <pt x="302" y="-7" on="0"/>
      </contour>
    </TTGlyph>
    <TTGlyph name="Schwa" xMin="27" yMin="-5" xMax="684" yMax="715">
      <contour>
        <pt x="282" y="-5" on="1"/>
        <pt x="225" y="-5" on="0"/>
        <pt x="131" y="40" on="0"/>
        <pt x="64" y="117" on="0"/>
        <pt x="27" y="222" on="0"/>
        <pt x="27" y="282" on="1"/>
        <pt x="27" y="325" on="0"/>
        <pt x="43" y="381" on="0"/>
        <pt x="48" y="392" on="1"/>
        <pt x="584" y="392" on="1"/>
        <pt x="585" y="401" on="0"/>
        <pt x="586" y="419" on="0"/>
        <pt x="586" y="428" on="1"/>
        <pt x="586" y="473" on="0"/>
        <pt x="561" y="548" on="0"/>
        <pt x="515" y="602" on="0"/>
        <pt x="452" y="632" on="0"/>
        <pt x="413" y="632" on="1"/>
        <pt x="381" y="632" on="0"/>
        <pt x="316" y="612" on="0"/>
        <pt x="259" y="577" on="0"/>
        <pt x="212" y="528" on="0"/>
        <pt x="197" y="499" on="1"/>
        <pt x="119" y="538" on="1"/>
        <pt x="146" y="577" on="0"/>
        <pt x="219" y="643" on="0"/>
        <pt x="303" y="689" on="0"/>
        <pt x="394" y="715" on="0"/>
        <pt x="438" y="715" on="1"/>
        <pt x="494" y="715" on="0"/>
        <pt x="585" y="671" on="0"/>
        <pt x="649" y="593" on="0"/>
        <pt x="684" y="487" on="0"/>
        <pt x="684" y="426" on="1"/>
        <pt x="684" y="338" on="0"/>
        <pt x="616" y="182" on="0"/>
        <pt x="504" y="64" on="0"/>
        <pt x="359" y="-5" on="0"/>
      </contour>
      <contour>
        <pt x="301" y="76" on="1"/>
        <pt x="345" y="76" on="0"/>
        <pt x="429" y="112" on="0"/>
        <pt x="500" y="175" on="0"/>
        <pt x="555" y="263" on="0"/>
        <pt x="569" y="314" on="1"/>
        <pt x="120" y="314" on="1"/>
        <pt x="117" y="301" on="0"/>
        <pt x="115" y="276" on="0"/>
        <pt x="115" y="263" on="1"/>
        <pt x="115" y="224" on="0"/>
        <pt x="140" y="156" on="0"/>
        <pt x="187" y="105" on="0"/>
        <pt x="256" y="76" on="0"/>
      </contour>
    </TTGlyph>
    <TTGlyph name="Scircumflex" xMin="-12" yMin="-7" xMax="594" yMax="930">
      <contour>
        <pt x="286" y="840" on="1"/>
        <pt x="402" y="930" on="1"/>
        <pt x="466" y="930" on="1"/>
        <pt x="543" y="840" on="1"/>
        <pt x="490" y="816" on="1"/>
        <pt x="423" y="879" on="1"/>
        <pt x="329" y="816" on="1"/>
      </contour>
      <contour>
        <pt x="242" y="-7" on="1"/>
        <pt x="164" y="-7" on="0"/>
        <pt x="35" y="44" on="0"/>
        <pt x="-12" y="93" on="1"/>
        <pt x="47" y="169" on="1"/>
        <pt x="58" y="152" on="0"/>
        <pt x="98" y="118" on="0"/>
        <pt x="154" y="91" on="0"/>
        <pt x="222" y="74" on="0"/>
        <pt x="261" y="74" on="1"/>
        <pt x="342" y="74" on="0"/>
        <pt x="435" y="141" on="0"/>
        <pt x="435" y="201" on="1"/>
        <pt x="435" y="225" on="0"/>
        <pt x="412" y="260" on="0"/>
        <pt x="369" y="287" on="0"/>
        <pt x="307" y="307" on="0"/>
        <pt x="268" y="318" on="1"/>
        <pt x="227" y="329" on="0"/>
        <pt x="163" y="355" on="0"/>
        <pt x="119" y="390" on="0"/>
        <pt x="96" y="437" on="0"/>
        <pt x="96" y="469" on="1"/>
        <pt x="96" y="527" on="0"/>
        <pt x="142" y="618" on="0"/>
        <pt x="222" y="681" on="0"/>
        <pt x="329" y="715" on="0"/>
        <pt x="389" y="715" on="1"/>
        <pt x="457" y="715" on="0"/>
        <pt x="559" y="671" on="0"/>
        <pt x="594" y="634" on="1"/>
        <pt x="537" y="561" on="1"/>
        <pt x="529" y="575" on="0"/>
        <pt x="497" y="601" on="0"/>
        <pt x="453" y="622" on="0"/>
        <pt x="400" y="635" on="0"/>
        <pt x="370" y="635" on="1"/>
        <pt x="279" y="635" on="0"/>
        <pt x="195" y="557" on="0"/>
        <pt x="195" y="498" on="1"/>
        <pt x="195" y="476" on="0"/>
        <pt x="214" y="445" on="0"/>
        <pt x="252" y="422" on="0"/>
        <pt x="308" y="403" on="0"/>
        <pt x="346" y="394" on="1"/>
        <pt x="389" y="383" on="0"/>
        <pt x="459" y="356" on="0"/>
        <pt x="508" y="318" on="0"/>
        <pt x="535" y="266" on="0"/>
        <pt x="535" y="229" on="1"/>
        <pt x="535" y="169" on="0"/>
        <pt x="488" y="80" on="0"/>
        <pt x="408" y="22" on="0"/>
        <pt x="302" y="-7" on="0"/>
      </contour>
    </TTGlyph>
    <TTGlyph name="Sdotbelow" xMin="-12" yMin="-182" xMax="594" yMax="715">
      <contour>
        <pt x="242" y="-7" on="1"/>
        <pt x="164" y="-7" on="0"/>
        <pt x="35" y="44" on="0"/>
        <pt x="-12" y="93" on="1"/>
        <pt x="47" y="169" on="1"/>
        <pt x="58" y="152" on="0"/>
        <pt x="98" y="118" on="0"/>
        <pt x="154" y="91" on="0"/>
        <pt x="222" y="74" on="0"/>
        <pt x="261" y="74" on="1"/>
        <pt x="342" y="74" on="0"/>
        <pt x="435" y="141" on="0"/>
        <pt x="435" y="201" on="1"/>
        <pt x="435" y="225" on="0"/>
        <pt x="412" y="260" on="0"/>
        <pt x="369" y="287" on="0"/>
        <pt x="307" y="307" on="0"/>
        <pt x="268" y="318" on="1"/>
        <pt x="227" y="329" on="0"/>
        <pt x="163" y="355" on="0"/>
        <pt x="119" y="390" on="0"/>
        <pt x="96" y="437" on="0"/>
        <pt x="96" y="469" on="1"/>
        <pt x="96" y="527" on="0"/>
        <pt x="142" y="618" on="0"/>
        <pt x="222" y="681" on="0"/>
        <pt x="329" y="715" on="0"/>
        <pt x="389" y="715" on="1"/>
        <pt x="457" y="715" on="0"/>
        <pt x="559" y="671" on="0"/>
        <pt x="594" y="634" on="1"/>
        <pt x="537" y="561" on="1"/>
        <pt x="529" y="575" on="0"/>
        <pt x="497" y="601" on="0"/>
        <pt x="453" y="622" on="0"/>
        <pt x="400" y="635" on="0"/>
        <pt x="370" y="635" on="1"/>
        <pt x="279" y="635" on="0"/>
        <pt x="195" y="557" on="0"/>
        <pt x="195" y="498" on="1"/>
        <pt x="195" y="476" on="0"/>
        <pt x="214" y="445" on="0"/>
        <pt x="252" y="422" on="0"/>
        <pt x="308" y="403" on="0"/>
        <pt x="346" y="394" on="1"/>
        <pt x="389" y="383" on="0"/>
        <pt x="459" y="356" on="0"/>
        <pt x="508" y="318" on="0"/>
        <pt x="535" y="266" on="0"/>
        <pt x="535" y="229" on="1"/>
        <pt x="535" y="169" on="0"/>
        <pt x="488" y="80" on="0"/>
        <pt x="408" y="22" on="0"/>
        <pt x="302" y="-7" on="0"/>
      </contour>
      <contour>
        <pt x="160" y="-182" on="1"/>
        <pt x="183" y="-76" on="1"/>
        <pt x="262" y="-76" on="1"/>
        <pt x="240" y="-182" on="1"/>
      </contour>
    </TTGlyph>
    <TTGlyph name="T" xMin="86" yMin="0" xMax="655" yMax="710">
      <contour>
        <pt x="317" y="630" on="1"/>
        <pt x="86" y="630" on="1"/>
        <pt x="103" y="710" on="1"/>
        <pt x="655" y="710" on="1"/>
        <pt x="638" y="630" on="1"/>
        <pt x="407" y="630" on="1"/>
        <pt x="273" y="0" on="1"/>
        <pt x="183" y="0" on="1"/>
      </contour>
    </TTGlyph>
    <TTGlyph name="T.sc" xMin="59" yMin="0" xMax="546" yMax="551">
      <contour>
        <pt x="256" y="480" on="1"/>
        <pt x="59" y="480" on="1"/>
        <pt x="74" y="551" on="1"/>
        <pt x="546" y="551" on="1"/>
        <pt x="531" y="480" on="1"/>
        <pt x="336" y="480" on="1"/>
        <pt x="234" y="0" on="1"/>
        <pt x="154" y="0" on="1"/>
      </contour>
    </TTGlyph>
    <TTGlyph name="Tbar" xMin="74" yMin="0" xMax="670" yMax="710">
      <contour>
        <pt x="84" y="397" on="1"/>
        <pt x="282" y="397" on="1"/>
        <pt x="332" y="630" on="1"/>
        <pt x="101" y="630" on="1"/>
        <pt x="118" y="710" on="1"/>
        <pt x="670" y="710" on="1"/>
        <pt x="653" y="630" on="1"/>
        <pt x="422" y="630" on="1"/>
        <pt x="372" y="397" on="1"/>
        <pt x="571" y="397" on="1"/>
        <pt x="561" y="350" on="1"/>
        <pt x="362" y="350" on="1"/>
        <pt x="288" y="0" on="1"/>
        <pt x="198" y="0" on="1"/>
        <pt x="272" y="350" on="1"/>
        <pt x="74" y="350" on="1"/>
      </contour>
    </TTGlyph>
    <TTGlyph name="Tcaron" xMin="86" yMin="0" xMax="655" yMax="916">
      <contour>
        <pt x="284" y="892" on="1"/>
        <pt x="337" y="916" on="1"/>
        <pt x="404" y="853" on="1"/>
        <pt x="498" y="916" on="1"/>
        <pt x="541" y="892" on="1"/>
        <pt x="425" y="802" on="1"/>
        <pt x="361" y="802" on="1"/>
      </contour>
      <contour>
        <pt x="317" y="630" on="1"/>
        <pt x="86" y="630" on="1"/>
        <pt x="103" y="710" on="1"/>
        <pt x="655" y="710" on="1"/>
        <pt x="638" y="630" on="1"/>
        <pt x="407" y="630" on="1"/>
        <pt x="273" y="0" on="1"/>
        <pt x="183" y="0" on="1"/>
      </contour>
    </TTGlyph>
    <TTGlyph name="Tdotbelow" xMin="86" yMin="-182" xMax="655" yMax="710">
      <contour>
        <pt x="317" y="630" on="1"/>
        <pt x="86" y="630" on="1"/>
        <pt x="103" y="710" on="1"/>
        <pt x="655" y="710" on="1"/>
        <pt x="638" y="630" on="1"/>
        <pt x="407" y="630" on="1"/>
        <pt x="273" y="0" on="1"/>
        <pt x="183" y="0" on="1"/>
      </contour>
      <contour>
        <pt x="149" y="-182" on="1"/>
        <pt x="172" y="-76" on="1"/>
        <pt x="251" y="-76" on="1"/>
        <pt x="229" y="-182" on="1"/>
      </contour>
    </TTGlyph>
    <TTGlyph name="Thorn" xMin="20" yMin="0" xMax="569" yMax="710">
      <contour>
        <pt x="171" y="710" on="1"/>
        <pt x="261" y="710" on="1"/>
        <pt x="232" y="573" on="1"/>
        <pt x="406" y="573" on="1"/>
        <pt x="445" y="573" on="0"/>
        <pt x="505" y="541" on="0"/>
        <pt x="547" y="489" on="0"/>
        <pt x="569" y="421" on="0"/>
        <pt x="569" y="385" on="1"/>
        <pt x="569" y="336" on="0"/>
        <pt x="528" y="241" on="0"/>
        <pt x="459" y="165" on="0"/>
        <pt x="367" y="118" on="0"/>
        <pt x="315" y="118" on="1"/>
        <pt x="135" y="118" on="1"/>
        <pt x="110" y="0" on="1"/>
        <pt x="20" y="0" on="1"/>
      </contour>
      <contour>
        <pt x="328" y="198" on="1"/>
        <pt x="359" y="198" on="0"/>
        <pt x="413" y="229" on="0"/>
        <pt x="453" y="280" on="0"/>
        <pt x="477" y="344" on="0"/>
        <pt x="477" y="376" on="1"/>
        <pt x="477" y="425" on="0"/>
        <pt x="427" y="493" on="0"/>
        <pt x="385" y="493" on="1"/>
        <pt x="215" y="493" on="1"/>
        <pt x="152" y="198" on="1"/>
      </contour>
    </TTGlyph>
    <TTGlyph name="U" xMin="71" yMin="-5" xMax="737" yMax="710">
      <contour>
        <pt x="298" y="-5" on="1"/>
        <pt x="235" y="-5" on="0"/>
        <pt x="149" y="32" on="0"/>
        <pt x="95" y="96" on="0"/>
        <pt x="71" y="182" on="0"/>
        <pt x="71" y="232" on="1"/>
        <pt x="71" y="287" on="0"/>
        <pt x="85" y="351" on="1"/>
        <pt x="161" y="710" on="1"/>
        <pt x="251" y="710" on="1"/>
        <pt x="175" y="351" on="1"/>
        <pt x="163" y="297" on="0"/>
        <pt x="163" y="247" on="1"/>
        <pt x="163" y="211" on="0"/>
        <pt x="178" y="149" on="0"/>
        <pt x="214" y="102" on="0"/>
        <pt x="272" y="76" on="0"/>
        <pt x="314" y="76" on="1"/>
        <pt x="372" y="76" on="0"/>
        <pt x="458" y="124" on="0"/>
        <pt x="520" y="201" on="0"/>
        <pt x="560" y="300" on="0"/>
        <pt x="571" y="351" on="1"/>
        <pt x="647" y="710" on="1"/>
        <pt x="737" y="710" on="1"/>
        <pt x="661" y="351" on="1"/>
        <pt x="646" y="279" on="0"/>
        <pt x="587" y="150" on="0"/>
        <pt x="497" y="52" on="0"/>
        <pt x="376" y="-5" on="0"/>
      </contour>
    </TTGlyph>
    <TTGlyph name="U.sc" xMin="53" yMin="-4" xMax="610" yMax="551">
      <contour>
        <pt x="249" y="-4" on="1"/>
        <pt x="195" y="-4" on="0"/>
        <pt x="120" y="26" on="0"/>
        <pt x="74" y="78" on="0"/>
        <pt x="53" y="147" on="0"/>
        <pt x="53" y="187" on="1"/>
        <pt x="53" y="207" on="0"/>
        <pt x="58" y="250" on="0"/>
        <pt x="63" y="272" on="1"/>
        <pt x="122" y="551" on="1"/>
        <pt x="202" y="551" on="1"/>
        <pt x="143" y="272" on="1"/>
        <pt x="135" y="234" on="0"/>
        <pt x="135" y="202" on="1"/>
        <pt x="135" y="174" on="0"/>
        <pt x="148" y="125" on="0"/>
        <pt x="178" y="89" on="0"/>
        <pt x="227" y="68" on="0"/>
        <pt x="263" y="68" on="1"/>
        <pt x="311" y="68" on="0"/>
        <pt x="382" y="103" on="0"/>
        <pt x="432" y="160" on="0"/>
        <pt x="463" y="234" on="0"/>
        <pt x="471" y="272" on="1"/>
        <pt x="530" y="551" on="1"/>
        <pt x="610" y="551" on="1"/>
        <pt x="551" y="272" on="1"/>
        <pt x="539" y="216" on="0"/>
        <pt x="491" y="115" on="0"/>
        <pt x="416" y="40" on="0"/>
        <pt x="315" y="-4" on="0"/>
      </contour>
    </TTGlyph>
    <TTGlyph name="Uacute" xMin="71" yMin="-5" xMax="737" yMax="916">
      <contour>
        <pt x="464" y="795" on="1"/>
        <pt x="410" y="815" on="1"/>
        <pt x="486" y="916" on="1"/>
        <pt x="573" y="916" on="1"/>
      </contour>
      <contour>
        <pt x="298" y="-5" on="1"/>
        <pt x="235" y="-5" on="0"/>
        <pt x="149" y="32" on="0"/>
        <pt x="95" y="96" on="0"/>
        <pt x="71" y="182" on="0"/>
        <pt x="71" y="232" on="1"/>
        <pt x="71" y="287" on="0"/>
        <pt x="85" y="351" on="1"/>
        <pt x="161" y="710" on="1"/>
        <pt x="251" y="710" on="1"/>
        <pt x="175" y="351" on="1"/>
        <pt x="163" y="297" on="0"/>
        <pt x="163" y="247" on="1"/>
        <pt x="163" y="211" on="0"/>
        <pt x="178" y="149" on="0"/>
        <pt x="214" y="102" on="0"/>
        <pt x="272" y="76" on="0"/>
        <pt x="314" y="76" on="1"/>
        <pt x="372" y="76" on="0"/>
        <pt x="458" y="124" on="0"/>
        <pt x="520" y="201" on="0"/>
        <pt x="560" y="300" on="0"/>
        <pt x="571" y="351" on="1"/>
        <pt x="647" y="710" on="1"/>
        <pt x="737" y="710" on="1"/>
        <pt x="661" y="351" on="1"/>
        <pt x="646" y="279" on="0"/>
        <pt x="587" y="150" on="0"/>
        <pt x="497" y="52" on="0"/>
        <pt x="376" y="-5" on="0"/>
      </contour>
    </TTGlyph>
    <TTGlyph name="Ubreve" xMin="71" yMin="-5" xMax="737" yMax="916">
      <contour>
        <pt x="298" y="-5" on="1"/>
        <pt x="235" y="-5" on="0"/>
        <pt x="149" y="32" on="0"/>
        <pt x="95" y="96" on="0"/>
        <pt x="71" y="182" on="0"/>
        <pt x="71" y="232" on="1"/>
        <pt x="71" y="287" on="0"/>
        <pt x="85" y="351" on="1"/>
        <pt x="161" y="710" on="1"/>
        <pt x="251" y="710" on="1"/>
        <pt x="175" y="351" on="1"/>
        <pt x="163" y="297" on="0"/>
        <pt x="163" y="247" on="1"/>
        <pt x="163" y="211" on="0"/>
        <pt x="178" y="149" on="0"/>
        <pt x="214" y="102" on="0"/>
        <pt x="272" y="76" on="0"/>
        <pt x="314" y="76" on="1"/>
        <pt x="372" y="76" on="0"/>
        <pt x="458" y="124" on="0"/>
        <pt x="520" y="201" on="0"/>
        <pt x="560" y="300" on="0"/>
        <pt x="571" y="351" on="1"/>
        <pt x="647" y="710" on="1"/>
        <pt x="737" y="710" on="1"/>
        <pt x="661" y="351" on="1"/>
        <pt x="646" y="279" on="0"/>
        <pt x="587" y="150" on="0"/>
        <pt x="497" y="52" on="0"/>
        <pt x="376" y="-5" on="0"/>
      </contour>
      <contour>
        <pt x="465" y="848" on="1"/>
        <pt x="485" y="848" on="0"/>
        <pt x="525" y="887" on="0"/>
        <pt x="534" y="916" on="1"/>
        <pt x="584" y="916" on="1"/>
        <pt x="579" y="892" on="0"/>
        <pt x="554" y="852" on="0"/>
        <pt x="520" y="822" on="0"/>
        <pt x="478" y="805" on="0"/>
        <pt x="456" y="805" on="1"/>
        <pt x="417" y="805" on="0"/>
        <pt x="371" y="852" on="0"/>
        <pt x="371" y="890" on="1"/>
        <pt x="371" y="902" on="0"/>
        <pt x="374" y="916" on="1"/>
        <pt x="425" y="916" on="1"/>
        <pt x="424" y="911" on="0"/>
        <pt x="423" y="904" on="0"/>
        <pt x="423" y="899" on="1"/>
        <pt x="423" y="878" on="0"/>
        <pt x="446" y="848" on="0"/>
      </contour>
    </TTGlyph>
    <TTGlyph name="Ucircumflex" xMin="71" yMin="-5" xMax="737" yMax="916">
      <contour>
        <pt x="339" y="826" on="1"/>
        <pt x="455" y="916" on="1"/>
        <pt x="519" y="916" on="1"/>
        <pt x="596" y="826" on="1"/>
        <pt x="543" y="802" on="1"/>
        <pt x="476" y="865" on="1"/>
        <pt x="382" y="802" on="1"/>
      </contour>
      <contour>
        <pt x="298" y="-5" on="1"/>
        <pt x="235" y="-5" on="0"/>
        <pt x="149" y="32" on="0"/>
        <pt x="95" y="96" on="0"/>
        <pt x="71" y="182" on="0"/>
        <pt x="71" y="232" on="1"/>
        <pt x="71" y="287" on="0"/>
        <pt x="85" y="351" on="1"/>
        <pt x="161" y="710" on="1"/>
        <pt x="251" y="710" on="1"/>
        <pt x="175" y="351" on="1"/>
        <pt x="163" y="297" on="0"/>
        <pt x="163" y="247" on="1"/>
        <pt x="163" y="211" on="0"/>
        <pt x="178" y="149" on="0"/>
        <pt x="214" y="102" on="0"/>
        <pt x="272" y="76" on="0"/>
        <pt x="314" y="76" on="1"/>
        <pt x="372" y="76" on="0"/>
        <pt x="458" y="124" on="0"/>
        <pt x="520" y="201" on="0"/>
        <pt x="560" y="300" on="0"/>
        <pt x="571" y="351" on="1"/>
        <pt x="647" y="710" on="1"/>
        <pt x="737" y="710" on="1"/>
        <pt x="661" y="351" on="1"/>
        <pt x="646" y="279" on="0"/>
        <pt x="587" y="150" on="0"/>
        <pt x="497" y="52" on="0"/>
        <pt x="376" y="-5" on="0"/>
      </contour>
    </TTGlyph>
    <TTGlyph name="Udblgrave" xMin="71" yMin="-5" xMax="737" yMax="918">
      <contour>
        <pt x="298" y="-5" on="1"/>
        <pt x="235" y="-5" on="0"/>
        <pt x="149" y="32" on="0"/>
        <pt x="95" y="96" on="0"/>
        <pt x="71" y="182" on="0"/>
        <pt x="71" y="232" on="1"/>
        <pt x="71" y="287" on="0"/>
        <pt x="85" y="351" on="1"/>
        <pt x="161" y="710" on="1"/>
        <pt x="251" y="710" on="1"/>
        <pt x="175" y="351" on="1"/>
        <pt x="163" y="297" on="0"/>
        <pt x="163" y="247" on="1"/>
        <pt x="163" y="211" on="0"/>
        <pt x="178" y="149" on="0"/>
        <pt x="214" y="102" on="0"/>
        <pt x="272" y="76" on="0"/>
        <pt x="314" y="76" on="1"/>
        <pt x="372" y="76" on="0"/>
        <pt x="458" y="124" on="0"/>
        <pt x="520" y="201" on="0"/>
        <pt x="560" y="300" on="0"/>
        <pt x="571" y="351" on="1"/>
        <pt x="647" y="710" on="1"/>
        <pt x="737" y="710" on="1"/>
        <pt x="661" y="351" on="1"/>
        <pt x="646" y="279" on="0"/>
        <pt x="587" y="150" on="0"/>
        <pt x="497" y="52" on="0"/>
        <pt x="376" y="-5" on="0"/>
      </contour>
      <contour>
        <pt x="472" y="918" on="1"/>
        <pt x="546" y="918" on="1"/>
        <pt x="576" y="817" on="1"/>
        <pt x="526" y="797" on="1"/>
      </contour>
      <contour>
        <pt x="340" y="918" on="1"/>
        <pt x="415" y="918" on="1"/>
        <pt x="444" y="817" on="1"/>
        <pt x="394" y="797" on="1"/>
      </contour>
    </TTGlyph>
    <TTGlyph name="Udieresis" xMin="71" yMin="-5" xMax="737" yMax="913">
      <contour>
        <pt x="347" y="811" on="1"/>
        <pt x="369" y="913" on="1"/>
        <pt x="443" y="913" on="1"/>
        <pt x="421" y="811" on="1"/>
      </contour>
      <contour>
        <pt x="504" y="811" on="1"/>
        <pt x="526" y="913" on="1"/>
        <pt x="599" y="913" on="1"/>
        <pt x="578" y="811" on="1"/>
      </contour>
      <contour>
        <pt x="298" y="-5" on="1"/>
        <pt x="235" y="-5" on="0"/>
        <pt x="149" y="32" on="0"/>
        <pt x="95" y="96" on="0"/>
        <pt x="71" y="182" on="0"/>
        <pt x="71" y="232" on="1"/>
        <pt x="71" y="287" on="0"/>
        <pt x="85" y="351" on="1"/>
        <pt x="161" y="710" on="1"/>
        <pt x="251" y="710" on="1"/>
        <pt x="175" y="351" on="1"/>
        <pt x="163" y="297" on="0"/>
        <pt x="163" y="247" on="1"/>
        <pt x="163" y="211" on="0"/>
        <pt x="178" y="149" on="0"/>
        <pt x="214" y="102" on="0"/>
        <pt x="272" y="76" on="0"/>
        <pt x="314" y="76" on="1"/>
        <pt x="372" y="76" on="0"/>
        <pt x="458" y="124" on="0"/>
        <pt x="520" y="201" on="0"/>
        <pt x="560" y="300" on="0"/>
        <pt x="571" y="351" on="1"/>
        <pt x="647" y="710" on="1"/>
        <pt x="737" y="710" on="1"/>
        <pt x="661" y="351" on="1"/>
        <pt x="646" y="279" on="0"/>
        <pt x="587" y="150" on="0"/>
        <pt x="497" y="52" on="0"/>
        <pt x="376" y="-5" on="0"/>
      </contour>
    </TTGlyph>
    <TTGlyph name="Udotbelow" xMin="71" yMin="-182" xMax="737" yMax="710">
      <contour>
        <pt x="298" y="-5" on="1"/>
        <pt x="235" y="-5" on="0"/>
        <pt x="149" y="32" on="0"/>
        <pt x="95" y="96" on="0"/>
        <pt x="71" y="182" on="0"/>
        <pt x="71" y="232" on="1"/>
        <pt x="71" y="287" on="0"/>
        <pt x="85" y="351" on="1"/>
        <pt x="161" y="710" on="1"/>
        <pt x="251" y="710" on="1"/>
        <pt x="175" y="351" on="1"/>
        <pt x="163" y="297" on="0"/>
        <pt x="163" y="247" on="1"/>
        <pt x="163" y="211" on="0"/>
        <pt x="178" y="149" on="0"/>
        <pt x="214" y="102" on="0"/>
        <pt x="272" y="76" on="0"/>
        <pt x="314" y="76" on="1"/>
        <pt x="372" y="76" on="0"/>
        <pt x="458" y="124" on="0"/>
        <pt x="520" y="201" on="0"/>
        <pt x="560" y="300" on="0"/>
        <pt x="571" y="351" on="1"/>
        <pt x="647" y="710" on="1"/>
        <pt x="737" y="710" on="1"/>
        <pt x="661" y="351" on="1"/>
        <pt x="646" y="279" on="0"/>
        <pt x="587" y="150" on="0"/>
        <pt x="497" y="52" on="0"/>
        <pt x="376" y="-5" on="0"/>
      </contour>
      <contour>
        <pt x="214" y="-182" on="1"/>
        <pt x="237" y="-76" on="1"/>
        <pt x="316" y="-76" on="1"/>
        <pt x="294" y="-182" on="1"/>
      </contour>
    </TTGlyph>
    <TTGlyph name="Ugrave" xMin="71" yMin="-5" xMax="737" yMax="917">
      <contour>
        <pt x="298" y="-5" on="1"/>
        <pt x="235" y="-5" on="0"/>
        <pt x="149" y="32" on="0"/>
        <pt x="95" y="96" on="0"/>
        <pt x="71" y="182" on="0"/>
        <pt x="71" y="232" on="1"/>
        <pt x="71" y="287" on="0"/>
        <pt x="85" y="351" on="1"/>
        <pt x="161" y="710" on="1"/>
        <pt x="251" y="710" on="1"/>
        <pt x="175" y="351" on="1"/>
        <pt x="163" y="297" on="0"/>
        <pt x="163" y="247" on="1"/>
        <pt x="163" y="211" on="0"/>
        <pt x="178" y="149" on="0"/>
        <pt x="214" y="102" on="0"/>
        <pt x="272" y="76" on="0"/>
        <pt x="314" y="76" on="1"/>
        <pt x="372" y="76" on="0"/>
        <pt x="458" y="124" on="0"/>
        <pt x="520" y="201" on="0"/>
        <pt x="560" y="300" on="0"/>
        <pt x="571" y="351" on="1"/>
        <pt x="647" y="710" on="1"/>
        <pt x="737" y="710" on="1"/>
        <pt x="661" y="351" on="1"/>
        <pt x="646" y="279" on="0"/>
        <pt x="587" y="150" on="0"/>
        <pt x="497" y="52" on="0"/>
        <pt x="376" y="-5" on="0"/>
      </contour>
      <contour>
        <pt x="401" y="917" on="1"/>
        <pt x="487" y="917" on="1"/>
        <pt x="521" y="816" on="1"/>
        <pt x="460" y="796" on="1"/>
      </contour>
    </TTGlyph>
    <TTGlyph name="Uhungarumlaut" xMin="71" yMin="-5" xMax="737" yMax="917">
      <contour>
        <pt x="298" y="-5" on="1"/>
        <pt x="235" y="-5" on="0"/>
        <pt x="149" y="32" on="0"/>
        <pt x="95" y="96" on="0"/>
        <pt x="71" y="182" on="0"/>
        <pt x="71" y="232" on="1"/>
        <pt x="71" y="287" on="0"/>
        <pt x="85" y="351" on="1"/>
        <pt x="161" y="710" on="1"/>
        <pt x="251" y="710" on="1"/>
        <pt x="175" y="351" on="1"/>
        <pt x="163" y="297" on="0"/>
        <pt x="163" y="247" on="1"/>
        <pt x="163" y="211" on="0"/>
        <pt x="178" y="149" on="0"/>
        <pt x="214" y="102" on="0"/>
        <pt x="272" y="76" on="0"/>
        <pt x="314" y="76" on="1"/>
        <pt x="372" y="76" on="0"/>
        <pt x="458" y="124" on="0"/>
        <pt x="520" y="201" on="0"/>
        <pt x="560" y="300" on="0"/>
        <pt x="571" y="351" on="1"/>
        <pt x="647" y="710" on="1"/>
        <pt x="737" y="710" on="1"/>
        <pt x="661" y="351" on="1"/>
        <pt x="646" y="279" on="0"/>
        <pt x="587" y="150" on="0"/>
        <pt x="497" y="52" on="0"/>
        <pt x="376" y="-5" on="0"/>
      </contour>
      <contour>
        <pt x="385" y="796" on="1"/>
        <pt x="344" y="816" on="1"/>
        <pt x="416" y="917" on="1"/>
        <pt x="491" y="917" on="1"/>
      </contour>
      <contour>
        <pt x="517" y="796" on="1"/>
        <pt x="476" y="816" on="1"/>
        <pt x="548" y="917" on="1"/>
        <pt x="623" y="917" on="1"/>
      </contour>
    </TTGlyph>
    <TTGlyph name="Uinvertedbreve" xMin="71" yMin="-5" xMax="737" yMax="916">
      <contour>
        <pt x="298" y="-5" on="1"/>
        <pt x="235" y="-5" on="0"/>
        <pt x="149" y="32" on="0"/>
        <pt x="95" y="96" on="0"/>
        <pt x="71" y="182" on="0"/>
        <pt x="71" y="232" on="1"/>
        <pt x="71" y="287" on="0"/>
        <pt x="85" y="351" on="1"/>
        <pt x="161" y="710" on="1"/>
        <pt x="251" y="710" on="1"/>
        <pt x="175" y="351" on="1"/>
        <pt x="163" y="297" on="0"/>
        <pt x="163" y="247" on="1"/>
        <pt x="163" y="211" on="0"/>
        <pt x="178" y="149" on="0"/>
        <pt x="214" y="102" on="0"/>
        <pt x="272" y="76" on="0"/>
        <pt x="314" y="76" on="1"/>
        <pt x="372" y="76" on="0"/>
        <pt x="458" y="124" on="0"/>
        <pt x="520" y="201" on="0"/>
        <pt x="560" y="300" on="0"/>
        <pt x="571" y="351" on="1"/>
        <pt x="647" y="710" on="1"/>
        <pt x="737" y="710" on="1"/>
        <pt x="661" y="351" on="1"/>
        <pt x="646" y="279" on="0"/>
        <pt x="587" y="150" on="0"/>
        <pt x="497" y="52" on="0"/>
        <pt x="376" y="-5" on="0"/>
      </contour>
      <contour>
        <pt x="365" y="805" on="1"/>
        <pt x="370" y="829" on="0"/>
        <pt x="394" y="869" on="0"/>
        <pt x="429" y="899" on="0"/>
        <pt x="470" y="916" on="0"/>
        <pt x="492" y="916" on="1"/>
        <pt x="530" y="916" on="0"/>
        <pt x="577" y="865" on="0"/>
        <pt x="577" y="829" on="1"/>
        <pt x="577" y="817" on="0"/>
        <pt x="574" y="805" on="1"/>
        <pt x="525" y="805" on="1"/>
        <pt x="526" y="812" on="0"/>
        <pt x="527" y="824" on="0"/>
        <pt x="527" y="830" on="1"/>
        <pt x="527" y="873" on="0"/>
        <pt x="486" y="873" on="1"/>
        <pt x="454" y="873" on="0"/>
        <pt x="422" y="834" on="0"/>
        <pt x="415" y="805" on="1"/>
      </contour>
    </TTGlyph>
    <TTGlyph name="Umacron" xMin="71" yMin="-5" xMax="737" yMax="896">
      <contour>
        <pt x="298" y="-5" on="1"/>
        <pt x="235" y="-5" on="0"/>
        <pt x="149" y="32" on="0"/>
        <pt x="95" y="96" on="0"/>
        <pt x="71" y="182" on="0"/>
        <pt x="71" y="232" on="1"/>
        <pt x="71" y="287" on="0"/>
        <pt x="85" y="351" on="1"/>
        <pt x="161" y="710" on="1"/>
        <pt x="251" y="710" on="1"/>
        <pt x="175" y="351" on="1"/>
        <pt x="163" y="297" on="0"/>
        <pt x="163" y="247" on="1"/>
        <pt x="163" y="211" on="0"/>
        <pt x="178" y="149" on="0"/>
        <pt x="214" y="102" on="0"/>
        <pt x="272" y="76" on="0"/>
        <pt x="314" y="76" on="1"/>
        <pt x="372" y="76" on="0"/>
        <pt x="458" y="124" on="0"/>
        <pt x="520" y="201" on="0"/>
        <pt x="560" y="300" on="0"/>
        <pt x="571" y="351" on="1"/>
        <pt x="647" y="710" on="1"/>
        <pt x="737" y="710" on="1"/>
        <pt x="661" y="351" on="1"/>
        <pt x="646" y="279" on="0"/>
        <pt x="587" y="150" on="0"/>
        <pt x="497" y="52" on="0"/>
        <pt x="376" y="-5" on="0"/>
      </contour>
      <contour>
        <pt x="331" y="838" on="1"/>
        <pt x="343" y="896" on="1"/>
        <pt x="622" y="896" on="1"/>
        <pt x="609" y="838" on="1"/>
      </contour>
    </TTGlyph>
    <TTGlyph name="Uogonek" xMin="71" yMin="-181" xMax="737" yMax="710">
      <contour>
        <pt x="240" y="-181" on="1"/>
        <pt x="206" y="-174" on="0"/>
        <pt x="172" y="-139" on="0"/>
        <pt x="172" y="-116" on="1"/>
        <pt x="172" y="-88" on="0"/>
        <pt x="216" y="-32" on="0"/>
        <pt x="264" y="-3" on="1"/>
        <pt x="211" y="2" on="0"/>
        <pt x="137" y="42" on="0"/>
        <pt x="91" y="105" on="0"/>
        <pt x="71" y="186" on="0"/>
        <pt x="71" y="232" on="1"/>
        <pt x="71" y="287" on="0"/>
        <pt x="85" y="351" on="1"/>
        <pt x="161" y="710" on="1"/>
        <pt x="251" y="710" on="1"/>
        <pt x="175" y="351" on="1"/>
        <pt x="163" y="297" on="0"/>
        <pt x="163" y="247" on="1"/>
        <pt x="163" y="211" on="0"/>
        <pt x="178" y="149" on="0"/>
        <pt x="214" y="102" on="0"/>
        <pt x="272" y="76" on="0"/>
        <pt x="314" y="76" on="1"/>
        <pt x="372" y="76" on="0"/>
        <pt x="458" y="124" on="0"/>
        <pt x="520" y="201" on="0"/>
        <pt x="560" y="300" on="0"/>
        <pt x="571" y="351" on="1"/>
        <pt x="647" y="710" on="1"/>
        <pt x="737" y="710" on="1"/>
        <pt x="661" y="351" on="1"/>
        <pt x="646" y="281" on="0"/>
        <pt x="590" y="155" on="0"/>
        <pt x="504" y="59" on="0"/>
        <pt x="389" y="-1" on="0"/>
        <pt x="316" y="-4" on="1"/>
        <pt x="267" y="-33" on="0"/>
        <pt x="226" y="-77" on="0"/>
        <pt x="226" y="-99" on="1"/>
        <pt x="226" y="-131" on="0"/>
        <pt x="271" y="-135" on="1"/>
        <pt x="240" y="-181" on="1"/>
      </contour>
    </TTGlyph>
    <TTGlyph name="Uring" xMin="71" yMin="-5" xMax="737" yMax="916">
      <contour>
        <pt x="394" y="834" on="1"/>
        <pt x="394" y="871" on="0"/>
        <pt x="450" y="916" on="0"/>
        <pt x="489" y="916" on="1"/>
        <pt x="520" y="916" on="0"/>
        <pt x="554" y="886" on="0"/>
        <pt x="554" y="860" on="1"/>
        <pt x="554" y="824" on="0"/>
        <pt x="500" y="778" on="0"/>
        <pt x="459" y="778" on="1"/>
        <pt x="429" y="778" on="0"/>
        <pt x="394" y="808" on="0"/>
      </contour>
      <contour>
        <pt x="482" y="885" on="1"/>
        <pt x="464" y="885" on="0"/>
        <pt x="435" y="860" on="0"/>
        <pt x="435" y="840" on="1"/>
        <pt x="435" y="827" on="0"/>
        <pt x="452" y="809" on="0"/>
        <pt x="466" y="809" on="1"/>
        <pt x="483" y="809" on="0"/>
        <pt x="514" y="834" on="0"/>
        <pt x="514" y="854" on="1"/>
        <pt x="514" y="868" on="0"/>
        <pt x="496" y="885" on="0"/>
      </contour>
      <contour>
        <pt x="298" y="-5" on="1"/>
        <pt x="235" y="-5" on="0"/>
        <pt x="149" y="32" on="0"/>
        <pt x="95" y="96" on="0"/>
        <pt x="71" y="182" on="0"/>
        <pt x="71" y="232" on="1"/>
        <pt x="71" y="287" on="0"/>
        <pt x="85" y="351" on="1"/>
        <pt x="161" y="710" on="1"/>
        <pt x="251" y="710" on="1"/>
        <pt x="175" y="351" on="1"/>
        <pt x="163" y="297" on="0"/>
        <pt x="163" y="247" on="1"/>
        <pt x="163" y="211" on="0"/>
        <pt x="178" y="149" on="0"/>
        <pt x="214" y="102" on="0"/>
        <pt x="272" y="76" on="0"/>
        <pt x="314" y="76" on="1"/>
        <pt x="372" y="76" on="0"/>
        <pt x="458" y="124" on="0"/>
        <pt x="520" y="201" on="0"/>
        <pt x="560" y="300" on="0"/>
        <pt x="571" y="351" on="1"/>
        <pt x="647" y="710" on="1"/>
        <pt x="737" y="710" on="1"/>
        <pt x="661" y="351" on="1"/>
        <pt x="646" y="279" on="0"/>
        <pt x="587" y="150" on="0"/>
        <pt x="497" y="52" on="0"/>
        <pt x="376" y="-5" on="0"/>
      </contour>
    </TTGlyph>
</ttFont>
